<?xml version="1.0" encoding="UTF-8" standalone="no"?>
<svg
   xmlns:dc="http://purl.org/dc/elements/1.1/"
   xmlns:cc="http://creativecommons.org/ns#"
   xmlns:rdf="http://www.w3.org/1999/02/22-rdf-syntax-ns#"
   xmlns:svg="http://www.w3.org/2000/svg"
   xmlns="http://www.w3.org/2000/svg"
   xmlns:sodipodi="http://sodipodi.sourceforge.net/DTD/sodipodi-0.dtd"
   xmlns:inkscape="http://www.inkscape.org/namespaces/inkscape"
   width="25.099129mm"
   height="22.283985mm"
   viewBox="0 0 25.099129 22.283985"
   version="1.1"
   id="svg8"
   inkscape:version="1.0.2-2 (e86c870879, 2021-01-15)"
   sodipodi:docname="blue.svg">
  <defs
     id="defs2" />
  <sodipodi:namedview
     id="base"
     pagecolor="#ffffff"
     bordercolor="#666666"
     borderopacity="1.0"
     inkscape:pageopacity="0.0"
     inkscape:pageshadow="2"
     inkscape:zoom="2.5079499"
     inkscape:cx="-43.168781"
     inkscape:cy="-59.003467"
     inkscape:document-units="mm"
     inkscape:current-layer="layer1"
     inkscape:document-rotation="0"
     showgrid="false"
     inkscape:window-width="1920"
     inkscape:window-height="1001"
     inkscape:window-x="-9"
     inkscape:window-y="-9"
     inkscape:window-maximized="1" />
  <metadata
     id="metadata5">
    <rdf:RDF>
      <cc:Work
         rdf:about="">
        <dc:format>image/svg+xml</dc:format>
        <dc:type
           rdf:resource="http://purl.org/dc/dcmitype/StillImage" />
        <dc:title />
      </cc:Work>
    </rdf:RDF>
  </metadata>
  <g
     inkscape:label="Vrstva 1"
     inkscape:groupmode="layer"
     id="layer1"
     transform="translate(-107.62507,-169.90176)">
    <g
       id="g918">
      <path
         id="path1074"
         style="opacity:0.976645;fill:#000000;fill-opacity:0.996078;stroke-width:0.284424;stroke-linecap:square;paint-order:stroke fill markers"
         d="m 132.7242,181.04375 a 12.549565,11.141991 0 0 1 -12.54957,11.14199 12.549565,11.141991 0 0 1 -12.54956,-11.14199 12.549565,11.141991 0 0 1 12.54956,-11.14199 12.549565,11.141991 0 0 1 12.54957,11.14199 z" />
      <path
         id="circle1102"
         style="opacity:0.976645;fill:#3f51b5;fill-opacity:1;stroke-width:0.259646;stroke-linecap:square;paint-order:stroke fill markers"
         d="m 131.56896,181.02632 a 11.442541,10.183642 0 0 1 -11.44254,10.18364 11.442541,10.183642 0 0 1 -11.44254,-10.18364 11.442541,10.183642 0 0 1 11.44254,-10.18365 11.442541,10.183642 0 0 1 11.44254,10.18365 z" />
      <g
         id="g1072"
         transform="matrix(0.48900974,0,0,0.44857096,102.81446,128.62666)">
        <path
           id="circle1060"
           style="opacity:0.976645;fill:#000000;fill-opacity:0.992157;stroke:none;stroke-width:0.524995;stroke-linecap:square;stroke-linejoin:miter;stroke-miterlimit:4;stroke-dasharray:none;stroke-opacity:1;paint-order:markers fill stroke"
           d="m 36.248775,110.23035 a 7.9897666,7.7617302 0 0 1 -7.989767,7.76173 7.9897666,7.7617302 0 0 1 -7.989766,-7.76173 7.9897666,7.7617302 0 0 1 7.989766,-7.76173 7.9897666,7.7617302 0 0 1 7.989767,7.76173 z" />
        <path
           id="path1062"
           style="opacity:0.976645;fill:#cccccc;fill-opacity:0.992157;stroke:none;stroke-width:0;stroke-linecap:square;stroke-linejoin:miter;stroke-miterlimit:4;stroke-dasharray:none;stroke-opacity:1;paint-order:stroke fill markers"
           d="m 23.711241,104.72021 a 7.2776169,7.1427299 0 0 0 -2.69227,5.54666 7.2776169,7.1427299 0 0 0 7.27747,7.1425 7.2776169,7.1427299 0 0 0 5.85963,-2.90663 7.2776169,7.1427299 0 0 1 -0.054,0.0425 7.2776169,7.1427299 0 0 1 -0.0669,0.0516 7.2776169,7.1427299 0 0 1 -0.0674,0.0508 7.2776169,7.1427299 0 0 1 -0.068,0.05 7.2776169,7.1427299 0 0 1 -0.0685,0.0492 7.2776169,7.1427299 0 0 1 -0.0691,0.0484 7.2776169,7.1427299 0 0 1 -0.0699,0.0476 7.2776169,7.1427299 0 0 1 -0.0702,0.0468 7.2776169,7.1427299 0 0 1 -0.0707,0.046 7.2776169,7.1427299 0 0 1 -0.0716,0.0452 7.2776169,7.1427299 0 0 1 -0.0718,0.0444 7.2776169,7.1427299 0 0 1 -0.0724,0.0436 7.2776169,7.1427299 0 0 1 -0.073,0.0425 7.2776169,7.1427299 0 0 1 -0.0735,0.042 7.2776169,7.1427299 0 0 1 -0.0738,0.0409 7.2776169,7.1427299 0 0 1 -0.0746,0.0404 7.2776169,7.1427299 0 0 1 -0.0749,0.0393 7.2776169,7.1427299 0 0 1 -0.0754,0.0382 7.2776169,7.1427299 0 0 1 -0.0757,0.0377 7.2776169,7.1427299 0 0 1 -0.0762,0.0366 7.2776169,7.1427299 0 0 1 -0.0768,0.0358 7.2776169,7.1427299 0 0 1 -0.0771,0.035 7.2776169,7.1427299 0 0 1 -0.0776,0.0342 7.2776169,7.1427299 0 0 1 -0.0779,0.0332 7.2776169,7.1427299 0 0 1 -0.0782,0.0324 7.2776169,7.1427299 0 0 1 -0.0787,0.0313 7.2776169,7.1427299 0 0 1 -0.079,0.0305 7.2776169,7.1427299 0 0 1 -0.0796,0.0297 7.2776169,7.1427299 0 0 1 -0.0798,0.0286 7.2776169,7.1427299 0 0 1 -0.0801,0.0278 7.2776169,7.1427299 0 0 1 -0.0804,0.0267 7.2776169,7.1427299 0 0 1 -0.0807,0.0259 7.2776169,7.1427299 0 0 1 -0.0809,0.0249 7.2776169,7.1427299 0 0 1 -0.0815,0.0241 7.2776169,7.1427299 0 0 1 -0.0815,0.0233 7.2776169,7.1427299 0 0 1 -0.082,0.0222 7.2776169,7.1427299 0 0 1 -0.082,0.0211 7.2776169,7.1427299 0 0 1 -0.0823,0.0203 7.2776169,7.1427299 0 0 1 -0.0829,0.0195 7.2776169,7.1427299 0 0 1 -0.0828,0.0185 7.2776169,7.1427299 0 0 1 -0.0829,0.0174 7.2776169,7.1427299 0 0 1 -0.0834,0.0166 7.2776169,7.1427299 0 0 1 -0.0834,0.0155 7.2776169,7.1427299 0 0 1 -0.0837,0.0144 7.2776169,7.1427299 0 0 1 -0.0837,0.0136 7.2776169,7.1427299 0 0 1 -0.084,0.0128 7.2776169,7.1427299 0 0 1 -0.0842,0.0118 7.2776169,7.1427299 0 0 1 -0.0842,0.0107 7.2776169,7.1427299 0 0 1 -0.0842,0.01 7.2776169,7.1427299 0 0 1 -0.0845,0.009 7.2776169,7.1427299 0 0 1 -0.0845,0.008 7.2776169,7.1427299 0 0 1 -0.0848,0.007 7.2776169,7.1427299 0 0 1 -0.0848,0.006 7.2776169,7.1427299 0 0 1 -0.0848,0.005 7.2776169,7.1427299 0 0 1 -0.0848,0.004 7.2776169,7.1427299 0 0 1 -0.0848,0.003 7.2776169,7.1427299 0 0 1 -0.085,0.002 7.2776169,7.1427299 0 0 1 -0.0848,10e-4 7.2776169,7.1427299 0 0 1 -0.0495,0 7.2776169,7.1427299 0 0 1 -0.0851,-5.4e-4 7.2776169,7.1427299 0 0 1 -0.0848,-10e-4 7.2776169,7.1427299 0 0 1 -0.085,-0.002 7.2776169,7.1427299 0 0 1 -0.0848,-0.003 7.2776169,7.1427299 0 0 1 -0.0848,-0.004 7.2776169,7.1427299 0 0 1 -0.0848,-0.005 7.2776169,7.1427299 0 0 1 -0.0848,-0.006 7.2776169,7.1427299 0 0 1 -0.0845,-0.007 7.2776169,7.1427299 0 0 1 -0.0845,-0.008 7.2776169,7.1427299 0 0 1 -0.0845,-0.009 7.2776169,7.1427299 0 0 1 -0.0842,-0.0104 7.2776169,7.1427299 0 0 1 -0.0842,-0.011 7.2776169,7.1427299 0 0 1 -0.084,-0.0123 7.2776169,7.1427299 0 0 1 -0.084,-0.0131 7.2776169,7.1427299 0 0 1 -0.0837,-0.0139 7.2776169,7.1427299 0 0 1 -0.0837,-0.015 7.2776169,7.1427299 0 0 1 -0.0834,-0.0161 7.2776169,7.1427299 0 0 1 -0.0831,-0.0168 7.2776169,7.1427299 0 0 1 -0.0829,-0.0179 7.2776169,7.1427299 0 0 1 -0.0829,-0.0187 7.2776169,7.1427299 0 0 1 -0.0826,-0.0198 7.2776169,7.1427299 0 0 1 -0.0823,-0.0206 7.2776169,7.1427299 0 0 1 -0.082,-0.0217 7.2776169,7.1427299 0 0 1 -0.0817,-0.0227 7.2776169,7.1427299 0 0 1 -0.0815,-0.0235 7.2776169,7.1427299 0 0 1 -0.0812,-0.0243 7.2776169,7.1427299 0 0 1 -0.0809,-0.0254 7.2776169,7.1427299 0 0 1 -0.0807,-0.0262 7.2776169,7.1427299 0 0 1 -0.0801,-0.0273 7.2776169,7.1427299 0 0 1 -0.0801,-0.0283 7.2776169,7.1427299 0 0 1 -0.0795,-0.0289 7.2776169,7.1427299 0 0 1 -0.0793,-0.03 7.2776169,7.1427299 0 0 1 -0.079,-0.031 7.2776169,7.1427299 0 0 1 -0.0785,-0.0318 7.2776169,7.1427299 0 0 1 -0.0782,-0.0326 7.2776169,7.1427299 0 0 1 -0.0776,-0.0334 7.2776169,7.1427299 0 0 1 -0.0774,-0.0345 7.2776169,7.1427299 0 0 1 -0.0771,-0.0353 7.2776169,7.1427299 0 0 1 -0.0765,-0.0364 7.2776169,7.1427299 0 0 1 -0.076,-0.0369 7.2776169,7.1427299 0 0 1 -0.0757,-0.038 7.2776169,7.1427299 0 0 1 -0.0751,-0.0388 7.2776169,7.1427299 0 0 1 -0.0746,-0.0398 7.2776169,7.1427299 0 0 1 -0.0743,-0.0404 7.2776169,7.1427299 0 0 1 -0.0738,-0.0414 7.2776169,7.1427299 0 0 1 -0.0732,-0.0422 7.2776169,7.1427299 0 0 1 -0.0727,-0.043 7.2776169,7.1427299 0 0 1 -0.0724,-0.0439 7.2776169,7.1427299 0 0 1 -0.0716,-0.0447 7.2776169,7.1427299 0 0 1 -0.0713,-0.0457 7.2776169,7.1427299 0 0 1 -0.0705,-0.0463 7.2776169,7.1427299 0 0 1 -0.0702,-0.0471 7.2776169,7.1427299 0 0 1 -0.0694,-0.0481 7.2776169,7.1427299 0 0 1 -0.0691,-0.0487 7.2776169,7.1427299 0 0 1 -0.0683,-0.0495 7.2776169,7.1427299 0 0 1 -0.0677,-0.0503 7.2776169,7.1427299 0 0 1 -0.0672,-0.0511 7.2776169,7.1427299 0 0 1 -0.0663,-0.0519 7.2776169,7.1427299 0 0 1 -0.0661,-0.0527 7.2776169,7.1427299 0 0 1 -0.0652,-0.0532 7.2776169,7.1427299 0 0 1 -0.0647,-0.0543 7.2776169,7.1427299 0 0 1 -0.0639,-0.0548 7.2776169,7.1427299 0 0 1 -0.0633,-0.0556 7.2776169,7.1427299 0 0 1 -0.0628,-0.0562 7.2776169,7.1427299 0 0 1 -0.0619,-0.057 7.2776169,7.1427299 0 0 1 -0.0614,-0.0577 7.2776169,7.1427299 0 0 1 -0.0606,-0.0583 7.2776169,7.1427299 0 0 1 -0.06,-0.0591 7.2776169,7.1427299 0 0 1 -0.0592,-0.0599 7.2776169,7.1427299 0 0 1 -0.0584,-0.0604 7.2776169,7.1427299 0 0 1 -0.0578,-0.0612 7.2776169,7.1427299 0 0 1 -0.057,-0.0618 7.2776169,7.1427299 0 0 1 -0.0564,-0.0623 7.2776169,7.1427299 0 0 1 -0.0556,-0.0631 7.2776169,7.1427299 0 0 1 -0.0548,-0.0636 7.2776169,7.1427299 0 0 1 -0.054,-0.0644 7.2776169,7.1427299 0 0 1 -0.0534,-0.0647 7.2776169,7.1427299 0 0 1 -0.0526,-0.0655 7.2776169,7.1427299 0 0 1 -0.0515,-0.0663 7.2776169,7.1427299 0 0 1 -0.0509,-0.0666 7.2776169,7.1427299 0 0 1 -0.0501,-0.0674 7.2776169,7.1427299 0 0 1 -0.0495,-0.0679 7.2776169,7.1427299 0 0 1 -0.0484,-0.0685 7.2776169,7.1427299 0 0 1 -0.0476,-0.069 7.2776169,7.1427299 0 0 1 -0.0468,-0.0695 7.2776169,7.1427299 0 0 1 -0.0463,-0.0701 7.2776169,7.1427299 0 0 1 -0.0451,-0.0706 7.2776169,7.1427299 0 0 1 -0.0443,-0.0711 7.2776169,7.1427299 0 0 1 -0.0435,-0.0714 7.2776169,7.1427299 0 0 1 -0.0427,-0.0722 7.2776169,7.1427299 0 0 1 -0.0418,-0.0725 7.2776169,7.1427299 0 0 1 -0.041,-0.073 7.2776169,7.1427299 0 0 1 -0.0399,-0.0735 7.2776169,7.1427299 0 0 1 -0.0394,-0.0741 7.2776169,7.1427299 0 0 1 -0.0383,-0.0743 7.2776169,7.1427299 0 0 1 -0.0374,-0.0749 7.2776169,7.1427299 0 0 1 -0.0366,-0.0754 7.2776169,7.1427299 0 0 1 -0.0355,-0.0757 7.2776169,7.1427299 0 0 1 -0.0347,-0.0759 7.2776169,7.1427299 0 0 1 -0.0339,-0.0765 7.2776169,7.1427299 0 0 1 -0.033,-0.077 7.2776169,7.1427299 0 0 1 -0.0319,-0.077 7.2776169,7.1427299 0 0 1 -0.0311,-0.0778 7.2776169,7.1427299 0 0 1 -0.03,-0.0778 7.2776169,7.1427299 0 0 1 -0.0292,-0.0784 7.2776169,7.1427299 0 0 1 -0.0284,-0.0786 7.2776169,7.1427299 0 0 1 -0.0272,-0.0789 7.2776169,7.1427299 0 0 1 -0.0264,-0.0791 7.2776169,7.1427299 0 0 1 -0.0256,-0.0797 7.2776169,7.1427299 0 0 1 -0.0245,-0.0797 7.2776169,7.1427299 0 0 1 -0.0234,-0.0802 7.2776169,7.1427299 0 0 1 -0.0228,-0.0802 7.2776169,7.1427299 0 0 1 -0.0215,-0.0808 7.2776169,7.1427299 0 0 1 -0.0206,-0.0807 7.2776169,7.1427299 0 0 1 -0.0198,-0.081 7.2776169,7.1427299 0 0 1 -0.0187,-0.0813 7.2776169,7.1427299 0 0 1 -0.0179,-0.0816 7.2776169,7.1427299 0 0 1 -0.0168,-0.0818 7.2776169,7.1427299 0 0 1 -0.016,-0.0818 7.2776169,7.1427299 0 0 1 -0.0149,-0.0821 7.2776169,7.1427299 0 0 1 -0.0138,-0.0824 7.2776169,7.1427299 0 0 1 -0.0129,-0.0824 7.2776169,7.1427299 0 0 1 -0.0118,-0.0826 7.2776169,7.1427299 0 0 1 -0.011,-0.0826 7.2776169,7.1427299 0 0 1 -0.01,-0.0826 7.2776169,7.1427299 0 0 1 -0.009,-0.0829 7.2776169,7.1427299 0 0 1 -0.008,-0.0832 7.2776169,7.1427299 0 0 1 -0.007,-0.0829 7.2776169,7.1427299 0 0 1 -0.006,-0.0832 7.2776169,7.1427299 0 0 1 -0.005,-0.0834 7.2776169,7.1427299 0 0 1 -0.004,-0.0832 7.2776169,7.1427299 0 0 1 -0.003,-0.0834 7.2776169,7.1427299 0 0 1 -0.002,-0.0832 7.2776169,7.1427299 0 0 1 -10e-4,-0.0834 7.2776169,7.1427299 0 0 1 -2.8e-4,-0.0487 7.2776169,7.1427299 0 0 1 5.6e-4,-0.0832 7.2776169,7.1427299 0 0 1 0.002,-0.0834 7.2776169,7.1427299 0 0 1 0.002,-0.0834 7.2776169,7.1427299 0 0 1 0.003,-0.0832 7.2776169,7.1427299 0 0 1 0.004,-0.0834 7.2776169,7.1427299 0 0 1 0.006,-0.0832 7.2776169,7.1427299 0 0 1 0.007,-0.0832 7.2776169,7.1427299 0 0 1 0.007,-0.0829 7.2776169,7.1427299 0 0 1 0.008,-0.0829 7.2776169,7.1427299 0 0 1 0.009,-0.0829 7.2776169,7.1427299 0 0 1 0.0105,-0.0829 7.2776169,7.1427299 0 0 1 0.0113,-0.0826 7.2776169,7.1427299 0 0 1 0.0124,-0.0824 7.2776169,7.1427299 0 0 1 0.0135,-0.0824 7.2776169,7.1427299 0 0 1 0.0143,-0.0821 7.2776169,7.1427299 0 0 1 0.0151,-0.0821 7.2776169,7.1427299 0 0 1 0.0162,-0.0818 7.2776169,7.1427299 0 0 1 0.0173,-0.0815 7.2776169,7.1427299 0 0 1 0.0182,-0.0816 7.2776169,7.1427299 0 0 1 0.019,-0.0813 7.2776169,7.1427299 0 0 1 0.0204,-0.0807 7.2776169,7.1427299 0 0 1 0.0209,-0.0808 7.2776169,7.1427299 0 0 1 0.022,-0.0807 7.2776169,7.1427299 0 0 1 0.0231,-0.0802 7.2776169,7.1427299 0 0 1 0.0239,-0.0799 7.2776169,7.1427299 0 0 1 0.0248,-0.0797 7.2776169,7.1427299 0 0 1 0.0259,-0.0794 7.2776169,7.1427299 0 0 1 0.027,-0.0791 7.2776169,7.1427299 0 0 1 0.0278,-0.0786 7.2776169,7.1427299 0 0 1 0.0286,-0.0786 7.2776169,7.1427299 0 0 1 0.0294,-0.0781 7.2776169,7.1427299 0 0 1 0.0306,-0.0778 7.2776169,7.1427299 0 0 1 0.0314,-0.0776 7.2776169,7.1427299 0 0 1 0.0325,-0.077 7.2776169,7.1427299 0 0 1 0.0333,-0.0767 7.2776169,7.1427299 0 0 1 0.0341,-0.0762 7.2776169,7.1427299 0 0 1 0.0352,-0.0759 7.2776169,7.1427299 0 0 1 0.0361,-0.0754 7.2776169,7.1427299 0 0 1 0.0369,-0.0751 7.2776169,7.1427299 0 0 1 0.0377,-0.0746 7.2776169,7.1427299 0 0 1 0.0385,-0.0743 7.2776169,7.1427299 0 0 1 0.0396,-0.0738 7.2776169,7.1427299 0 0 1 0.0405,-0.0733 7.2776169,7.1427299 0 0 1 0.0413,-0.0727 7.2776169,7.1427299 0 0 1 0.0421,-0.0725 7.2776169,7.1427299 0 0 1 0.0429,-0.0719 7.2776169,7.1427299 0 0 1 0.044,-0.0714 7.2776169,7.1427299 0 0 1 0.0446,-0.0709 7.2776169,7.1427299 0 0 1 0.0457,-0.0703 7.2776169,7.1427299 0 0 1 0.0462,-0.0698 7.2776169,7.1427299 0 0 1 0.0473,-0.0693 7.2776169,7.1427299 0 0 1 0.0479,-0.069 7.2776169,7.1427299 0 0 1 0.049,-0.0682 7.2776169,7.1427299 0 0 1 0.0495,-0.0677 7.2776169,7.1427299 0 0 1 0.0198,-0.0259 z" />
        <path
           id="path1064"
           style="opacity:0.976645;fill:#ffffff;fill-opacity:0.992157;stroke:none;stroke-width:0.480657;stroke-linecap:square;stroke-linejoin:miter;stroke-miterlimit:4;stroke-dasharray:none;stroke-opacity:1;paint-order:markers fill stroke"
           d="m 23.711241,104.72021 a 7.2776169,7.1427299 0 0 0 -0.0198,0.0259 7.2776169,7.1427299 0 0 0 -0.0495,0.0677 7.2776169,7.1427299 0 0 0 -0.049,0.0682 7.2776169,7.1427299 0 0 0 -0.0479,0.069 7.2776169,7.1427299 0 0 0 -0.0474,0.0693 7.2776169,7.1427299 0 0 0 -0.0462,0.0698 7.2776169,7.1427299 0 0 0 -0.0457,0.0703 7.2776169,7.1427299 0 0 0 -0.0446,0.0709 7.2776169,7.1427299 0 0 0 -0.044,0.0714 7.2776169,7.1427299 0 0 0 -0.0429,0.0719 7.2776169,7.1427299 0 0 0 -0.0421,0.0725 7.2776169,7.1427299 0 0 0 -0.0413,0.0727 7.2776169,7.1427299 0 0 0 -0.0405,0.0733 7.2776169,7.1427299 0 0 0 -0.0396,0.0738 7.2776169,7.1427299 0 0 0 -0.0385,0.0743 7.2776169,7.1427299 0 0 0 -0.0377,0.0746 7.2776169,7.1427299 0 0 0 -0.0369,0.0751 7.2776169,7.1427299 0 0 0 -0.0361,0.0754 7.2776169,7.1427299 0 0 0 -0.0352,0.0759 7.2776169,7.1427299 0 0 0 -0.0341,0.0762 7.2776169,7.1427299 0 0 0 -0.0333,0.0768 7.2776169,7.1427299 0 0 0 -0.0325,0.077 7.2776169,7.1427299 0 0 0 -0.0314,0.0775 7.2776169,7.1427299 0 0 0 -0.0306,0.0778 7.2776169,7.1427299 0 0 0 -0.0294,0.0781 7.2776169,7.1427299 0 0 0 -0.0286,0.0786 7.2776169,7.1427299 0 0 0 -0.0278,0.0786 7.2776169,7.1427299 0 0 0 -0.027,0.0791 7.2776169,7.1427299 0 0 0 -0.0259,0.0794 7.2776169,7.1427299 0 0 0 -0.0248,0.0797 7.2776169,7.1427299 0 0 0 -0.0239,0.0799 7.2776169,7.1427299 0 0 0 -0.0231,0.0802 7.2776169,7.1427299 0 0 0 -0.022,0.0808 7.2776169,7.1427299 0 0 0 -0.0209,0.0807 7.2776169,7.1427299 0 0 0 -0.0204,0.0808 7.2776169,7.1427299 0 0 0 -0.019,0.0813 7.2776169,7.1427299 0 0 0 -0.0182,0.0815 7.2776169,7.1427299 0 0 0 -0.0173,0.0816 7.2776169,7.1427299 0 0 0 -0.0162,0.0818 7.2776169,7.1427299 0 0 0 -0.0151,0.0821 7.2776169,7.1427299 0 0 0 -0.0143,0.0821 7.2776169,7.1427299 0 0 0 -0.0135,0.0823 7.2776169,7.1427299 0 0 0 -0.0124,0.0824 7.2776169,7.1427299 0 0 0 -0.0113,0.0826 7.2776169,7.1427299 0 0 0 -0.0105,0.0829 7.2776169,7.1427299 0 0 0 -0.009,0.0829 7.2776169,7.1427299 0 0 0 -0.008,0.0829 7.2776169,7.1427299 0 0 0 -0.007,0.0829 7.2776169,7.1427299 0 0 0 -0.007,0.0832 7.2776169,7.1427299 0 0 0 -0.006,0.0832 7.2776169,7.1427299 0 0 0 -0.004,0.0834 7.2776169,7.1427299 0 0 0 -0.003,0.0832 7.2776169,7.1427299 0 0 0 -0.002,0.0834 7.2776169,7.1427299 0 0 0 -0.002,0.0834 7.2776169,7.1427299 0 0 0 -5.6e-4,0.0832 7.2776169,7.1427299 0 0 0 2.8e-4,0.0487 7.2776169,7.1427299 0 0 0 10e-4,0.0834 7.2776169,7.1427299 0 0 0 0.002,0.0832 7.2776169,7.1427299 0 0 0 0.003,0.0834 7.2776169,7.1427299 0 0 0 0.004,0.0832 7.2776169,7.1427299 0 0 0 0.005,0.0834 7.2776169,7.1427299 0 0 0 0.006,0.0832 7.2776169,7.1427299 0 0 0 0.007,0.0829 7.2776169,7.1427299 0 0 0 0.008,0.0832 7.2776169,7.1427299 0 0 0 0.009,0.0829 7.2776169,7.1427299 0 0 0 0.01,0.0826 7.2776169,7.1427299 0 0 0 0.011,0.0826 7.2776169,7.1427299 0 0 0 0.0118,0.0826 7.2776169,7.1427299 0 0 0 0.0129,0.0824 7.2776169,7.1427299 0 0 0 0.0138,0.0824 7.2776169,7.1427299 0 0 0 0.0149,0.0821 7.2776169,7.1427299 0 0 0 0.016,0.0818 7.2776169,7.1427299 0 0 0 0.0168,0.0818 7.2776169,7.1427299 0 0 0 0.0179,0.0816 7.2776169,7.1427299 0 0 0 0.0187,0.0813 7.2776169,7.1427299 0 0 0 0.0198,0.081 7.2776169,7.1427299 0 0 0 0.0207,0.0808 7.2776169,7.1427299 0 0 0 0.0215,0.0807 7.2776169,7.1427299 0 0 0 0.0228,0.0802 7.2776169,7.1427299 0 0 0 0.0234,0.0802 7.2776169,7.1427299 0 0 0 0.0245,0.0797 7.2776169,7.1427299 0 0 0 0.0256,0.0797 7.2776169,7.1427299 0 0 0 0.0264,0.0791 7.2776169,7.1427299 0 0 0 0.0273,0.0789 7.2776169,7.1427299 0 0 0 0.0284,0.0786 7.2776169,7.1427299 0 0 0 0.0292,0.0784 7.2776169,7.1427299 0 0 0 0.03,0.0778 7.2776169,7.1427299 0 0 0 0.0311,0.0778 7.2776169,7.1427299 0 0 0 0.0319,0.077 7.2776169,7.1427299 0 0 0 0.033,0.077 7.2776169,7.1427299 0 0 0 0.0339,0.0765 7.2776169,7.1427299 0 0 0 0.0347,0.0759 7.2776169,7.1427299 0 0 0 0.0355,0.0757 7.2776169,7.1427299 0 0 0 0.0366,0.0754 7.2776169,7.1427299 0 0 0 0.0374,0.0749 7.2776169,7.1427299 0 0 0 0.0383,0.0743 7.2776169,7.1427299 0 0 0 0.0394,0.0741 7.2776169,7.1427299 0 0 0 0.0399,0.0735 7.2776169,7.1427299 0 0 0 0.041,0.073 7.2776169,7.1427299 0 0 0 0.0418,0.0725 7.2776169,7.1427299 0 0 0 0.0427,0.0722 7.2776169,7.1427299 0 0 0 0.0435,0.0714 7.2776169,7.1427299 0 0 0 0.0443,0.0711 7.2776169,7.1427299 0 0 0 0.0452,0.0706 7.2776169,7.1427299 0 0 0 0.0462,0.0701 7.2776169,7.1427299 0 0 0 0.0468,0.0695 7.2776169,7.1427299 0 0 0 0.0476,0.069 7.2776169,7.1427299 0 0 0 0.0485,0.0684 7.2776169,7.1427299 0 0 0 0.0495,0.0679 7.2776169,7.1427299 0 0 0 0.0501,0.0674 7.2776169,7.1427299 0 0 0 0.0509,0.0666 7.2776169,7.1427299 0 0 0 0.0515,0.0663 7.2776169,7.1427299 0 0 0 0.0526,0.0655 7.2776169,7.1427299 0 0 0 0.0534,0.0647 7.2776169,7.1427299 0 0 0 0.054,0.0644 7.2776169,7.1427299 0 0 0 0.0548,0.0636 7.2776169,7.1427299 0 0 0 0.0556,0.0631 7.2776169,7.1427299 0 0 0 0.0564,0.0623 7.2776169,7.1427299 0 0 0 0.057,0.0618 7.2776169,7.1427299 0 0 0 0.0578,0.0612 7.2776169,7.1427299 0 0 0 0.0584,0.0604 7.2776169,7.1427299 0 0 0 0.0592,0.0599 7.2776169,7.1427299 0 0 0 0.06,0.0591 7.2776169,7.1427299 0 0 0 0.0606,0.0583 7.2776169,7.1427299 0 0 0 0.0614,0.0578 7.2776169,7.1427299 0 0 0 0.0619,0.057 7.2776169,7.1427299 0 0 0 0.0628,0.0562 7.2776169,7.1427299 0 0 0 0.0633,0.0556 7.2776169,7.1427299 0 0 0 0.0639,0.0548 7.2776169,7.1427299 0 0 0 0.0647,0.0543 7.2776169,7.1427299 0 0 0 0.0652,0.0532 7.2776169,7.1427299 0 0 0 0.0661,0.0527 7.2776169,7.1427299 0 0 0 0.0663,0.0519 7.2776169,7.1427299 0 0 0 0.0672,0.0511 7.2776169,7.1427299 0 0 0 0.0677,0.0503 7.2776169,7.1427299 0 0 0 0.0683,0.0495 7.2776169,7.1427299 0 0 0 0.0691,0.0487 7.2776169,7.1427299 0 0 0 0.0694,0.0481 7.2776169,7.1427299 0 0 0 0.0702,0.0471 7.2776169,7.1427299 0 0 0 0.0705,0.0463 7.2776169,7.1427299 0 0 0 0.0713,0.0457 7.2776169,7.1427299 0 0 0 0.0716,0.0447 7.2776169,7.1427299 0 0 0 0.0724,0.0439 7.2776169,7.1427299 0 0 0 0.0727,0.043 7.2776169,7.1427299 0 0 0 0.0732,0.0422 7.2776169,7.1427299 0 0 0 0.0738,0.0414 7.2776169,7.1427299 0 0 0 0.0743,0.0404 7.2776169,7.1427299 0 0 0 0.0746,0.0398 7.2776169,7.1427299 0 0 0 0.0751,0.0388 7.2776169,7.1427299 0 0 0 0.0757,0.038 7.2776169,7.1427299 0 0 0 0.076,0.0369 7.2776169,7.1427299 0 0 0 0.0765,0.0364 7.2776169,7.1427299 0 0 0 0.0771,0.0353 7.2776169,7.1427299 0 0 0 0.0773,0.0345 7.2776169,7.1427299 0 0 0 0.0776,0.0334 7.2776169,7.1427299 0 0 0 0.0782,0.0326 7.2776169,7.1427299 0 0 0 0.0785,0.0318 7.2776169,7.1427299 0 0 0 0.079,0.031 7.2776169,7.1427299 0 0 0 0.0793,0.0299 7.2776169,7.1427299 0 0 0 0.0795,0.0289 7.2776169,7.1427299 0 0 0 0.0801,0.0284 7.2776169,7.1427299 0 0 0 0.0801,0.0273 7.2776169,7.1427299 0 0 0 0.0807,0.0262 7.2776169,7.1427299 0 0 0 0.0809,0.0254 7.2776169,7.1427299 0 0 0 0.0812,0.0243 7.2776169,7.1427299 0 0 0 0.0815,0.0235 7.2776169,7.1427299 0 0 0 0.0817,0.0227 7.2776169,7.1427299 0 0 0 0.082,0.0217 7.2776169,7.1427299 0 0 0 0.0823,0.0206 7.2776169,7.1427299 0 0 0 0.0826,0.0198 7.2776169,7.1427299 0 0 0 0.0829,0.0187 7.2776169,7.1427299 0 0 0 0.0829,0.0179 7.2776169,7.1427299 0 0 0 0.0831,0.0169 7.2776169,7.1427299 0 0 0 0.0834,0.016 7.2776169,7.1427299 0 0 0 0.0837,0.015 7.2776169,7.1427299 0 0 0 0.0837,0.0139 7.2776169,7.1427299 0 0 0 0.084,0.0131 7.2776169,7.1427299 0 0 0 0.084,0.0123 7.2776169,7.1427299 0 0 0 0.0842,0.011 7.2776169,7.1427299 0 0 0 0.0842,0.0104 7.2776169,7.1427299 0 0 0 0.0845,0.009 7.2776169,7.1427299 0 0 0 0.0845,0.008 7.2776169,7.1427299 0 0 0 0.0845,0.007 7.2776169,7.1427299 0 0 0 0.0848,0.006 7.2776169,7.1427299 0 0 0 0.0848,0.005 7.2776169,7.1427299 0 0 0 0.0848,0.004 7.2776169,7.1427299 0 0 0 0.0848,0.003 7.2776169,7.1427299 0 0 0 0.085,0.002 7.2776169,7.1427299 0 0 0 0.0848,10e-4 7.2776169,7.1427299 0 0 0 0.085,5.5e-4 7.2776169,7.1427299 0 0 0 0.0495,0 7.2776169,7.1427299 0 0 0 0.0848,-0.001 7.2776169,7.1427299 0 0 0 0.085,-0.002 7.2776169,7.1427299 0 0 0 0.0848,-0.003 7.2776169,7.1427299 0 0 0 0.0848,-0.004 7.2776169,7.1427299 0 0 0 0.0848,-0.005 7.2776169,7.1427299 0 0 0 0.0848,-0.006 7.2776169,7.1427299 0 0 0 0.0848,-0.007 7.2776169,7.1427299 0 0 0 0.0845,-0.008 7.2776169,7.1427299 0 0 0 0.0845,-0.009 7.2776169,7.1427299 0 0 0 0.0842,-0.01 7.2776169,7.1427299 0 0 0 0.0842,-0.0107 7.2776169,7.1427299 0 0 0 0.0842,-0.0118 7.2776169,7.1427299 0 0 0 0.084,-0.0128 7.2776169,7.1427299 0 0 0 0.0837,-0.0136 7.2776169,7.1427299 0 0 0 0.0837,-0.0144 7.2776169,7.1427299 0 0 0 0.0834,-0.0155 7.2776169,7.1427299 0 0 0 0.0834,-0.0166 7.2776169,7.1427299 0 0 0 0.0828,-0.0174 7.2776169,7.1427299 0 0 0 0.0829,-0.0184 7.2776169,7.1427299 0 0 0 0.0828,-0.0195 7.2776169,7.1427299 0 0 0 0.0823,-0.0203 7.2776169,7.1427299 0 0 0 0.082,-0.0211 7.2776169,7.1427299 0 0 0 0.082,-0.0222 7.2776169,7.1427299 0 0 0 0.0815,-0.0233 7.2776169,7.1427299 0 0 0 0.0815,-0.0241 7.2776169,7.1427299 0 0 0 0.0809,-0.0249 7.2776169,7.1427299 0 0 0 0.0806,-0.0259 7.2776169,7.1427299 0 0 0 0.0804,-0.0267 7.2776169,7.1427299 0 0 0 0.0801,-0.0278 7.2776169,7.1427299 0 0 0 0.0798,-0.0286 7.2776169,7.1427299 0 0 0 0.0795,-0.0297 7.2776169,7.1427299 0 0 0 0.079,-0.0305 7.2776169,7.1427299 0 0 0 0.0787,-0.0313 7.2776169,7.1427299 0 0 0 0.0782,-0.0323 7.2776169,7.1427299 0 0 0 0.0779,-0.0332 7.2776169,7.1427299 0 0 0 0.0776,-0.0342 7.2776169,7.1427299 0 0 0 0.0771,-0.035 7.2776169,7.1427299 0 0 0 0.0768,-0.0358 7.2776169,7.1427299 0 0 0 0.0763,-0.0366 7.2776169,7.1427299 0 0 0 0.0757,-0.0377 7.2776169,7.1427299 0 0 0 0.0754,-0.0382 7.2776169,7.1427299 0 0 0 0.0749,-0.0393 7.2776169,7.1427299 0 0 0 0.0746,-0.0404 7.2776169,7.1427299 0 0 0 0.0738,-0.0409 7.2776169,7.1427299 0 0 0 0.0735,-0.042 7.2776169,7.1427299 0 0 0 0.0729,-0.0425 7.2776169,7.1427299 0 0 0 0.0724,-0.0436 7.2776169,7.1427299 0 0 0 0.0718,-0.0444 7.2776169,7.1427299 0 0 0 0.0716,-0.0452 7.2776169,7.1427299 0 0 0 0.0707,-0.046 7.2776169,7.1427299 0 0 0 0.0702,-0.0468 7.2776169,7.1427299 0 0 0 0.0699,-0.0476 7.2776169,7.1427299 0 0 0 0.0691,-0.0484 7.2776169,7.1427299 0 0 0 0.0685,-0.0492 7.2776169,7.1427299 0 0 0 0.068,-0.05 7.2776169,7.1427299 0 0 0 0.0674,-0.0508 7.2776169,7.1427299 0 0 0 0.0669,-0.0516 7.2776169,7.1427299 0 0 0 0.054,-0.0425 7.2776169,7.1427299 0 0 0 1.41812,-4.23587 7.2776169,7.1427299 0 0 0 -7.27775,-7.14276 7.2776169,7.1427299 0 0 0 -4.5852,1.5961 z" />
        <g
           id="g1070"
           transform="matrix(0.5326511,0,0,0.51744869,-41.914401,15.875551)">
          <path
             id="ellipse1066"
             style="opacity:0.976645;fill:#000000;fill-opacity:0.992157;stroke:none;stroke-width:0.265735;stroke-linecap:square;stroke-linejoin:miter;stroke-miterlimit:4;stroke-dasharray:none;stroke-opacity:1;paint-order:markers fill stroke"
             d="m 132.37366,177.39749 a 4.0929742,3.8818707 0 0 1 -4.09297,3.88187 4.0929742,3.8818707 0 0 1 -4.09298,-3.88187 4.0929742,3.8818707 0 0 1 4.09298,-3.88187 4.0929742,3.8818707 0 0 1 4.09297,3.88187 z" />
          <path
             id="ellipse1068"
             style="opacity:0.976645;fill:#ffffff;fill-opacity:0.992157;stroke:none;stroke-width:0.127092;stroke-linecap:square;stroke-linejoin:miter;stroke-miterlimit:4;stroke-dasharray:none;stroke-opacity:1;paint-order:markers fill stroke"
             d="m 131.67,175.42719 a 2.052305,1.7708335 0 0 1 -2.05231,1.77083 2.052305,1.7708335 0 0 1 -2.0523,-1.77083 2.052305,1.7708335 0 0 1 2.0523,-1.77084 2.052305,1.7708335 0 0 1 2.05231,1.77084 z" />
        </g>
      </g>
      <g
         id="g1058"
         transform="matrix(0.26441187,0,0,0.22501545,91.808271,138.51677)">
        <path
           id="circle1045"
           style="opacity:0.976645;fill:#000000;fill-opacity:0.992157;stroke:none;stroke-width:1;stroke-linecap:square;stroke-linejoin:miter;stroke-miterlimit:4;stroke-dasharray:none;stroke-opacity:1;paint-order:markers fill stroke"
           d="m 140.67708,175.84941 a 15,15 0 0 1 -15,15 15,15 0 0 1 -15,-15 15,15 0 0 1 15,-15 15,15 0 0 1 15,15 z" />
        <path
           id="path1047"
           style="opacity:0.976645;fill:#cccccc;fill-opacity:0.992157;stroke:none;stroke-width:0;stroke-linecap:square;stroke-linejoin:miter;stroke-miterlimit:4;stroke-dasharray:none;stroke-opacity:1;paint-order:stroke fill markers"
           d="m 442.73047,624.38086 a 51.639721,52.171636 0 0 0 -19.10352,40.51367 51.639721,52.171636 0 0 0 51.63867,52.16992 51.639721,52.171636 0 0 0 41.57813,-21.23047 51.639721,52.171636 0 0 1 -0.38281,0.31055 51.639721,52.171636 0 0 1 -0.47461,0.37695 51.639721,52.171636 0 0 1 -0.47852,0.3711 51.639721,52.171636 0 0 1 -0.48242,0.36523 51.639721,52.171636 0 0 1 -0.48633,0.35938 51.639721,52.171636 0 0 1 -0.49023,0.35351 51.639721,52.171636 0 0 1 -0.4961,0.34766 51.639721,52.171636 0 0 1 -0.49804,0.3418 51.639721,52.171636 0 0 1 -0.50196,0.33593 51.639721,52.171636 0 0 1 -0.50781,0.33008 51.639721,52.171636 0 0 1 -0.50976,0.32422 51.639721,52.171636 0 0 1 -0.51368,0.31836 51.639721,52.171636 0 0 1 -0.51757,0.31055 51.639721,52.171636 0 0 1 -0.52149,0.30664 51.639721,52.171636 0 0 1 -0.52344,0.29883 51.639721,52.171636 0 0 1 -0.52929,0.29492 51.639721,52.171636 0 0 1 -0.53125,0.28711 51.639721,52.171636 0 0 1 -0.53516,0.27929 51.639721,52.171636 0 0 1 -0.53711,0.27539 51.639721,52.171636 0 0 1 -0.54101,0.26758 51.639721,52.171636 0 0 1 -0.54493,0.26172 51.639721,52.171636 0 0 1 -0.54687,0.25586 51.639721,52.171636 0 0 1 -0.55078,0.25 51.639721,52.171636 0 0 1 -0.55274,0.24219 51.639721,52.171636 0 0 1 -0.55468,0.23633 51.639721,52.171636 0 0 1 -0.5586,0.22851 51.639721,52.171636 0 0 1 -0.56054,0.22266 51.639721,52.171636 0 0 1 -0.56446,0.21679 51.639721,52.171636 0 0 1 -0.5664,0.20899 51.639721,52.171636 0 0 1 -0.56836,0.20312 51.639721,52.171636 0 0 1 -0.57032,0.19532 51.639721,52.171636 0 0 1 -0.57226,0.18945 51.639721,52.171636 0 0 1 -0.57422,0.18164 51.639721,52.171636 0 0 1 -0.57812,0.17578 51.639721,52.171636 0 0 1 -0.57813,0.16992 51.639721,52.171636 0 0 1 -0.58203,0.16211 51.639721,52.171636 0 0 1 -0.58203,0.1543 51.639721,52.171636 0 0 1 -0.58399,0.14844 51.639721,52.171636 0 0 1 -0.58789,0.14258 51.639721,52.171636 0 0 1 -0.58789,0.13476 51.639721,52.171636 0 0 1 -0.58789,0.12695 51.639721,52.171636 0 0 1 -0.5918,0.1211 51.639721,52.171636 0 0 1 -0.59179,0.11328 51.639721,52.171636 0 0 1 -0.59375,0.10547 51.639721,52.171636 0 0 1 -0.59375,0.0996 51.639721,52.171636 0 0 1 -0.59571,0.0937 51.639721,52.171636 0 0 1 -0.59765,0.0859 51.639721,52.171636 0 0 1 -0.59766,0.0781 51.639721,52.171636 0 0 1 -0.59765,0.0703 51.639721,52.171636 0 0 1 -0.59961,0.0645 51.639721,52.171636 0 0 1 -0.59961,0.0586 51.639721,52.171636 0 0 1 -0.60157,0.0508 51.639721,52.171636 0 0 1 -0.60156,0.043 51.639721,52.171636 0 0 1 -0.60156,0.0352 51.639721,52.171636 0 0 1 -0.60156,0.0293 51.639721,52.171636 0 0 1 -0.60157,0.0215 51.639721,52.171636 0 0 1 -0.60351,0.0156 51.639721,52.171636 0 0 1 -0.60156,0.008 51.639721,52.171636 0 0 1 -0.35157,0 51.639721,52.171636 0 0 1 -0.60351,-0.004 51.639721,52.171636 0 0 1 -0.60156,-0.01 51.639721,52.171636 0 0 1 -0.60352,-0.0176 51.639721,52.171636 0 0 1 -0.60156,-0.0254 51.639721,52.171636 0 0 1 -0.60156,-0.0312 51.639721,52.171636 0 0 1 -0.60157,-0.0391 51.639721,52.171636 0 0 1 -0.60156,-0.0469 51.639721,52.171636 0 0 1 -0.59961,-0.0527 51.639721,52.171636 0 0 1 -0.59961,-0.0606 51.639721,52.171636 0 0 1 -0.59961,-0.0664 51.639721,52.171636 0 0 1 -0.59765,-0.0762 51.639721,52.171636 0 0 1 -0.59766,-0.0801 51.639721,52.171636 0 0 1 -0.5957,-0.0898 51.639721,52.171636 0 0 1 -0.59571,-0.0957 51.639721,52.171636 0 0 1 -0.59375,-0.10156 51.639721,52.171636 0 0 1 -0.59375,-0.10938 51.639721,52.171636 0 0 1 -0.59179,-0.11718 51.639721,52.171636 0 0 1 -0.58985,-0.12305 51.639721,52.171636 0 0 1 -0.58789,-0.13086 51.639721,52.171636 0 0 1 -0.58789,-0.13672 51.639721,52.171636 0 0 1 -0.58594,-0.14453 51.639721,52.171636 0 0 1 -0.58398,-0.15039 51.639721,52.171636 0 0 1 -0.58203,-0.1582 51.639721,52.171636 0 0 1 -0.58008,-0.16602 51.639721,52.171636 0 0 1 -0.57813,-0.17187 51.639721,52.171636 0 0 1 -0.57617,-0.17774 51.639721,52.171636 0 0 1 -0.57422,-0.18554 51.639721,52.171636 0 0 1 -0.57226,-0.19141 51.639721,52.171636 0 0 1 -0.56836,-0.19922 51.639721,52.171636 0 0 1 -0.56836,-0.20703 51.639721,52.171636 0 0 1 -0.56445,-0.21094 51.639721,52.171636 0 0 1 -0.5625,-0.21875 51.639721,52.171636 0 0 1 -0.56055,-0.22656 51.639721,52.171636 0 0 1 -0.55664,-0.23242 51.639721,52.171636 0 0 1 -0.55469,-0.23828 51.639721,52.171636 0 0 1 -0.55078,-0.24415 51.639721,52.171636 0 0 1 -0.54883,-0.25195 51.639721,52.171636 0 0 1 -0.54687,-0.25781 51.639721,52.171636 0 0 1 -0.54297,-0.26563 51.639721,52.171636 0 0 1 -0.53906,-0.26953 51.639721,52.171636 0 0 1 -0.53711,-0.27734 51.639721,52.171636 0 0 1 -0.53321,-0.2832 51.639721,52.171636 0 0 1 -0.52929,-0.29102 51.639721,52.171636 0 0 1 -0.52735,-0.29492 51.639721,52.171636 0 0 1 -0.52343,-0.30274 51.639721,52.171636 0 0 1 -0.51954,-0.30859 51.639721,52.171636 0 0 1 -0.51562,-0.31445 51.639721,52.171636 0 0 1 -0.51367,-0.32032 51.639721,52.171636 0 0 1 -0.50781,-0.32617 51.639721,52.171636 0 0 1 -0.50586,-0.33398 51.639721,52.171636 0 0 1 -0.5,-0.33789 51.639721,52.171636 0 0 1 -0.49805,-0.34375 51.639721,52.171636 0 0 1 -0.49219,-0.35156 51.639721,52.171636 0 0 1 -0.49023,-0.35547 51.639721,52.171636 0 0 1 -0.48438,-0.36133 51.639721,52.171636 0 0 1 -0.48047,-0.36719 51.639721,52.171636 0 0 1 -0.47656,-0.37305 51.639721,52.171636 0 0 1 -0.4707,-0.3789 51.639721,52.171636 0 0 1 -0.46875,-0.38477 51.639721,52.171636 0 0 1 -0.46289,-0.38867 51.639721,52.171636 0 0 1 -0.45899,-0.39648 51.639721,52.171636 0 0 1 -0.45312,-0.40039 51.639721,52.171636 0 0 1 -0.44922,-0.40625 51.639721,52.171636 0 0 1 -0.44531,-0.41016 51.639721,52.171636 0 0 1 -0.43946,-0.41602 51.639721,52.171636 0 0 1 -0.43554,-0.42187 51.639721,52.171636 0 0 1 -0.42969,-0.42578 51.639721,52.171636 0 0 1 -0.42578,-0.43164 51.639721,52.171636 0 0 1 -0.41992,-0.4375 51.639721,52.171636 0 0 1 -0.41407,-0.44141 51.639721,52.171636 0 0 1 -0.41015,-0.44727 51.639721,52.171636 0 0 1 -0.4043,-0.45117 51.639721,52.171636 0 0 1 -0.40039,-0.45507 51.639721,52.171636 0 0 1 -0.39453,-0.46094 51.639721,52.171636 0 0 1 -0.38867,-0.46485 51.639721,52.171636 0 0 1 -0.38282,-0.4707 51.639721,52.171636 0 0 1 -0.3789,-0.47266 51.639721,52.171636 0 0 1 -0.37305,-0.47851 51.639721,52.171636 0 0 1 -0.36523,-0.48438 51.639721,52.171636 0 0 1 -0.36133,-0.48632 51.639721,52.171636 0 0 1 -0.35547,-0.49219 51.639721,52.171636 0 0 1 -0.35156,-0.4961 51.639721,52.171636 0 0 1 -0.34375,-0.5 51.639721,52.171636 0 0 1 -0.33789,-0.5039 51.639721,52.171636 0 0 1 -0.33204,-0.50781 51.639721,52.171636 0 0 1 -0.32812,-0.51172 51.639721,52.171636 0 0 1 -0.32031,-0.51563 51.639721,52.171636 0 0 1 -0.31446,-0.51953 51.639721,52.171636 0 0 1 -0.30859,-0.52148 51.639721,52.171636 0 0 1 -0.30273,-0.52735 51.639721,52.171636 0 0 1 -0.29688,-0.52929 51.639721,52.171636 0 0 1 -0.29101,-0.53321 51.639721,52.171636 0 0 1 -0.28321,-0.53711 51.639721,52.171636 0 0 1 -0.27929,-0.54101 51.639721,52.171636 0 0 1 -0.27149,-0.54297 51.639721,52.171636 0 0 1 -0.26562,-0.54688 51.639721,52.171636 0 0 1 -0.25977,-0.55078 51.639721,52.171636 0 0 1 -0.25195,-0.55273 51.639721,52.171636 0 0 1 -0.2461,-0.55469 51.639721,52.171636 0 0 1 -0.24023,-0.55859 51.639721,52.171636 0 0 1 -0.23438,-0.5625 51.639721,52.171636 0 0 1 -0.22656,-0.5625 51.639721,52.171636 0 0 1 -0.2207,-0.56836 51.639721,52.171636 0 0 1 -0.21289,-0.56836 51.639721,52.171636 0 0 1 -0.20703,-0.57227 51.639721,52.171636 0 0 1 -0.20118,-0.57422 51.639721,52.171636 0 0 1 -0.19335,-0.57617 51.639721,52.171636 0 0 1 -0.1875,-0.57812 51.639721,52.171636 0 0 1 -0.18165,-0.58203 51.639721,52.171636 0 0 1 -0.17382,-0.58204 51.639721,52.171636 0 0 1 -0.16602,-0.58593 51.639721,52.171636 0 0 1 -0.16211,-0.58594 51.639721,52.171636 0 0 1 -0.15234,-0.58984 51.639721,52.171636 0 0 1 -0.14649,-0.58985 51.639721,52.171636 0 0 1 -0.14062,-0.5918 51.639721,52.171636 0 0 1 -0.13281,-0.59374 51.639721,52.171636 0 0 1 -0.12696,-0.59571 51.639721,52.171636 0 0 1 -0.11914,-0.59765 51.639721,52.171636 0 0 1 -0.11328,-0.59766 51.639721,52.171636 0 0 1 -0.10547,-0.59961 51.639721,52.171636 0 0 1 -0.0976,-0.60156 51.639721,52.171636 0 0 1 -0.0918,-0.60157 51.639721,52.171636 0 0 1 -0.084,-0.60351 51.639721,52.171636 0 0 1 -0.0781,-0.60352 51.639721,52.171636 0 0 1 -0.0703,-0.60351 51.639721,52.171636 0 0 1 -0.0645,-0.60547 51.639721,52.171636 0 0 1 -0.0566,-0.60742 51.639721,52.171636 0 0 1 -0.0508,-0.60547 51.639721,52.171636 0 0 1 -0.043,-0.60742 51.639721,52.171636 0 0 1 -0.0351,-0.60938 51.639721,52.171636 0 0 1 -0.0293,-0.60742 51.639721,52.171636 0 0 1 -0.0215,-0.60938 51.639721,52.171636 0 0 1 -0.0137,-0.60742 51.639721,52.171636 0 0 1 -0.008,-0.60937 51.639721,52.171636 0 0 1 -0.002,-0.35547 51.639721,52.171636 0 0 1 0.004,-0.60742 51.639721,52.171636 0 0 1 0.0117,-0.60938 51.639721,52.171636 0 0 1 0.0176,-0.60937 51.639721,52.171636 0 0 1 0.0234,-0.60742 51.639721,52.171636 0 0 1 0.0312,-0.60938 51.639721,52.171636 0 0 1 0.0391,-0.60742 51.639721,52.171636 0 0 1 0.0469,-0.60742 51.639721,52.171636 0 0 1 0.0527,-0.60547 51.639721,52.171636 0 0 1 0.0586,-0.60547 51.639721,52.171636 0 0 1 0.0664,-0.60547 51.639721,52.171636 0 0 1 0.0742,-0.60547 51.639721,52.171636 0 0 1 0.0801,-0.60351 51.639721,52.171636 0 0 1 0.0879,-0.60157 51.639721,52.171636 0 0 1 0.0957,-0.60156 51.639721,52.171636 0 0 1 0.10156,-0.59961 51.639721,52.171636 0 0 1 0.10743,-0.59961 51.639721,52.171636 0 0 1 0.11523,-0.59765 51.639721,52.171636 0 0 1 0.12305,-0.59571 51.639721,52.171636 0 0 1 0.1289,-0.5957 51.639721,52.171636 0 0 1 0.13477,-0.59375 51.639721,52.171636 0 0 1 0.14453,-0.58984 51.639721,52.171636 0 0 1 0.14844,-0.58985 51.639721,52.171636 0 0 1 0.15625,-0.58984 51.639721,52.171636 0 0 1 0.16406,-0.58594 51.639721,52.171636 0 0 1 0.16992,-0.58398 51.639721,52.171636 0 0 1 0.17578,-0.58203 51.639721,52.171636 0 0 1 0.1836,-0.58008 51.639721,52.171636 0 0 1 0.1914,-0.57813 51.639721,52.171636 0 0 1 0.19727,-0.57422 51.639721,52.171636 0 0 1 0.20312,-0.57421 51.639721,52.171636 0 0 1 0.20899,-0.57032 51.639721,52.171636 0 0 1 0.2168,-0.56836 51.639721,52.171636 0 0 1 0.22265,-0.5664 51.639721,52.171636 0 0 1 0.23047,-0.5625 51.639721,52.171636 0 0 1 0.23633,-0.56055 51.639721,52.171636 0 0 1 0.24219,-0.55664 51.639721,52.171636 0 0 1 0.25,-0.55469 51.639721,52.171636 0 0 1 0.25586,-0.55078 51.639721,52.171636 0 0 1 0.26171,-0.54883 51.639721,52.171636 0 0 1 0.26758,-0.54492 51.639721,52.171636 0 0 1 0.27344,-0.54297 51.639721,52.171636 0 0 1 0.28125,-0.53906 51.639721,52.171636 0 0 1 0.28711,-0.53516 51.639721,52.171636 0 0 1 0.29297,-0.53125 51.639721,52.171636 0 0 1 0.29883,-0.52929 51.639721,52.171636 0 0 1 0.30468,-0.52539 51.639721,52.171636 0 0 1 0.3125,-0.52149 51.639721,52.171636 0 0 1 0.31641,-0.51758 51.639721,52.171636 0 0 1 0.32422,-0.51367 51.639721,52.171636 0 0 1 0.32812,-0.50976 51.639721,52.171636 0 0 1 0.33594,-0.50586 51.639721,52.171636 0 0 1 0.33984,-0.50391 51.639721,52.171636 0 0 1 0.34766,-0.49805 51.639721,52.171636 0 0 1 0.35156,-0.49414 51.639721,52.171636 0 0 1 0.14063,-0.18945 z"
           transform="scale(0.26458333)" />
        <path
           id="path1049"
           style="opacity:0.976645;fill:#ffffff;fill-opacity:0.992157;stroke:none;stroke-width:3.46033;stroke-linecap:square;stroke-linejoin:miter;stroke-miterlimit:4;stroke-dasharray:none;stroke-opacity:1;paint-order:markers fill stroke"
           d="m 442.73047,624.38086 a 51.639721,52.171636 0 0 0 -0.14063,0.18945 51.639721,52.171636 0 0 0 -0.35156,0.49414 51.639721,52.171636 0 0 0 -0.34766,0.49805 51.639721,52.171636 0 0 0 -0.33984,0.50391 51.639721,52.171636 0 0 0 -0.33594,0.50586 51.639721,52.171636 0 0 0 -0.32812,0.50976 51.639721,52.171636 0 0 0 -0.32422,0.51367 51.639721,52.171636 0 0 0 -0.31641,0.51758 51.639721,52.171636 0 0 0 -0.3125,0.52149 51.639721,52.171636 0 0 0 -0.30468,0.52539 51.639721,52.171636 0 0 0 -0.29883,0.52929 51.639721,52.171636 0 0 0 -0.29297,0.53125 51.639721,52.171636 0 0 0 -0.28711,0.53516 51.639721,52.171636 0 0 0 -0.28125,0.53906 51.639721,52.171636 0 0 0 -0.27344,0.54297 51.639721,52.171636 0 0 0 -0.26758,0.54492 51.639721,52.171636 0 0 0 -0.26171,0.54883 51.639721,52.171636 0 0 0 -0.25586,0.55078 51.639721,52.171636 0 0 0 -0.25,0.55469 51.639721,52.171636 0 0 0 -0.24219,0.55664 51.639721,52.171636 0 0 0 -0.23633,0.56055 51.639721,52.171636 0 0 0 -0.23047,0.5625 51.639721,52.171636 0 0 0 -0.22265,0.5664 51.639721,52.171636 0 0 0 -0.2168,0.56836 51.639721,52.171636 0 0 0 -0.20899,0.57032 51.639721,52.171636 0 0 0 -0.20312,0.57421 51.639721,52.171636 0 0 0 -0.19727,0.57422 51.639721,52.171636 0 0 0 -0.1914,0.57813 51.639721,52.171636 0 0 0 -0.1836,0.58008 51.639721,52.171636 0 0 0 -0.17578,0.58203 51.639721,52.171636 0 0 0 -0.16992,0.58398 51.639721,52.171636 0 0 0 -0.16406,0.58594 51.639721,52.171636 0 0 0 -0.15625,0.58984 51.639721,52.171636 0 0 0 -0.14844,0.58985 51.639721,52.171636 0 0 0 -0.14453,0.58984 51.639721,52.171636 0 0 0 -0.13477,0.59375 51.639721,52.171636 0 0 0 -0.1289,0.5957 51.639721,52.171636 0 0 0 -0.12305,0.59571 51.639721,52.171636 0 0 0 -0.11523,0.59765 51.639721,52.171636 0 0 0 -0.10743,0.59961 51.639721,52.171636 0 0 0 -0.10156,0.59961 51.639721,52.171636 0 0 0 -0.0957,0.60156 51.639721,52.171636 0 0 0 -0.0879,0.60157 51.639721,52.171636 0 0 0 -0.0801,0.60351 51.639721,52.171636 0 0 0 -0.0742,0.60547 51.639721,52.171636 0 0 0 -0.0664,0.60547 51.639721,52.171636 0 0 0 -0.0586,0.60547 51.639721,52.171636 0 0 0 -0.0527,0.60547 51.639721,52.171636 0 0 0 -0.0469,0.60742 51.639721,52.171636 0 0 0 -0.0391,0.60742 51.639721,52.171636 0 0 0 -0.0312,0.60938 51.639721,52.171636 0 0 0 -0.0234,0.60742 51.639721,52.171636 0 0 0 -0.0176,0.60937 51.639721,52.171636 0 0 0 -0.0117,0.60938 51.639721,52.171636 0 0 0 -0.004,0.60742 51.639721,52.171636 0 0 0 0.002,0.35547 51.639721,52.171636 0 0 0 0.008,0.60937 51.639721,52.171636 0 0 0 0.0137,0.60742 51.639721,52.171636 0 0 0 0.0215,0.60938 51.639721,52.171636 0 0 0 0.0293,0.60742 51.639721,52.171636 0 0 0 0.0351,0.60938 51.639721,52.171636 0 0 0 0.043,0.60742 51.639721,52.171636 0 0 0 0.0508,0.60547 51.639721,52.171636 0 0 0 0.0566,0.60742 51.639721,52.171636 0 0 0 0.0645,0.60547 51.639721,52.171636 0 0 0 0.0703,0.60351 51.639721,52.171636 0 0 0 0.0781,0.60352 51.639721,52.171636 0 0 0 0.084,0.60351 51.639721,52.171636 0 0 0 0.0918,0.60157 51.639721,52.171636 0 0 0 0.0976,0.60156 51.639721,52.171636 0 0 0 0.10547,0.59961 51.639721,52.171636 0 0 0 0.11328,0.59766 51.639721,52.171636 0 0 0 0.11914,0.59765 51.639721,52.171636 0 0 0 0.12696,0.59571 51.639721,52.171636 0 0 0 0.13281,0.59374 51.639721,52.171636 0 0 0 0.14062,0.5918 51.639721,52.171636 0 0 0 0.14649,0.58985 51.639721,52.171636 0 0 0 0.15234,0.58984 51.639721,52.171636 0 0 0 0.16211,0.58594 51.639721,52.171636 0 0 0 0.16602,0.58593 51.639721,52.171636 0 0 0 0.17382,0.58204 51.639721,52.171636 0 0 0 0.18165,0.58203 51.639721,52.171636 0 0 0 0.1875,0.57812 51.639721,52.171636 0 0 0 0.19335,0.57617 51.639721,52.171636 0 0 0 0.20118,0.57422 51.639721,52.171636 0 0 0 0.20703,0.57227 51.639721,52.171636 0 0 0 0.21289,0.56836 51.639721,52.171636 0 0 0 0.2207,0.56836 51.639721,52.171636 0 0 0 0.22656,0.5625 51.639721,52.171636 0 0 0 0.23438,0.5625 51.639721,52.171636 0 0 0 0.24023,0.55859 51.639721,52.171636 0 0 0 0.2461,0.55469 51.639721,52.171636 0 0 0 0.25195,0.55273 51.639721,52.171636 0 0 0 0.25977,0.55078 51.639721,52.171636 0 0 0 0.26562,0.54688 51.639721,52.171636 0 0 0 0.27149,0.54297 51.639721,52.171636 0 0 0 0.27929,0.54101 51.639721,52.171636 0 0 0 0.28321,0.53711 51.639721,52.171636 0 0 0 0.29101,0.53321 51.639721,52.171636 0 0 0 0.29688,0.52929 51.639721,52.171636 0 0 0 0.30273,0.52735 51.639721,52.171636 0 0 0 0.30859,0.52148 51.639721,52.171636 0 0 0 0.31446,0.51953 51.639721,52.171636 0 0 0 0.32031,0.51563 51.639721,52.171636 0 0 0 0.32812,0.51172 51.639721,52.171636 0 0 0 0.33204,0.50781 51.639721,52.171636 0 0 0 0.33789,0.5039 51.639721,52.171636 0 0 0 0.34375,0.5 51.639721,52.171636 0 0 0 0.35156,0.4961 51.639721,52.171636 0 0 0 0.35547,0.49219 51.639721,52.171636 0 0 0 0.36133,0.48632 51.639721,52.171636 0 0 0 0.36523,0.48438 51.639721,52.171636 0 0 0 0.37305,0.47851 51.639721,52.171636 0 0 0 0.3789,0.47266 51.639721,52.171636 0 0 0 0.38282,0.4707 51.639721,52.171636 0 0 0 0.38867,0.46485 51.639721,52.171636 0 0 0 0.39453,0.46094 51.639721,52.171636 0 0 0 0.40039,0.45507 51.639721,52.171636 0 0 0 0.4043,0.45117 51.639721,52.171636 0 0 0 0.41015,0.44727 51.639721,52.171636 0 0 0 0.41407,0.44141 51.639721,52.171636 0 0 0 0.41992,0.4375 51.639721,52.171636 0 0 0 0.42578,0.43164 51.639721,52.171636 0 0 0 0.42969,0.42578 51.639721,52.171636 0 0 0 0.43554,0.42187 51.639721,52.171636 0 0 0 0.43946,0.41602 51.639721,52.171636 0 0 0 0.44531,0.41016 51.639721,52.171636 0 0 0 0.44922,0.40625 51.639721,52.171636 0 0 0 0.45312,0.40039 51.639721,52.171636 0 0 0 0.45899,0.39648 51.639721,52.171636 0 0 0 0.46289,0.38867 51.639721,52.171636 0 0 0 0.46875,0.38477 51.639721,52.171636 0 0 0 0.4707,0.3789 51.639721,52.171636 0 0 0 0.47656,0.37305 51.639721,52.171636 0 0 0 0.48047,0.36719 51.639721,52.171636 0 0 0 0.48438,0.36133 51.639721,52.171636 0 0 0 0.49023,0.35547 51.639721,52.171636 0 0 0 0.49219,0.35156 51.639721,52.171636 0 0 0 0.49805,0.34375 51.639721,52.171636 0 0 0 0.5,0.33789 51.639721,52.171636 0 0 0 0.50586,0.33398 51.639721,52.171636 0 0 0 0.50781,0.32617 51.639721,52.171636 0 0 0 0.51367,0.32032 51.639721,52.171636 0 0 0 0.51562,0.31445 51.639721,52.171636 0 0 0 0.51954,0.30859 51.639721,52.171636 0 0 0 0.52343,0.30274 51.639721,52.171636 0 0 0 0.52735,0.29492 51.639721,52.171636 0 0 0 0.52929,0.29102 51.639721,52.171636 0 0 0 0.53321,0.2832 51.639721,52.171636 0 0 0 0.53711,0.27734 51.639721,52.171636 0 0 0 0.53906,0.26953 51.639721,52.171636 0 0 0 0.54297,0.26563 51.639721,52.171636 0 0 0 0.54687,0.25781 51.639721,52.171636 0 0 0 0.54883,0.25195 51.639721,52.171636 0 0 0 0.55078,0.24415 51.639721,52.171636 0 0 0 0.55469,0.23828 51.639721,52.171636 0 0 0 0.55664,0.23242 51.639721,52.171636 0 0 0 0.56055,0.22656 51.639721,52.171636 0 0 0 0.5625,0.21875 51.639721,52.171636 0 0 0 0.56445,0.21094 51.639721,52.171636 0 0 0 0.56836,0.20703 51.639721,52.171636 0 0 0 0.56836,0.19922 51.639721,52.171636 0 0 0 0.57226,0.19141 51.639721,52.171636 0 0 0 0.57422,0.18554 51.639721,52.171636 0 0 0 0.57617,0.17774 51.639721,52.171636 0 0 0 0.57813,0.17187 51.639721,52.171636 0 0 0 0.58008,0.16602 51.639721,52.171636 0 0 0 0.58203,0.1582 51.639721,52.171636 0 0 0 0.58398,0.15039 51.639721,52.171636 0 0 0 0.58594,0.14453 51.639721,52.171636 0 0 0 0.58789,0.13672 51.639721,52.171636 0 0 0 0.58789,0.13086 51.639721,52.171636 0 0 0 0.58985,0.12305 51.639721,52.171636 0 0 0 0.59179,0.11718 51.639721,52.171636 0 0 0 0.59375,0.10938 51.639721,52.171636 0 0 0 0.59375,0.10156 51.639721,52.171636 0 0 0 0.59571,0.0957 51.639721,52.171636 0 0 0 0.5957,0.0898 51.639721,52.171636 0 0 0 0.59766,0.0801 51.639721,52.171636 0 0 0 0.59765,0.0762 51.639721,52.171636 0 0 0 0.59961,0.0664 51.639721,52.171636 0 0 0 0.59961,0.0606 51.639721,52.171636 0 0 0 0.59961,0.0527 51.639721,52.171636 0 0 0 0.60156,0.0469 51.639721,52.171636 0 0 0 0.60157,0.0391 51.639721,52.171636 0 0 0 0.60156,0.0312 51.639721,52.171636 0 0 0 0.60156,0.0254 51.639721,52.171636 0 0 0 0.60352,0.0176 51.639721,52.171636 0 0 0 0.60156,0.01 51.639721,52.171636 0 0 0 0.60351,0.004 51.639721,52.171636 0 0 0 0.35157,0 51.639721,52.171636 0 0 0 0.60156,-0.008 51.639721,52.171636 0 0 0 0.60351,-0.0156 51.639721,52.171636 0 0 0 0.60157,-0.0215 51.639721,52.171636 0 0 0 0.60156,-0.0293 51.639721,52.171636 0 0 0 0.60156,-0.0352 51.639721,52.171636 0 0 0 0.60156,-0.043 51.639721,52.171636 0 0 0 0.60157,-0.0508 51.639721,52.171636 0 0 0 0.59961,-0.0586 51.639721,52.171636 0 0 0 0.59961,-0.0645 51.639721,52.171636 0 0 0 0.59765,-0.0703 51.639721,52.171636 0 0 0 0.59766,-0.0781 51.639721,52.171636 0 0 0 0.59765,-0.0859 51.639721,52.171636 0 0 0 0.59571,-0.0937 51.639721,52.171636 0 0 0 0.59375,-0.0996 51.639721,52.171636 0 0 0 0.59375,-0.10547 51.639721,52.171636 0 0 0 0.59179,-0.11328 51.639721,52.171636 0 0 0 0.5918,-0.1211 51.639721,52.171636 0 0 0 0.58789,-0.12695 51.639721,52.171636 0 0 0 0.58789,-0.13476 51.639721,52.171636 0 0 0 0.58789,-0.14258 51.639721,52.171636 0 0 0 0.58399,-0.14844 51.639721,52.171636 0 0 0 0.58203,-0.1543 51.639721,52.171636 0 0 0 0.58203,-0.16211 51.639721,52.171636 0 0 0 0.57813,-0.16992 51.639721,52.171636 0 0 0 0.57812,-0.17578 51.639721,52.171636 0 0 0 0.57422,-0.18164 51.639721,52.171636 0 0 0 0.57226,-0.18945 51.639721,52.171636 0 0 0 0.57032,-0.19532 51.639721,52.171636 0 0 0 0.56836,-0.20312 51.639721,52.171636 0 0 0 0.5664,-0.20899 51.639721,52.171636 0 0 0 0.56446,-0.21679 51.639721,52.171636 0 0 0 0.56054,-0.22266 51.639721,52.171636 0 0 0 0.5586,-0.22851 51.639721,52.171636 0 0 0 0.55468,-0.23633 51.639721,52.171636 0 0 0 0.55274,-0.24219 51.639721,52.171636 0 0 0 0.55078,-0.25 51.639721,52.171636 0 0 0 0.54687,-0.25586 51.639721,52.171636 0 0 0 0.54493,-0.26172 51.639721,52.171636 0 0 0 0.54101,-0.26758 51.639721,52.171636 0 0 0 0.53711,-0.27539 51.639721,52.171636 0 0 0 0.53516,-0.27929 51.639721,52.171636 0 0 0 0.53125,-0.28711 51.639721,52.171636 0 0 0 0.52929,-0.29492 51.639721,52.171636 0 0 0 0.52344,-0.29883 51.639721,52.171636 0 0 0 0.52149,-0.30664 51.639721,52.171636 0 0 0 0.51757,-0.31055 51.639721,52.171636 0 0 0 0.51368,-0.31836 51.639721,52.171636 0 0 0 0.50976,-0.32422 51.639721,52.171636 0 0 0 0.50781,-0.33008 51.639721,52.171636 0 0 0 0.50196,-0.33593 51.639721,52.171636 0 0 0 0.49804,-0.3418 51.639721,52.171636 0 0 0 0.4961,-0.34766 51.639721,52.171636 0 0 0 0.49023,-0.35351 51.639721,52.171636 0 0 0 0.48633,-0.35938 51.639721,52.171636 0 0 0 0.48242,-0.36523 51.639721,52.171636 0 0 0 0.47852,-0.3711 51.639721,52.171636 0 0 0 0.47461,-0.37695 51.639721,52.171636 0 0 0 0.38281,-0.31055 51.639721,52.171636 0 0 0 10.0625,-30.93945 51.639721,52.171636 0 0 0 -51.64063,-52.17187 51.639721,52.171636 0 0 0 -32.53515,11.6582 z"
           transform="scale(0.26458333)" />
        <g
           id="g1055"
           transform="translate(2.5332447,1.2666223)">
          <path
             id="ellipse1051"
             style="opacity:0.976645;fill:#000000;fill-opacity:0.992157;stroke:none;stroke-width:0.265735;stroke-linecap:square;stroke-linejoin:miter;stroke-miterlimit:4;stroke-dasharray:none;stroke-opacity:1;paint-order:markers fill stroke"
             d="m 132.37366,177.39749 a 4.0929742,3.8818707 0 0 1 -4.09297,3.88187 4.0929742,3.8818707 0 0 1 -4.09298,-3.88187 4.0929742,3.8818707 0 0 1 4.09298,-3.88187 4.0929742,3.8818707 0 0 1 4.09297,3.88187 z" />
          <path
             id="ellipse1053"
             style="opacity:0.976645;fill:#ffffff;fill-opacity:0.992157;stroke:none;stroke-width:0.127092;stroke-linecap:square;stroke-linejoin:miter;stroke-miterlimit:4;stroke-dasharray:none;stroke-opacity:1;paint-order:markers fill stroke"
             d="m 131.67,175.42719 a 2.052305,1.7708335 0 0 1 -2.05231,1.77083 2.052305,1.7708335 0 0 1 -2.0523,-1.77083 2.052305,1.7708335 0 0 1 2.0523,-1.77084 2.052305,1.7708335 0 0 1 2.05231,1.77084 z" />
        </g>
      </g>
      <g
         id="g1115"
         transform="matrix(-0.34828055,-0.00809436,0.00654813,-0.35011296,212.76695,315.60105)">
        <path
           style="fill:#000000;fill-opacity:0.992157;stroke:none;stroke-width:0.529167;stroke-linecap:butt;stroke-linejoin:miter;stroke-miterlimit:4;stroke-dasharray:none;stroke-opacity:1"
           d="m 259.33317,358.20365 c 7.79531,2.25845 15.29873,2.50589 22.72258,-0.64064 -3.48888,5.34653 -2.45107,9.76849 -0.41821,13.98721 -5.98784,2.69687 -14.31079,2.08204 -22.02556,-0.42709 2.70215,-3.59288 1.40788,-8.20609 -0.27881,-12.91948 z"
           id="path1095"
           sodipodi:nodetypes="ccccc" />
        <path
           style="fill:#ffffff;fill-opacity:0.992157;stroke:none;stroke-width:0.468589;stroke-linecap:butt;stroke-linejoin:miter;stroke-miterlimit:4;stroke-dasharray:none;stroke-opacity:1"
           d="m 260.57046,359.26697 c 6.90039,2.00065 13.5424,2.21983 20.11397,-0.56751 -3.08835,4.73621 -2.16969,8.6534 -0.37019,12.39055 -5.30042,2.38902 -12.66788,1.84437 -19.49698,-0.37833 2.39193,-3.18276 1.24625,-7.26937 -0.2468,-11.44471 z"
           id="path1103"
           sodipodi:nodetypes="ccccc" />
        <path
           style="fill:none;stroke:#000000;stroke-width:0.529167;stroke-linecap:butt;stroke-linejoin:miter;stroke-miterlimit:4;stroke-dasharray:none;stroke-opacity:1"
           d="m 257.18672,357.41398 c 1.09281,0.50437 1.94851,0.24336 3.38374,1.85299 l 8.31278,1.2123 7.42124,-0.72599 4.37995,-1.05382 3.20262,-2.4148 -3.20262,2.4148"
           id="path1105"
           sodipodi:nodetypes="ccccccc" />
        <path
           style="fill:none;stroke:#000000;stroke-width:0.264583px;stroke-linecap:butt;stroke-linejoin:miter;stroke-opacity:1"
           d="m 274.81292,365.18949 -1.15303,0.15871 -2.11186,-2.92273 0.63022,7.41653 -2.08395,-4.0479 -1.40108,0.0999 -1.57409,-2.63151 -0.33466,5.10805 -1.89489,-2.75715 -3.16333,-0.0644"
           id="path1109" />
      </g>
    </g>
  </g>
  <g
     inkscape:groupmode="layer"
     id="layer2"
     inkscape:label="Layer 1"
     transform="matrix(0.93744766,0,0,0.92791976,73.989537,-126.58384)" />
</svg>
