<?xml version="1.0" encoding="UTF-8" standalone="no"?>
<svg
   xmlns:dc="http://purl.org/dc/elements/1.1/"
   xmlns:cc="http://creativecommons.org/ns#"
   xmlns:rdf="http://www.w3.org/1999/02/22-rdf-syntax-ns#"
   xmlns:svg="http://www.w3.org/2000/svg"
   xmlns="http://www.w3.org/2000/svg"
   xmlns:sodipodi="http://sodipodi.sourceforge.net/DTD/sodipodi-0.dtd"
   xmlns:inkscape="http://www.inkscape.org/namespaces/inkscape"
   width="67.271866mm"
   height="44.196854mm"
   viewBox="0 0 67.271866 44.196854"
   version="1.1"
   id="svg8"
   inkscape:version="1.0.2-2 (e86c870879, 2021-01-15)"
   sodipodi:docname="bublinanapis.svg">
  <defs
     id="defs2" />
  <sodipodi:namedview
     id="base"
     pagecolor="#ffffff"
     bordercolor="#666666"
     borderopacity="1.0"
     inkscape:pageopacity="0.0"
     inkscape:pageshadow="2"
     inkscape:zoom="2.02"
     inkscape:cx="223.40459"
     inkscape:cy="34.468424"
     inkscape:document-units="mm"
     inkscape:current-layer="layer1"
     inkscape:document-rotation="0"
     showgrid="false"
     inkscape:window-width="1920"
     inkscape:window-height="1001"
     inkscape:window-x="-9"
     inkscape:window-y="-9"
     inkscape:window-maximized="1" />
  <metadata
     id="metadata5">
    <rdf:RDF>
      <cc:Work
         rdf:about="">
        <dc:format>image/svg+xml</dc:format>
        <dc:type
           rdf:resource="http://purl.org/dc/dcmitype/StillImage" />
        <dc:title />
      </cc:Work>
    </rdf:RDF>
  </metadata>
  <g
     inkscape:label="Vrstva 1"
     inkscape:groupmode="layer"
     id="layer1"
     transform="translate(-43.06507,-82.752569)">
    <path
       id="rect833"
       style="opacity:0.976645;fill:#f2f2f2;stroke-width:75.5906;stroke-linecap:square;paint-order:stroke fill markers"
       d="m 183.83594,312.76562 c -11.67309,0 -21.07032,9.39723 -21.07032,21.07032 v 79.13672 c 10e-6,11.67308 9.39723,21.07031 21.07032,21.07031 h 111.07617 l 44.06055,45.18359 c 0.74325,0.76221 1.95459,0.77841 2.71679,0.0352 l 46.3711,-45.21875 h 7.89062 c 11.67309,0 21.07031,-9.39723 21.07031,-21.07031 v -79.13672 c 0,-11.67309 -9.39722,-21.07032 -21.07031,-21.07032 z"
       transform="scale(0.26458333)" />
    <g
       aria-label="NAKRM MĚ"
       transform="matrix(1.0865578,0,0,1.2175926,-6.1625644,-19.208117)"
       id="text840"
       style="font-style:normal;font-variant:normal;font-weight:normal;font-stretch:normal;font-size:13.4047px;line-height:1.25;font-family:Mistral;-inkscape-font-specification:'Mistral, Normal';font-variant-ligatures:normal;font-variant-caps:normal;font-variant-numeric:normal;font-variant-east-asian:normal;fill:#000000;fill-opacity:1;stroke:none;stroke-width:0.335119">
      <path
         d="m 52.72505,94.572279 -0.104724,-0.425442 q 0.03927,-0.130905 0.07854,-0.26181 0.03927,-0.137451 0.072,-0.268356 0.03927,-0.09163 0.130905,-0.137451 0.09818,-0.05236 0.255265,-0.05236 0.05891,0 0.176723,-0.02618 0.12436,-0.02618 0.176722,-0.02618 0.05891,0 0.157086,0.09163 0.09818,0.09163 0.137451,0.104724 0.04582,-0.03273 0.111269,-0.11127 0.072,-0.07854 0.170177,-0.209448 0.08509,-0.104724 0.163632,-0.170177 0.07854,-0.06545 0.170176,-0.09163 0.104725,0.05236 0.183268,0.08509 0.04582,0.02618 0.05891,0.05891 0.01964,0.03273 0.01964,0.09163 0,0.03273 -0.03273,0.143996 -0.03273,0.104724 -0.09818,0.287991 -0.072,0.196358 -0.11127,0.327264 -0.03927,0.130905 -0.05236,0.202903 -0.09818,0.150541 -0.157086,0.274901 -0.05236,0.117815 -0.05236,0.222539 0,0.130905 0.07854,0.392716 0.07854,0.255265 0.229084,0.641435 0.209448,0.523622 0.425442,1.09306 0.196358,0.628345 0.412352,1.217419 0.215994,0.582528 0.451623,1.11924 0.242175,0.562892 0.399261,0.837793 0.157086,0.274894 0.23563,0.274894 0.06545,0 0.09163,-0.072 0.03273,-0.0785 0.03273,-0.242175 0,-0.06545 0.01309,-0.170177 0.01964,-0.104724 0.05891,-0.229084 0.05891,-0.176722 0.111269,-0.399261 0.06545,-0.340354 0.117815,-0.595619 0.05891,-0.255266 0.09818,-0.438533 0.02618,-0.117815 0.05891,-0.49744 0.03273,-0.379625 0.06545,-1.027606 0,-0.06545 0.01964,-0.183268 0.02618,-0.117815 0.04582,-0.268356 0.02618,-0.150541 0.03927,-0.255265 0.01309,-0.111269 0.01309,-0.196358 0,-0.150541 -0.03273,-0.445078 -0.03273,-0.301082 -0.03273,-0.451623 0.09818,-0.412352 0.183267,-0.805067 0.072,-0.340354 0.137451,-0.562893 0.06545,-0.229084 0.111269,-0.346899 0.104724,-0.23563 0.255266,-0.405806 0.150541,-0.176723 0.333808,-0.287992 h 0.05236 q 0.06545,0 0.08509,0.02618 0.02618,0.02618 0.02618,0.08509 -0.03273,0.137451 -0.05891,0.209449 0.01964,0.117815 0.03927,0.24872 -0.01964,0.163631 -0.04582,0.274901 -0.01309,0.072 -0.02618,0.222539 -0.01309,0.143996 -0.01309,0.353444 0,0.07854 -0.01964,0.340354 -0.01964,0.255265 -0.072,0.687253 -0.03927,0.615254 -0.09818,1.223964 -0.05236,0.608709 -0.11127,1.217419 -0.05236,0.73307 -0.150541,1.341779 -0.09818,0.602164 -0.235629,1.079969 -0.03273,0.287991 -0.12436,0.641439 -0.08509,0.35345 -0.222539,0.7658 l -0.202904,0.32726 q -0.01964,0.0262 -0.412351,0.17018 -0.392716,0.13745 -0.438533,0.13745 -0.09818,0 -0.294537,-0.25527 -0.196358,-0.26181 -0.464713,-0.79197 -0.255266,-0.47781 -0.405807,-0.785441 -0.150541,-0.314173 -0.189812,-0.471259 -0.01309,-0.05891 -0.03927,-0.150541 -0.02618,-0.09163 -0.05891,-0.209448 Q 54.518452,98.780884 54.315549,98.355442 54.119191,97.93 53.857381,97.347471 53.811564,97.203475 53.739566,97.07257 53.674113,96.93512 53.575934,96.784578 l -0.04582,0.01964 q -0.04582,0.130906 -0.09163,0.327263 -0.04582,0.196358 -0.104724,0.471259 -0.06545,0.176723 -0.137451,0.314173 -0.09818,0.379625 -0.222539,0.824703 -0.12436,0.445078 -0.268356,0.955609 -0.03927,0.170177 -0.07854,0.353445 -0.03927,0.18326 -0.09163,0.37962 l -0.117814,0.21599 q -0.02618,0.19636 -0.05891,0.38617 -0.04582,0.15055 -0.117814,0.36654 -0.06545,0.20945 -0.163632,0.50398 -0.01964,0.15055 -0.09818,0.22254 -0.072,0.0785 -0.202903,0.0851 -0.01309,0.0262 -0.05236,0.0524 -0.03927,0.0327 -0.130906,0.0589 -0.06545,0.0131 -0.09818,-0.072 -0.03273,-0.0785 -0.03273,-0.23563 0,-0.0916 0.03273,-0.28799 0.03273,-0.19636 0.09818,-0.49744 0.072,-0.34035 0.11127,-0.53016 0.04582,-0.19636 0.05891,-0.24872 0.02618,-0.15709 0.05891,-0.41236 0.03273,-0.255257 0.072,-0.589065 0.01309,-0.08509 0.03927,-0.209449 0.03273,-0.130905 0.07854,-0.301082 0.03273,-0.130905 0.130906,-0.706888 0.09818,-0.582529 0.255265,-1.61668 0.170177,-1.014516 0.327263,-2.042123 z"
         style="font-style:normal;font-variant:normal;font-weight:normal;font-stretch:normal;font-size:13.4047px;font-family:Mistral;-inkscape-font-specification:'Mistral, Normal';font-variant-ligatures:normal;font-variant-caps:normal;font-variant-numeric:normal;font-variant-east-asian:normal;stroke-width:0.335119"
         id="path857" />
      <path
         d="m 58.242707,99.265233 q -0.01964,-0.072 -0.01964,-0.117814 -0.0065,-0.04582 -0.0065,-0.07854 0,-0.215994 0.05236,-0.366535 0.05236,-0.157087 0.157087,-0.261811 0.02618,-0.02618 0.130905,-0.07854 0.111269,-0.05236 0.287992,-0.12436 0.12436,-0.05891 0.196357,-0.13745 0.07854,-0.08509 0.08509,-0.202904 0.01964,-0.09163 0.07854,-0.209448 0.05891,-0.117815 0.137451,-0.255265 0.02618,-0.03927 0.157086,-0.451624 0.130905,-0.412351 0.366535,-1.210873 0.06545,-0.242175 0.130905,-0.418897 0.06545,-0.176722 0.111269,-0.301082 0.209449,-0.556348 0.340354,-0.726525 0.137451,-0.176722 0.202903,-0.287991 v -0.03273 l -0.202903,-0.320718 0.255265,-0.294536 0.327264,-0.06545 q 0.09818,-0.01309 0.176722,-0.183267 0.08509,-0.170177 0.287991,-0.37308 0.04582,-0.01309 0.143996,-0.07854 0.104724,-0.072 0.261811,-0.196358 0.13745,-0.111269 0.235629,-0.163631 0.09818,-0.05236 0.150541,-0.05236 0.176722,0 0.255266,0.072 0.07854,0.072 0.07854,0.189812 0,0.143996 -0.150541,0.418897 -0.150541,0.274901 -0.150541,0.418897 0,0.06545 0.02618,0.11127 0.03273,0.03927 0.072,0.05236 l 0.785431,0.425442 q 0.06545,0.02618 0.117815,0.209448 0.05236,0.176722 0.08509,0.490895 0.03927,0.261811 0.05891,0.438533 0.02618,0.170177 0.02618,0.274901 -0.04582,0.281446 -0.09163,0.569438 0.06545,0.366534 0.143996,0.772341 -0.03927,0.38617 -0.08509,0.785432 0,0.03927 0.01309,0.072 0.01964,0.02618 0.05236,0.03273 0.11127,0.0065 0.163632,0.05891 0.05891,0.05236 0.05891,0.143996 0,0.117815 -0.03927,0.189813 -0.03273,0.06545 -0.09818,0.104724 -0.08509,0.05236 -0.137451,0.09163 -0.04582,0.03927 -0.06545,0.06545 l 0.08509,0.405806 -0.117815,0.929428 q 0,0.117815 -0.01964,0.301082 -0.01963,0.183271 -0.05891,0.425451 -0.06545,0.17672 -0.09818,0.29453 -0.03273,0.11782 -0.03273,0.15709 0.03273,0.11127 0.05891,0.23563 -0.03927,0.17672 -0.08509,0.35344 -0.03927,0.17673 -0.07854,0.3469 -0.072,0.22909 -0.189812,0.33381 -0.117815,0.11127 -0.274901,0.11127 -0.08509,0 -0.130906,-0.0785 -0.03927,-0.072 -0.03927,-0.22254 0,-0.0654 0.01964,-0.18981 0.02618,-0.12436 0.02618,-0.18982 0,-0.0458 -0.01309,-0.12436 -0.01309,-0.0785 -0.01309,-0.13745 0,-0.18327 0.03273,-0.58253 0.03927,-0.4058 0.03927,-0.60871 -0.03273,-0.11127 -0.06545,-0.229085 0.01964,-0.12436 0.02618,-0.24872 0.0065,-0.130905 -0.0065,-0.242175 l 0.09818,-0.176722 -0.08509,-0.60871 -0.04582,-0.01964 q -0.03927,0 -0.117814,0.03273 -0.072,0.02618 -0.183268,0.09163 -0.07854,0.02618 -0.24872,0.05891 -0.163631,0.02618 -0.438532,0.03273 -0.117815,0.05891 -0.222539,0.104725 -0.150542,0.03273 -0.379626,0.117814 -0.229084,0.07854 -0.530166,0.196358 -0.176722,0.08509 -0.327263,0.137451 -0.143996,0.04582 -0.242175,0.04582 -0.07854,0 -0.130905,0.05891 -0.05236,0.05891 -0.08509,0.170177 -0.01964,0.104724 -0.09818,0.287991 -0.072,0.183266 -0.196358,0.458166 -0.02618,0.072 -0.072,0.22254 -0.04582,0.15054 -0.104724,0.37308 -0.03927,0.0851 -0.09163,0.21599 -0.05236,0.12436 -0.117815,0.29454 0,0.0785 -0.01964,0.19636 -0.01309,0.11127 -0.04582,0.26181 -0.03273,0.0916 -0.09163,0.22908 -0.05236,0.144 -0.13745,0.31417 -0.05236,0.10473 -0.150541,0.15055 -0.09818,0.0524 -0.255265,0.0524 -0.11127,0 -0.170177,-0.0785 -0.06545,-0.072 -0.06545,-0.22908 0,-0.17018 0.03927,-0.39272 0.03927,-0.21599 0.12436,-0.4778 0.09163,-0.3469 0.157086,-0.56289 0.06545,-0.216 0.072,-0.32072 0.01964,-0.0458 0.05891,-0.16363 0.03927,-0.11782 0.09163,-0.28799 0.05891,-0.163632 0.111269,-0.37308 l -0.03273,-0.05236 -0.209448,0.03273 q -0.072,-0.0065 -0.104725,-0.05891 -0.03273,-0.05236 -0.03273,-0.137451 0,-0.04582 0.01309,-0.09818 0.01309,-0.05891 0.03927,-0.137451 z m 2.375931,-1.204328 q 0.150541,0 0.445078,-0.072 0.294537,-0.072 0.445078,-0.072 0.09163,0.01964 0.183267,0.03273 0.163632,-0.03273 0.320718,-0.072 0.157087,-0.04582 0.320718,-0.07854 0.06545,-0.01309 0.09818,-0.04582 0.03273,-0.03927 0.03273,-0.09818 -0.01309,-0.196358 -0.01309,-0.268356 0,-0.12436 0.01309,-0.274901 0.01964,-0.157087 0.05236,-0.320718 l -0.07854,-0.294537 0.02618,-0.268356 q -0.02618,-0.143996 -0.04582,-0.268356 -0.01309,-0.130905 0,-0.215993 -0.01309,-0.02618 -0.04582,-0.08509 -0.03273,-0.05891 -0.072,-0.12436 -0.06545,-0.111269 -0.137451,-0.209448 -0.06545,-0.104725 -0.130905,-0.209449 -0.09163,-0.12436 -0.196358,-0.183267 -0.104724,-0.05891 -0.215994,-0.05891 -0.130905,0 -0.268355,0.209449 -0.137451,0.209448 -0.255266,0.63489 -0.01964,0.05236 -0.111269,0.215994 -0.08509,0.163632 -0.24872,0.425442 -0.02618,0.24872 -0.176722,0.6218 -0.150541,0.366535 -0.418897,0.863975 -0.03273,0.04582 -0.03927,0.07854 0,0.03273 0,0.072 0,0.04582 0.01964,0.072 0.02618,0.01964 0.072,0.01964 0.06545,0 0.209448,-0.01309 0.150541,-0.01309 0.215994,-0.01309 z"
         style="font-style:normal;font-variant:normal;font-weight:normal;font-stretch:normal;font-size:13.4047px;font-family:Mistral;-inkscape-font-specification:'Mistral, Normal';font-variant-ligatures:normal;font-variant-caps:normal;font-variant-numeric:normal;font-variant-east-asian:normal;stroke-width:0.335119"
         id="path859" />
      <path
         d="m 70.155088,99.867398 q 0.268356,0.569442 0.268356,0.602162 -0.130906,0.13745 -0.353445,0.30763 -0.222539,0.17018 -0.543256,0.38617 -0.340354,0.23563 -0.575984,0.34035 -0.229084,0.10473 -0.353444,0.10473 -0.268356,0 -0.484349,-0.13745 -0.209449,-0.13745 -0.35999,-0.43199 -0.01964,-0.0393 -0.04582,-0.0851 -0.01964,-0.0524 -0.05236,-0.10472 -0.163632,-0.15709 -0.314173,-0.31418 -0.072,-0.0785 -0.274901,-0.37308 -0.202903,-0.301078 -0.51053,-0.818153 -0.137451,-0.242175 -0.294537,-0.490895 -0.157086,-0.24872 -0.327263,-0.503985 -0.04582,0.06545 -0.104725,0.307627 -0.05236,0.235629 -0.104724,0.647981 0,0.06545 -0.04582,0.215994 -0.03927,0.150541 -0.03927,0.222539 0,0.03273 0.01309,0.111269 0.01964,0.072 0.01964,0.104724 0,0.209449 -0.05891,0.634889 -0.05891,0.42544 -0.05891,0.63489 0,0.17018 -0.05891,0.24872 -0.05236,0.0785 -0.183267,0.0785 -0.137451,-0.0131 -0.215994,-0.0393 -0.09818,0.0262 -0.183267,0.0393 -0.072,0 -0.117815,-0.0851 -0.03927,-0.0916 -0.03927,-0.28145 0,-0.0654 0.03273,-0.20945 0.03273,-0.14399 0.03273,-0.22254 0,-0.0524 -0.01964,-0.16363 -0.01964,-0.11781 -0.01964,-0.17017 0,-0.0524 0.02618,-0.32727 0.03273,-0.274899 0.09818,-0.791975 0.05891,-0.530166 0.104725,-0.837794 0.04582,-0.307627 0.06545,-0.37308 0.01964,-0.04582 0.05236,-0.111269 0.03273,-0.06545 0.04582,-0.157087 l -0.09818,-0.37308 q 0.05236,-0.301082 0.12436,-0.88361 0.07854,-0.589074 0.183268,-1.47923 0.05891,-0.523621 0.09163,-0.811613 0.03273,-0.287991 0.03927,-0.327263 0.09163,-0.268356 0.281446,-0.445078 0.189813,-0.183267 0.48435,-0.274901 0.03927,-0.02618 0.09163,-0.072 0.05891,-0.04582 0.137451,-0.104724 0.08509,-0.01309 0.215994,0.23563 0.130905,0.24872 0.130905,0.366534 0,0.05236 -0.01309,0.143996 -0.01309,0.08509 -0.05236,0.202903 -0.04582,0.143996 -0.072,0.23563 -0.02618,0.09163 -0.03273,0.12436 -0.104724,0.359989 -0.235629,0.903246 -0.130906,0.543257 -0.287992,1.282872 -0.01309,0.05891 -0.03273,0.150541 -0.01309,0.08509 -0.05236,0.209448 -0.02618,0.11127 -0.04582,0.202904 -0.01964,0.09163 -0.01964,0.157086 0,0.08509 0.06545,0.189813 0.196357,-0.072 0.628345,-0.536712 0.431987,-0.464714 1.112695,-1.302507 0.693798,-0.850885 1.040697,-1.381051 0.346899,-0.536712 0.346899,-0.752705 0,-0.07854 -0.104725,-0.196358 -0.09818,-0.12436 -0.09818,-0.209449 0,-0.170177 0.157087,-0.281446 0.157086,-0.117815 0.477804,-0.176722 0.06545,-0.0065 0.202903,-0.11127 0.137451,-0.111269 0.23563,-0.111269 0.09818,0.01964 0.183267,0.02618 0.11127,-0.05891 0.215994,-0.12436 0.09818,0.09818 0.13745,0.222539 0.04582,0.117814 0.04582,0.274901 0,0.314172 -0.07854,0.556347 -0.072,0.23563 -0.229084,0.379626 -0.04582,0.03927 -0.09818,0.09163 -0.05236,0.05236 -0.104724,0.117815 -0.104725,0.222539 -0.287992,0.490895 -0.183267,0.268356 -0.438533,0.589074 -0.562892,0.693797 -1.034151,1.217419 -0.471259,0.523621 -0.850885,0.877065 -0.157086,0.150541 -0.235629,0.26181 -0.07854,0.104725 -0.07854,0.183268 0.111269,0.215994 0.196358,0.399261 0.157086,0.379625 0.327263,0.739615 0.176722,0.359989 0.346899,0.726524 0.287991,0.549802 0.530166,0.824701 0.24872,0.26835 0.451623,0.26835 0.03273,0 0.196358,-0.072 0.163632,-0.0785 0.431988,-0.216 0.05891,-0.0851 0.24872,-0.2029 0.196358,-0.124357 0.202903,-0.163628 z"
         style="font-style:normal;font-variant:normal;font-weight:normal;font-stretch:normal;font-size:13.4047px;font-family:Mistral;-inkscape-font-specification:'Mistral, Normal';font-variant-ligatures:normal;font-variant-caps:normal;font-variant-numeric:normal;font-variant-east-asian:normal;stroke-width:0.335119"
         id="path861" />
      <path
         d="m 72.635743,98.145993 q 0,0.130906 0.183267,0.353445 0.189813,0.215993 0.562893,0.536711 0.242175,0.202903 0.49744,0.399261 0.261811,0.189813 0.517076,0.386171 0.111269,0.09163 0.287991,0.242179 0.176723,0.14399 0.412352,0.34035 0.170177,0.1309 0.353444,0.26181 0.189813,0.13091 0.405807,0.26181 0.143995,0.11127 0.320718,0.24218 0.176722,0.1309 0.405806,0.28144 0.130905,0.0785 0.202903,0.28799 0.072,0.20291 0.08509,0.53017 l -0.05891,0.17018 -0.06545,0.0327 q -0.06545,0 -0.176722,-0.0589 -0.104724,-0.0524 -0.268355,-0.15709 -0.03273,-0.0196 -0.301083,-0.144 -0.26181,-0.12436 -0.75925,-0.35344 -0.274901,-0.11782 -0.503985,-0.26181 -0.229085,-0.15054 -0.418897,-0.31417 -0.11127,-0.0982 -0.287992,-0.216 -0.170177,-0.11781 -0.405806,-0.25526 -0.242175,-0.13745 -0.418897,-0.26181 -0.176722,-0.12436 -0.281447,-0.20945 -0.353444,-0.287994 -0.575983,-0.438535 -0.222539,-0.150541 -0.307627,-0.150541 -0.06545,0.09163 -0.072,0.189813 -0.07854,0.307623 -0.170177,0.778883 -0.08509,0.46472 -0.189813,1.08652 0,0.11127 -0.03927,0.16363 -0.03927,0.0589 -0.117815,0.0589 -0.255265,0 -0.38617,-0.12436 -0.130906,-0.12436 -0.130906,-0.37308 0,-0.33381 0.03927,-0.70035 0.04582,-0.36653 0.143996,-0.772339 0.03273,-0.176722 0.04582,-0.314172 0.01964,-0.143996 0.01964,-0.261811 0,-0.301082 -0.26181,-0.517076 -0.255266,-0.215993 -0.255266,-0.307627 0,-0.143996 0.03927,-0.24872 0.04582,-0.11127 0.130905,-0.176722 0.215994,-0.137451 0.399261,-0.261811 0.04582,-0.02618 0.05891,-0.08509 0.01964,-0.06545 0.01964,-0.176722 0,-0.06545 0,-0.137451 0,-0.07854 0,-0.143996 0.01964,-0.582528 0.03273,-1.210873 0,-0.04582 0,-0.143996 0,-0.09818 -0.01309,-0.255266 -0.01309,-0.117814 -0.0065,-0.215993 0.0065,-0.104724 0.0065,-0.189813 -0.03927,-0.130905 -0.072,-0.222539 -0.02618,-0.09818 -0.02618,-0.183267 0,-0.07854 0.01309,-0.242175 0.01309,-0.170177 0.01309,-0.242175 0,-0.09163 -0.01963,-0.255265 -0.01309,-0.163632 -0.01309,-0.24872 0,-0.23563 0.104724,-0.451623 0.11127,-0.215994 0.333809,-0.425442 0.215993,-0.183268 0.438532,-0.274901 0.229085,-0.09818 0.464714,-0.09818 0.11127,0 0.327263,0.01963 0.222539,0.01309 0.346899,0.01309 0.08509,0 0.464714,0.143996 0.150541,0.01309 0.268356,0.03927 0.117815,0.01964 0.189813,0.04582 0.163631,0.07854 0.255265,0.12436 0.09163,0.03927 0.130905,0.04582 0.11127,0.03927 0.189813,0.06545 0.08509,0.02618 0.13745,0.06545 0.08509,0.03927 0.196358,0.09163 0.117815,0.05236 0.261811,0.117815 0.235629,0.117814 0.438532,0.274901 0.209449,0.157086 0.392716,0.340353 0.209449,0.23563 0.314173,0.464714 0.104724,0.222539 0.104724,0.445078 0,0.06545 -0.01309,0.189813 -0.0065,0.117815 -0.03273,0.268356 -0.01964,0.189812 -0.196358,0.412351 -0.176722,0.215994 -0.51053,0.477804 -0.294537,0.229085 -0.549802,0.386171 -0.255266,0.150541 -0.471259,0.215994 -0.08509,0.05891 -0.130906,0.111269 -0.06545,0.06545 -0.274901,0.183268 -0.209448,0.117814 -0.569438,0.294537 -0.654526,0.320717 -0.929427,0.425442 -0.274901,0.09818 -0.274901,0.215993 z M 71.94849,94.991176 q 0.12436,-0.09163 0.23563,-0.176722 0.111269,-0.09163 0.287991,-0.09163 0.07854,0 0.189813,0.176723 0.117815,0.170176 0.117815,0.255265 0,0.04582 -0.03273,0.209448 -0.03273,0.163632 -0.104724,0.445078 -0.150541,0.634891 -0.170177,0.798522 -0.01964,0.157087 -0.08509,0.49744 -0.02618,0.08509 -0.05236,0.222539 0,0.05891 0.01964,0.08509 0.02618,0.02618 0.06545,0.02618 1.302508,-0.654527 1.348324,-0.680708 0.05236,-0.01309 0.11127,-0.03273 0.05891,-0.02618 0.111269,-0.05236 l 0.09818,-0.12436 q 0.379626,-0.242175 0.785432,-0.517076 0.255265,-0.196358 0.379625,-0.38617 0.12436,-0.189813 0.12436,-0.379626 0,-0.242174 -0.281446,-0.477804 -0.281446,-0.235629 -0.844339,-0.451623 -0.477804,-0.189813 -0.87052,-0.274901 -0.392716,-0.09163 -0.713434,-0.09163 -0.418897,0 -0.63489,0.150541 -0.209449,0.143996 -0.209449,0.431988 0,0.222538 0.03273,0.340353 0.03273,0.11127 0.09163,0.09818 z"
         style="font-style:normal;font-variant:normal;font-weight:normal;font-stretch:normal;font-size:13.4047px;font-family:Mistral;-inkscape-font-specification:'Mistral, Normal';font-variant-ligatures:normal;font-variant-caps:normal;font-variant-numeric:normal;font-variant-east-asian:normal;stroke-width:0.335119"
         id="path863" />
      <path
         d="m 77.577416,95.33153 q -0.01964,-0.130905 -0.04582,-0.274901 0,0.05891 0.01964,-0.09163 0.01963,-0.150541 0.05236,-0.517076 0.05236,-0.072 0.072,-0.12436 0.02618,-0.05891 0.04582,-0.104724 -0.05891,-0.072 -0.09163,-0.117815 -0.02618,-0.05236 -0.02618,-0.08509 0.05236,-0.399261 0.09818,-0.759251 0.0065,-0.09818 0.111269,-0.222539 0.11127,-0.12436 0.301082,-0.268355 0.150541,-0.124361 0.294537,-0.209449 0.143996,-0.08509 0.274901,-0.13745 0.176722,-0.05891 0.209449,-0.09818 0.03273,-0.03927 0.072,-0.03927 0.104724,0 0.157086,0.104724 0.05891,0.104724 0.05891,0.314173 0,0.111269 -0.05891,0.307627 -0.05236,0.196358 -0.05236,0.287992 0,0.03927 0.0065,0.301082 0.01309,0.261811 0.03273,0.752705 0.0065,0.353445 0.09818,0.752706 0.09818,0.399261 0.24872,0.831248 0.202904,0.562893 0.438533,0.844339 0.23563,0.274901 0.517076,0.274901 0.222539,0 0.589074,-0.287991 0.366534,-0.287992 0.863974,-0.863975 0.379626,-0.445078 0.674163,-0.831249 0.301082,-0.38617 0.484349,-0.706888 0.170177,-0.287992 0.399261,-0.517076 0.229084,-0.229084 0.523621,-0.418897 0.09163,-0.05236 0.150541,-0.08509 0.05891,-0.03273 0.09163,-0.03273 0.117815,0 0.176722,0.176723 0.06545,0.176722 0.06545,0.523621 -0.03927,0.320718 -0.06545,0.63489 -0.05891,0.490895 -0.176722,1.021061 -0.111269,0.530167 -0.294537,1.099605 -0.09163,0.287991 -0.157086,0.503985 -0.06545,0.215994 -0.09163,0.366535 -0.01309,0.08509 -0.03927,0.215993 -0.01964,0.12436 -0.04582,0.294537 -0.06545,0.163632 -0.143996,0.327264 -0.06545,0.130905 -0.111269,0.314172 -0.03927,0.183268 -0.072,0.425442 0,0.04582 -0.0065,0.117815 -0.0065,0.072 -0.01309,0.150541 -0.150541,0.667615 -0.307628,1.295965 -0.01309,0.0589 -0.05891,0.15054 -0.08509,0.0262 -0.196358,0.11127 -0.104724,0.0851 -0.222539,0.23563 -0.117815,0.1309 -0.196358,0.19636 -0.07854,0.0589 -0.117815,0.0589 -0.05236,0 -0.08509,-0.0327 -0.03273,-0.0327 -0.03273,-0.11127 0.0065,-0.0524 0.01964,-0.0851 0.09163,-0.22254 0.157086,-0.64144 0.072,-0.41889 0.130905,-1.034149 0.0065,-0.130905 0.104724,-0.706889 0.09818,-0.575983 0.287992,-1.597044 0.02618,-0.163631 0.06545,-0.399261 0.04582,-0.242175 0.111269,-0.549802 0.04582,-0.157086 0.072,-0.268356 0.03273,-0.117815 0.03273,-0.170177 0,-0.06545 -0.02618,-0.09163 -0.01964,-0.03273 -0.06545,-0.03273 -0.03927,0 -0.143996,0.104724 -0.104724,0.09818 -0.261811,0.301083 -0.09163,0.111269 -0.189812,0.235629 -0.09163,0.12436 -0.196358,0.242175 -0.176722,0.183267 -0.327263,0.346899 l -0.48435,0.484349 q -0.06545,0.03927 -0.163632,0.09818 -0.09163,0.05891 -0.222539,0.137451 -0.12436,0.196358 -0.399261,0.340354 -0.268355,0.13745 -0.49744,0.13745 -0.274901,0 -0.530166,-0.170177 -0.24872,-0.176722 -0.48435,-0.536711 -0.104724,-0.176723 -0.209448,-0.353445 -0.09818,-0.176722 -0.215994,-0.353444 l -0.03273,0.0065 q -0.03273,0.03927 -0.12436,0.530167 -0.08509,0.490894 -0.222539,1.439958 -0.150541,0.975244 -0.229084,1.531586 -0.07854,0.55635 -0.07854,0.71998 -0.01309,0.22254 -0.08509,0.3469 -0.06545,0.11781 -0.209448,0.13745 -0.072,0.007 -0.202904,0.0393 -0.130905,0.0262 -0.314172,0.072 -0.03273,-0.007 -0.05891,-0.0196 -0.02618,-0.0196 -0.02618,-0.0524 l 0.03927,-0.24217 -0.06545,-0.24872 q 0.03927,-0.20291 0.07854,-0.39272 0.02618,-0.39271 0.04582,-0.73961 0.0065,-0.072 0.04582,-0.242175 0.04582,-0.170176 0.04582,-0.255265 0,-0.04582 -0.01964,-0.130905 -0.01964,-0.09163 -0.01964,-0.137451 0,-0.359989 0.11127,-1.066878 0.117815,-0.706888 0.117815,-1.073423 -0.01964,-0.150541 -0.04582,-0.301082 0.03273,-0.23563 0.104724,-0.589074 0.072,-0.353444 0.163632,-0.824703 z"
         style="font-style:normal;font-variant:normal;font-weight:normal;font-stretch:normal;font-size:13.4047px;font-family:Mistral;-inkscape-font-specification:'Mistral, Normal';font-variant-ligatures:normal;font-variant-caps:normal;font-variant-numeric:normal;font-variant-east-asian:normal;stroke-width:0.335119"
         id="path865" />
      <path
         d="m 88.887631,95.33153 q -0.01964,-0.130905 -0.04582,-0.274901 0,0.05891 0.01964,-0.09163 0.01963,-0.150541 0.05236,-0.517076 0.05236,-0.072 0.072,-0.12436 0.02618,-0.05891 0.04582,-0.104724 -0.05891,-0.072 -0.09163,-0.117815 -0.02618,-0.05236 -0.02618,-0.08509 0.05236,-0.399261 0.09818,-0.759251 0.0065,-0.09818 0.111269,-0.222539 0.11127,-0.12436 0.301082,-0.268355 0.150541,-0.124361 0.294537,-0.209449 0.143996,-0.08509 0.274901,-0.13745 0.176722,-0.05891 0.209449,-0.09818 0.03273,-0.03927 0.072,-0.03927 0.104724,0 0.157086,0.104724 0.05891,0.104724 0.05891,0.314173 0,0.111269 -0.05891,0.307627 -0.05236,0.196358 -0.05236,0.287992 0,0.03927 0.0065,0.301082 0.01309,0.261811 0.03273,0.752705 0.0065,0.353445 0.09818,0.752706 0.09818,0.399261 0.24872,0.831248 0.202904,0.562893 0.438533,0.844339 0.23563,0.274901 0.517076,0.274901 0.222539,0 0.589074,-0.287991 0.366534,-0.287992 0.863974,-0.863975 0.379626,-0.445078 0.674163,-0.831249 0.301082,-0.38617 0.484349,-0.706888 0.170177,-0.287992 0.399261,-0.517076 0.229084,-0.229084 0.523621,-0.418897 0.09163,-0.05236 0.150541,-0.08509 0.05891,-0.03273 0.09163,-0.03273 0.117815,0 0.176722,0.176723 0.06545,0.176722 0.06545,0.523621 -0.03927,0.320718 -0.06545,0.63489 -0.05891,0.490895 -0.176722,1.021061 -0.111269,0.530167 -0.294537,1.099605 -0.09163,0.287991 -0.157086,0.503985 -0.06545,0.215994 -0.09163,0.366535 -0.01309,0.08509 -0.03927,0.215993 -0.01964,0.12436 -0.04582,0.294537 -0.06545,0.163632 -0.143996,0.327264 -0.06545,0.130905 -0.111269,0.314172 -0.03927,0.183268 -0.072,0.425442 0,0.04582 -0.0065,0.117815 -0.0065,0.072 -0.01309,0.150541 -0.150541,0.667615 -0.307628,1.295965 -0.01309,0.0589 -0.05891,0.15054 -0.08509,0.0262 -0.196358,0.11127 -0.104724,0.0851 -0.222539,0.23563 -0.117815,0.1309 -0.196358,0.19636 -0.07854,0.0589 -0.117815,0.0589 -0.05236,0 -0.08509,-0.0327 -0.03273,-0.0327 -0.03273,-0.11127 0.0065,-0.0524 0.01964,-0.0851 0.09163,-0.22254 0.157086,-0.64144 0.072,-0.41889 0.130905,-1.034149 0.0065,-0.130905 0.104724,-0.706889 0.09818,-0.575983 0.287992,-1.597044 0.02618,-0.163631 0.06545,-0.399261 0.04582,-0.242175 0.111269,-0.549802 0.04582,-0.157086 0.072,-0.268356 0.03273,-0.117815 0.03273,-0.170177 0,-0.06545 -0.02618,-0.09163 -0.01964,-0.03273 -0.06545,-0.03273 -0.03927,0 -0.143996,0.104724 -0.104724,0.09818 -0.261811,0.301083 -0.09163,0.111269 -0.189812,0.235629 -0.09163,0.12436 -0.196358,0.242175 -0.176722,0.183267 -0.327263,0.346899 l -0.48435,0.484349 q -0.06545,0.03927 -0.163632,0.09818 -0.09163,0.05891 -0.222539,0.137451 -0.12436,0.196358 -0.399261,0.340354 -0.268355,0.13745 -0.49744,0.13745 -0.274901,0 -0.530166,-0.170177 -0.24872,-0.176722 -0.48435,-0.536711 -0.104724,-0.176723 -0.209448,-0.353445 -0.09818,-0.176722 -0.215994,-0.353444 l -0.03273,0.0065 q -0.03273,0.03927 -0.12436,0.530167 -0.08509,0.490894 -0.222539,1.439958 -0.150541,0.975244 -0.229084,1.531586 -0.07854,0.55635 -0.07854,0.71998 -0.01309,0.22254 -0.08509,0.3469 -0.06545,0.11781 -0.209448,0.13745 -0.072,0.007 -0.202904,0.0393 -0.130905,0.0262 -0.314172,0.072 -0.03273,-0.007 -0.05891,-0.0196 -0.02618,-0.0196 -0.02618,-0.0524 l 0.03927,-0.24217 -0.06545,-0.24872 q 0.03927,-0.20291 0.07854,-0.39272 0.02618,-0.39271 0.04582,-0.73961 0.0065,-0.072 0.04582,-0.242175 0.04582,-0.170176 0.04582,-0.255265 0,-0.04582 -0.01964,-0.130905 -0.01964,-0.09163 -0.01964,-0.137451 0,-0.359989 0.11127,-1.066878 0.117815,-0.706888 0.117815,-1.073423 -0.01964,-0.150541 -0.04582,-0.301082 0.03273,-0.23563 0.104724,-0.589074 0.072,-0.353444 0.163632,-0.824703 z"
         style="font-style:normal;font-variant:normal;font-weight:normal;font-stretch:normal;font-size:13.4047px;font-family:Mistral;-inkscape-font-specification:'Mistral, Normal';font-variant-ligatures:normal;font-variant-caps:normal;font-variant-numeric:normal;font-variant-east-asian:normal;stroke-width:0.335119"
         id="path867" />
      <path
         d="m 101.31054,99.867398 0.24872,0.602162 q -0.072,0.0654 -0.17672,0.144 -0.0982,0.072 -0.23563,0.15708 -0.13745,0.0458 -0.33381,0.13091 -0.18981,0.0851 -0.43853,0.19636 -0.18981,0.11781 -0.31417,0.17672 -0.117818,0.0589 -0.163635,0.0589 -0.08509,0 -0.314172,0.072 -0.222539,0.072 -0.589074,0.216 -0.196358,0.072 -0.418897,0.15054 -0.215994,0.072 -0.451623,0.1309 l -0.405807,-0.0851 -0.24872,0.11127 q -0.12436,0 -0.255265,-0.007 -0.12436,0 -0.242175,-0.0131 -0.189812,-0.007 -0.287991,-0.0524 -0.09163,-0.0458 -0.09163,-0.13091 l 0.03927,-0.24872 -0.03927,-0.0458 q -0.222539,0 -0.301082,-0.0589 -0.072,-0.0589 -0.072,-0.2749 0,-0.0982 0.0065,-0.32727 0.01309,-0.22908 0.03273,-0.59561 0,-0.0327 0.03927,-0.13746 0.04582,-0.10472 0.04582,-0.150536 -0.03273,-0.06545 -0.03927,-0.104725 -0.0065,-0.03927 -0.0065,-0.072 0.01309,-0.255265 0.05236,-0.628345 0.04582,-0.37308 0.11127,-0.883611 0.07854,-0.307627 0.130905,-0.693797 -0.01309,-0.287992 -0.02618,-0.589074 0.242175,-1.086514 0.49744,-2.186118 0.03927,-0.196358 0.143996,-0.37308 0.111269,-0.176723 0.26181,-0.340354 0.06545,-0.04582 0.08509,-0.072 0.03273,-0.05891 0.08509,-0.143996 0.05236,-0.09163 0.12436,-0.202903 0.03927,-0.02618 0.12436,-0.07854 0.09163,-0.05236 0.242175,-0.143996 0.06545,-0.05236 0.150541,-0.12436 0.08509,-0.072 0.196358,-0.170177 0.24872,-0.150541 0.458168,-0.314172 0.215994,-0.170177 0.536712,-0.209449 0.150541,-0.0065 0.301082,-0.01309 0.150541,-0.01309 0.287994,-0.02618 0.1309,-0.02618 0.22908,-0.03273 0.0654,-0.01309 0.11127,-0.02618 0.0524,-0.01309 0.0916,-0.01309 0.0393,0 0.10473,0.01309 0.072,0.0065 0.18981,0.02618 0.0916,0.0065 0.15709,0.0065 0.0654,0 0.12436,-0.0065 0.26181,0.07854 0.38617,0.229084 0.12436,0.150541 0.12436,0.35999 0,0.451623 -0.0916,0.674162 -0.0851,0.215994 -0.2749,0.215994 -0.14399,0 -0.32726,-0.143996 -0.18327,-0.150541 -0.988334,-0.150541 -0.333808,0.06545 -0.661071,0.130905 -0.03273,0.05236 -0.07854,0.07854 -0.03927,0.02618 -0.072,0.03927 l -0.229084,-0.08509 q -0.104724,0.03927 -0.235629,0.215993 -0.130906,0.176722 -0.274901,0.48435 -0.03273,0.06545 -0.05236,0.163631 -0.01309,0.09818 -0.01309,0.229085 -0.117815,0.471259 -0.235629,0.909791 -0.11127,0.471259 -0.183268,0.713434 -0.06545,0.242175 -0.07854,0.294537 -0.01964,0.06545 -0.03273,0.12436 -0.01309,0.05891 -0.01309,0.117815 0,0.08509 0.03273,0.130905 0.03273,0.04582 0.09818,0.04582 0.05891,0 0.281447,-0.215994 0.229084,-0.215994 0.340353,-0.242175 0.137451,-0.03927 0.274902,-0.08509 0.143995,-0.04582 0.294536,-0.11127 0.05891,-0.01963 0.307628,-0.05236 0.255265,-0.03273 0.70689,-0.07854 l 0.18326,0.05236 0.3469,-0.06545 0.18327,0.08509 q 0.0654,0.06545 0.11782,0.163632 0.0589,0.09163 0.10472,0.202903 0,0.392716 -0.0851,0.595619 -0.0851,0.202903 -0.25526,0.202903 l -0.35999,-0.143996 q -0.44508,0.04582 -0.883613,0.09163 -0.431987,0.03927 -0.88361,0.07854 -0.549803,0.111269 -0.844339,0.35999 -0.294537,0.24872 -0.327264,0.654526 -0.0065,0.08509 -0.04582,0.26181 -0.03927,0.176723 -0.09163,0.438533 l 0.04582,0.196358 q -0.05891,0.281446 -0.09163,0.530165 -0.03273,0.24872 -0.03273,0.44508 0,0.0654 0.01963,0.0982 0.01964,0.0262 0.04582,0.0131 0.314173,-0.0262 0.503986,-0.0393 0.189812,-0.0131 0.268355,-0.007 0.170177,0.0131 0.346899,0.0262 l 0.412352,-0.0327 q 0.06545,-0.0131 0.281446,-0.10473 0.222539,-0.0916 0.399261,-0.0916 0.189813,0 0.379626,-0.0393 0.196351,-0.0393 0.373081,-0.10473 0.17672,-0.0654 0.3469,-0.1309 0.17672,-0.072 0.35344,-0.13745 0.0655,-0.0196 0.17018,-0.072 0.11127,-0.05236 0.25526,-0.137451 z m 0.0524,-9.104462 q -0.0589,0.07854 -0.12436,0.157086 -0.0589,0.072 -0.11127,0.143996 -0.0524,0.05891 -0.072,0.150541 -0.0196,0.08509 -0.0655,0.143996 -0.0524,0.072 -0.13745,0.12436 -0.0851,0.04582 -0.12436,0.09818 -0.0393,0.05236 -0.10472,0.09818 -0.0589,0.03927 -0.0982,0.08509 l -0.13745,-0.0065 q -0.007,0.03927 0.0262,0.189813 -0.0393,0.03927 -0.0524,0.09818 -0.007,0.05236 -0.0458,0.08509 -0.0327,0.03273 -0.0982,0.04582 -0.0654,0.01309 -0.0916,0.03273 -0.0393,0.02618 -0.0916,0.03927 -0.05237,0.0065 -0.09164,0.01309 -0.03927,0.0065 -0.07854,0.02618 -0.03927,0.01964 -0.07854,0.01964 -0.03927,0 -0.07854,-0.01309 -0.03273,-0.01309 -0.072,-0.03273 -0.05891,-0.03273 -0.12436,-0.09818 -0.05891,-0.072 -0.11127,-0.157086 -0.02618,-0.05891 -0.06545,-0.117815 -0.03927,-0.05891 -0.07854,-0.117815 -0.03927,-0.05891 -0.09163,-0.117814 -0.05236,-0.05891 -0.09818,-0.11127 -0.05236,-0.05891 -0.11127,-0.12436 -0.05891,-0.06545 -0.117815,-0.12436 -0.04582,-0.04582 -0.104724,-0.09818 -0.05236,-0.05236 -0.104724,-0.09818 -0.05891,-0.03927 -0.104724,-0.07854 -0.04582,-0.04582 -0.06545,-0.07854 -0.01964,-0.03927 -0.03273,-0.072 -0.01309,-0.03273 -0.01309,-0.06545 0,-0.03273 0.02618,-0.072 0.02618,-0.04582 0.06545,-0.08509 0.04582,-0.04582 0.176722,-0.12436 0.117815,-0.01964 0.176722,0.01309 0.02618,0.01964 0.05236,0.07854 0.03273,0.05891 0.072,0.08509 0.04582,0.02618 0.09818,0.05891 0.05236,0.03273 0.104724,0.06545 0.05891,0.03273 0.117815,0.072 0.06545,0.03927 0.12436,0.072 0.06545,0.03927 0.09818,0.04582 0.03273,0.0065 0.09818,0.04582 0.02618,0.01309 0.12436,0.03927 0.09818,0.02618 0.12436,0.04582 0.04582,0.03273 0.07854,0.04582 0.03273,0.01309 0.09163,-0.01964 l 0.11782,-0.08509 q 0.0589,-0.03927 0.0982,-0.06545 0.0393,-0.03273 0.0916,-0.072 0.0589,-0.05236 0.12436,-0.104724 0.0654,-0.05891 0.11781,-0.11127 0.0524,-0.04582 0.10473,-0.09818 0.0524,-0.05891 0.0916,-0.11127 0.0524,-0.05891 0.0785,-0.111269 0.0262,-0.05236 0.0655,-0.08509 0.0524,-0.03927 0.19635,-0.08509 0.0458,0 0.0851,0.01963 0.0393,0.01309 0.0655,0.04582 0.10472,0.07854 0.15054,0.130906 0.0458,0.05236 0.0458,0.09818 0,0.03927 -0.0327,0.104724 -0.0262,0.05891 -0.0786,0.12436 z"
         style="font-style:normal;font-variant:normal;font-weight:normal;font-stretch:normal;font-size:13.4047px;font-family:Mistral;-inkscape-font-specification:'Mistral, Normal';font-variant-ligatures:normal;font-variant-caps:normal;font-variant-numeric:normal;font-variant-east-asian:normal;stroke-width:0.335119"
         id="path869" />
    </g>
  </g>
</svg>
