<?xml version="1.0" encoding="UTF-8" standalone="no"?>
<svg
   xmlns:dc="http://purl.org/dc/elements/1.1/"
   xmlns:cc="http://creativecommons.org/ns#"
   xmlns:rdf="http://www.w3.org/1999/02/22-rdf-syntax-ns#"
   xmlns:svg="http://www.w3.org/2000/svg"
   xmlns="http://www.w3.org/2000/svg"
   xmlns:xlink="http://www.w3.org/1999/xlink"
   xmlns:sodipodi="http://sodipodi.sourceforge.net/DTD/sodipodi-0.dtd"
   xmlns:inkscape="http://www.inkscape.org/namespaces/inkscape"
   width="70.723618mm"
   height="70.181061mm"
   viewBox="0 0 70.723619 70.181061"
   version="1.1"
   id="svg8"
   inkscape:version="1.0.2-2 (e86c870879, 2021-01-15)"
   sodipodi:docname="zabavne.svg">
  <defs
     id="defs2">
    <linearGradient
       inkscape:collect="always"
       id="linearGradient985">
      <stop
         style="stop-color:#e114b7;stop-opacity:1"
         offset="0"
         id="stop981" />
      <stop
         style="stop-color:#3f51b5;stop-opacity:1"
         offset="1"
         id="stop983" />
    </linearGradient>
    <linearGradient
       inkscape:collect="always"
       xlink:href="#linearGradient985"
       id="linearGradient1001"
       gradientUnits="userSpaceOnUse"
       x1="127.21877"
       y1="85.437599"
       x2="307.61514"
       y2="206.41643"
       gradientTransform="matrix(0.26458333,0,0,0.26458333,43.050894,139.30195)" />
    <linearGradient
       inkscape:collect="always"
       xlink:href="#linearGradient985"
       id="linearGradient1003"
       gradientUnits="userSpaceOnUse"
       x1="127.21877"
       y1="85.437599"
       x2="307.61514"
       y2="206.41643"
       gradientTransform="matrix(0.26458333,0,0,0.26458333,42.566845,138.8179)" />
    <linearGradient
       inkscape:collect="always"
       xlink:href="#linearGradient985"
       id="linearGradient1005"
       gradientUnits="userSpaceOnUse"
       x1="127.21877"
       y1="85.437599"
       x2="307.61514"
       y2="206.41643"
       gradientTransform="matrix(0.26457516,0.00208015,-0.00208015,0.26457516,43.141207,138.52878)" />
    <linearGradient
       inkscape:collect="always"
       xlink:href="#linearGradient985"
       id="linearGradient1007"
       gradientUnits="userSpaceOnUse"
       x1="127.21877"
       y1="85.437599"
       x2="307.61514"
       y2="206.41643"
       gradientTransform="matrix(0.26458333,0,0,0.26458333,42.304998,138.83818)" />
  </defs>
  <sodipodi:namedview
     id="base"
     pagecolor="#ffffff"
     bordercolor="#666666"
     borderopacity="1.0"
     inkscape:pageopacity="0.0"
     inkscape:pageshadow="2"
     inkscape:zoom="3.2796268"
     inkscape:cx="171.39073"
     inkscape:cy="119.63937"
     inkscape:document-units="mm"
     inkscape:current-layer="layer1"
     inkscape:document-rotation="0"
     showgrid="false"
     inkscape:window-width="1920"
     inkscape:window-height="1001"
     inkscape:window-x="-9"
     inkscape:window-y="-9"
     inkscape:window-maximized="1" />
  <metadata
     id="metadata5">
    <rdf:RDF>
      <cc:Work
         rdf:about="">
        <dc:format>image/svg+xml</dc:format>
        <dc:type
           rdf:resource="http://purl.org/dc/dcmitype/StillImage" />
        <dc:title />
      </cc:Work>
    </rdf:RDF>
  </metadata>
  <g
     inkscape:label="Vrstva 1"
     inkscape:groupmode="layer"
     id="layer1"
     transform="translate(-67.150715,-140.67603)">
    <path
       id="rect859"
       style="opacity:0.976645;mix-blend-mode:normal;fill:url(#linearGradient1001);fill-opacity:1;stroke-width:0.529167;stroke-linecap:square;paint-order:stroke fill markers"
       d="m 69.22604,140.67603 c -1.149893,0 -2.075325,0.92543 -2.075325,2.07532 v 24.80469 c 0,1.14989 0.925432,2.07532 2.075325,2.07532 h 5.631697 a 7.4245104,7.2388978 0 0 0 -0.653706,2.96985 7.4245104,7.2388978 0 0 0 7.424353,7.23883 7.4245104,7.2388978 0 0 0 7.42487,-7.23883 7.4245104,7.2388978 0 0 0 -0.653709,-2.96985 h 6.187737 c 1.149895,0 2.075844,-0.92543 2.075844,-2.07532 v -6.87607 a 7.4245104,7.2388978 0 0 1 -3.712435,0.96997 7.4245104,7.2388978 0 0 1 -7.424354,-7.23883 7.4245104,7.2388978 0 0 1 7.424354,-7.23884 7.4245104,7.2388978 0 0 1 3.712435,0.97048 v -5.3914 c 0,-1.14989 -0.925949,-2.07532 -2.075844,-2.07532 z" />
    <path
       id="path844"
       style="opacity:0.976645;mix-blend-mode:normal;fill:url(#linearGradient1003);fill-opacity:1;stroke-width:0.529167;stroke-linecap:square;paint-order:stroke fill markers"
       d="m 123.3645,171.52288 a 7.4245104,7.2388978 0.2097 0 0 -7.41092,7.21196 7.4245104,7.2388978 0.2097 0 0 0.64286,2.97191 l -6.18826,-0.0227 c -1.14988,-0.004 -2.07938,0.9182 -2.08359,2.06809 l -0.0248,6.87606 a 7.4245104,7.2388978 0.2097 0 1 3.71605,-0.95653 7.4245104,7.2388978 0.2097 0 1 7.39748,7.26571 7.4245104,7.2388978 0.2097 0 1 -7.45071,7.21196 7.4245104,7.2388978 0.2097 0 1 -3.70882,-0.98443 l -0.0196,5.3914 c -0.004,1.14988 0.9182,2.07887 2.06809,2.08308 l 25.36124,0.093 c 1.14989,0.004 2.07835,-0.9182 2.08256,-2.06809 l 0.0909,-24.80417 c 0.004,-1.14988 -0.91769,-2.07887 -2.06757,-2.08308 l -5.6317,-0.0207 a 7.4245104,7.2388978 0.2097 0 0 0.66456,-2.96726 7.4245104,7.2388978 0.2097 0 0 -7.398,-7.26622 7.4245104,7.2388978 0.2097 0 0 -0.0398,0 z" />
    <path
       id="path859"
       style="opacity:0.976645;mix-blend-mode:normal;fill:url(#linearGradient1005);fill-opacity:1;stroke-width:0.529167;stroke-linecap:square;paint-order:stroke fill markers"
       d="m 135.80238,140.7787 -24.80463,-0.04 c -1.14988,-0.002 -2.0769,0.92209 -2.07875,2.07197 l -0.009,5.63129 a 7.2388978,7.4245104 0.09275607 0 0 -2.96889,-0.65846 7.2388978,7.4245104 0.09275607 0 0 -7.250833,7.41304 7.2388978,7.4245104 0.09275607 0 0 7.227103,7.43593 7.2388978,7.4245104 0.09275607 0 0 2.9709,-0.64846 l -0.01,6.18785 c -0.002,1.14989 0.92207,2.07742 2.07196,2.07928 l 6.87567,0.0111 a 7.2388975,7.4245101 0.09275607 0 1 -0.96353,-3.71392 7.2388975,7.4245101 0.09275607 0 1 7.25084,-7.41306 7.2388975,7.4245101 0.09275607 0 1 7.22657,7.43645 7.2388975,7.4245101 0.09275607 0 1 -0.97643,3.71056 l 5.39151,0.009 c 1.14989,0.002 2.0769,-0.92259 2.07876,-2.07249 l 0.0407,-25.36119 c 0.002,-1.14988 -0.92208,-2.0769 -2.07196,-2.07876 z" />
    <path
       id="path865"
       style="opacity:0.976645;mix-blend-mode:normal;fill:url(#linearGradient1007);fill-opacity:1;stroke-width:0.529167;stroke-linecap:square;paint-order:stroke fill markers"
       d="m 94.115272,181.19063 -6.876066,0.0429 a 7.4245101,7.2388975 89.642294 0 1 0.993219,3.70623 7.4245101,7.2388975 89.642294 0 1 -7.192324,7.46931 7.4245101,7.2388975 89.642294 0 1 -7.284826,-7.37888 7.4245101,7.2388975 89.642294 0 1 0.947229,-3.71863 l -5.391403,0.0336 c -1.14987,0.007 -2.069585,0.93889 -2.062406,2.08876 l 0.158646,25.36072 c 0.0072,1.14987 0.938375,2.06959 2.088246,2.06241 l 24.804168,-0.15451 c 1.149871,-0.007 2.069587,-0.93838 2.062409,-2.08825 l -0.03514,-5.63169 a 7.4245104,7.2388978 89.642294 0 0 2.973464,0.6351 7.4245104,7.2388978 89.642294 0 0 7.192832,-7.46931 7.4245104,7.2388978 89.642294 0 0 -7.285333,-7.3794 7.4245104,7.2388978 89.642294 0 0 -2.965712,0.67231 l -0.03876,-6.18773 c -0.0072,-1.14987 -0.938377,-2.07011 -2.088245,-2.06293 z" />
  </g>
</svg>
