<?xml version="1.0" encoding="UTF-8" standalone="no"?>
<svg
   xmlns:dc="http://purl.org/dc/elements/1.1/"
   xmlns:cc="http://creativecommons.org/ns#"
   xmlns:rdf="http://www.w3.org/1999/02/22-rdf-syntax-ns#"
   xmlns:svg="http://www.w3.org/2000/svg"
   xmlns="http://www.w3.org/2000/svg"
   xmlns:sodipodi="http://sodipodi.sourceforge.net/DTD/sodipodi-0.dtd"
   xmlns:inkscape="http://www.inkscape.org/namespaces/inkscape"
   width="48.842987mm"
   height="78.359673mm"
   viewBox="0 0 48.842987 78.359673"
   version="1.1"
   id="svg8"
   inkscape:version="1.0.2-2 (e86c870879, 2021-01-15)"
   sodipodi:docname="kniha.svg">
  <defs
     id="defs2" />
  <sodipodi:namedview
     id="base"
     pagecolor="#ffffff"
     bordercolor="#666666"
     borderopacity="1.0"
     inkscape:pageopacity="0.0"
     inkscape:pageshadow="2"
     inkscape:zoom="2.16"
     inkscape:cx="20.856529"
     inkscape:cy="127.04889"
     inkscape:document-units="mm"
     inkscape:current-layer="layer1"
     inkscape:document-rotation="0"
     showgrid="false"
     inkscape:window-width="1920"
     inkscape:window-height="1001"
     inkscape:window-x="-9"
     inkscape:window-y="-9"
     inkscape:window-maximized="1" />
  <metadata
     id="metadata5">
    <rdf:RDF>
      <cc:Work
         rdf:about="">
        <dc:format>image/svg+xml</dc:format>
        <dc:type
           rdf:resource="http://purl.org/dc/dcmitype/StillImage" />
        <dc:title></dc:title>
      </cc:Work>
    </rdf:RDF>
  </metadata>
  <g
     inkscape:label="Vrstva 1"
     inkscape:groupmode="layer"
     id="layer1"
     transform="translate(-76.518772,-47.220261)">
    <path
       id="rect833"
       style="opacity:0.976645;fill:#000000;stroke-width:0.525866;stroke-linecap:square;paint-order:stroke fill markers"
       d="m 79.493615,60.351354 c -1.533711,0 -2.768582,1.249905 -2.768582,2.80293 V 122.777 c 0,1.55303 1.234871,2.80293 2.768582,2.80293 h 43.100075 c 1.5337,0 2.76807,-1.2499 2.76807,-2.80293 V 63.154284 c 0,-1.553025 -1.23437,-2.80293 -2.76807,-2.80293 z m 2.329181,2.405021 h 0.23935 38.594294 0.0597 c 1.53994,0 2.77981,1.25549 2.77981,2.814814 v 54.964091 c 0,1.55932 -1.23987,2.8143 -2.77981,2.81429 H 82.062146 c -1.452489,0 -2.63711,-1.11697 -2.767054,-2.55229 -0.01784,-0.12391 -0.0296,-0.24972 -0.0296,-0.37879 V 65.345365 c 0,-1.434521 1.14062,-2.58899 2.557303,-2.58899 z" />
    <path
       id="path838"
       style="opacity:0.976645;fill:#000000;stroke-width:1.82461;stroke-linecap:square;paint-order:stroke fill markers"
       d="m 439.47266,178.4707 c -0.84037,-0.009 -1.7343,0.14088 -2.66016,0.4668 l -138.76367,48.8457 c -4.93794,1.73818 -8.88155,7.7997 -8.84375,13.59375 l 1.48047,222.42383 c 0.0385,5.79364 4.04449,9.05509 8.98242,7.31836 l 10.0625,-3.54297 c -5.47794,-0.15174 -9.91118,-4.33608 -10.43164,-9.71094 -1.08405,-1.25347 -1.7409,-3.06777 -1.75586,-5.29687 l -1.36719,-205.45313 c -0.0356,-5.35153 3.60682,-10.95115 8.16797,-12.55664 l 125.0293,-44.00976 c 4.56113,-1.60556 8.26103,1.40844 8.29883,6.75976 l 0.25585,38.49219 h 8.19922 l -0.33007,-49.54492 c -0.0313,-4.7073 -2.68262,-7.74413 -6.32422,-7.78516 z"
       transform="scale(0.26458333)" />
  </g>
  <g
     inkscape:groupmode="layer"
     id="layer2"
     inkscape:label="Vrstva 2"
     transform="translate(-76.518772,-47.220261)" />
</svg>
