<?xml version="1.0" encoding="UTF-8" standalone="no"?>
<svg
   xmlns:dc="http://purl.org/dc/elements/1.1/"
   xmlns:cc="http://creativecommons.org/ns#"
   xmlns:rdf="http://www.w3.org/1999/02/22-rdf-syntax-ns#"
   xmlns:svg="http://www.w3.org/2000/svg"
   xmlns="http://www.w3.org/2000/svg"
   xmlns:sodipodi="http://sodipodi.sourceforge.net/DTD/sodipodi-0.dtd"
   xmlns:inkscape="http://www.inkscape.org/namespaces/inkscape"
   width="24.127497mm"
   height="31.951593mm"
   viewBox="0 0 24.127497 31.951593"
   version="1.1"
   id="svg8"
   inkscape:version="1.0.2-2 (e86c870879, 2021-01-15)"
   sodipodi:docname="purple.svg">
  <defs
     id="defs2" />
  <sodipodi:namedview
     id="base"
     pagecolor="#ffffff"
     bordercolor="#666666"
     borderopacity="1.0"
     inkscape:pageopacity="0.0"
     inkscape:pageshadow="2"
     inkscape:zoom="1.4272577"
     inkscape:cx="291.86783"
     inkscape:cy="14.071754"
     inkscape:document-units="mm"
     inkscape:current-layer="layer1"
     inkscape:document-rotation="0"
     showgrid="false"
     inkscape:window-width="1920"
     inkscape:window-height="1001"
     inkscape:window-x="-9"
     inkscape:window-y="-9"
     inkscape:window-maximized="1" />
  <metadata
     id="metadata5">
    <rdf:RDF>
      <cc:Work
         rdf:about="">
        <dc:format>image/svg+xml</dc:format>
        <dc:type
           rdf:resource="http://purl.org/dc/dcmitype/StillImage" />
        <dc:title></dc:title>
      </cc:Work>
    </rdf:RDF>
  </metadata>
  <g
     inkscape:label="Vrstva 1"
     inkscape:groupmode="layer"
     id="layer1"
     transform="translate(-21.559536,-160.99829)">
    <g
       id="g1713"
       transform="translate(2.7806821,-3.5221974)">
      <g
         inkscape:label="Vrstva 1"
         id="g1364"
         transform="matrix(0.83567154,0,0,0.86381212,63.372437,43.774713)">
        <g
           id="g1316"
           transform="matrix(0.55728811,0,0,0.49839418,3.5279271,78.454624)" />
        <g
           id="g1362"
           transform="matrix(0.55728811,0,0,0.49839418,-33.84594,73.008482)">
          <g
             id="g1451"
             transform="matrix(0.53683553,-0.91265043,0.77993459,0.53683552,-195.64874,165.66605)">
            <path
               style="fill:none;stroke:#000000;stroke-width:2.15513;stroke-linecap:butt;stroke-linejoin:miter;stroke-miterlimit:4;stroke-dasharray:none;stroke-opacity:1"
               d="m 96.169177,172.79819 21.045133,2.12477 7.15534,-9.71323 v 0"
               id="path1447"
               sodipodi:nodetypes="cccc" />
            <path
               id="ellipse1449"
               style="opacity:0.976645;fill:#000000;fill-opacity:1;stroke:none;stroke-width:2.15846;stroke-linecap:square;stroke-miterlimit:4;stroke-dasharray:none;paint-order:stroke fill markers"
               inkscape:transform-center-x="2.8101194"
               inkscape:transform-center-y="-5.1759923"
               transform="matrix(0.6906018,0.7232352,-0.66688887,0.74515719,0,0)"
               d="m 206.53586,21.871124 a 2.9922175,4.3899899 0 0 1 -2.99222,4.38999 2.9922175,4.3899899 0 0 1 -2.99222,-4.38999 2.9922175,4.3899899 0 0 1 2.99222,-4.38999 2.9922175,4.3899899 0 0 1 2.99222,4.38999 z" />
          </g>
          <g
             id="g1445"
             transform="matrix(-0.24012293,-1.0500916,-0.89738933,0.24012293,158.70894,232.96497)">
            <path
               style="fill:none;stroke:#000000;stroke-width:2.15513;stroke-linecap:butt;stroke-linejoin:miter;stroke-miterlimit:4;stroke-dasharray:none;stroke-opacity:1"
               d="m 96.169177,172.79819 21.045133,2.12477 7.15534,-9.71323 v 0"
               id="path1439"
               sodipodi:nodetypes="cccc" />
            <path
               id="path1441"
               style="opacity:0.976645;fill:#000000;fill-opacity:1;stroke:none;stroke-width:2.15846;stroke-linecap:square;stroke-miterlimit:4;stroke-dasharray:none;paint-order:stroke fill markers"
               inkscape:transform-center-x="2.8101194"
               inkscape:transform-center-y="-5.1759923"
               transform="matrix(0.6906018,0.7232352,-0.66688887,0.74515719,0,0)"
               d="m 206.53586,21.871124 a 2.9922175,4.3899899 0 0 1 -2.99222,4.38999 2.9922175,4.3899899 0 0 1 -2.99222,-4.38999 2.9922175,4.3899899 0 0 1 2.99222,-4.38999 2.9922175,4.3899899 0 0 1 2.99222,4.38999 z" />
          </g>
          <path
             id="ellipse1318"
             style="opacity:0.976645;fill:#000000;fill-opacity:0.996078;stroke-width:0.626186;stroke-linecap:square;paint-order:stroke fill markers"
             transform="scale(1,-1)"
             d="m 16.787284,-182.03094 a 25.904003,26.163754 0 0 1 -25.9040032,26.16375 25.904003,26.163754 0 0 1 -25.9040028,-26.16375 25.904003,26.163754 0 0 1 25.9040028,-26.16376 25.904003,26.163754 0 0 1 25.9040032,26.16376 z" />
          <path
             id="ellipse1320"
             style="opacity:0.976645;fill:#cc00ff;fill-opacity:1;stroke-width:0.571637;stroke-linecap:square;paint-order:stroke fill markers"
             transform="scale(1,-1)"
             d="m 14.402717,-182.07185 a 23.618954,23.913347 0 0 1 -23.6189541,23.91334 23.618954,23.913347 0 0 1 -23.6189539,-23.91334 23.618954,23.913347 0 0 1 23.6189539,-23.91335 23.618954,23.913347 0 0 1 23.6189541,23.91335 z" />
          <g
             id="g1336"
             transform="matrix(0.81069173,0.65051364,0.58012666,-0.84599623,-86.741309,249.53648)">
            <path
               id="ellipse1324"
               style="opacity:0.976645;fill:#000000;fill-opacity:0.992157;stroke:none;stroke-width:0.524995;stroke-linecap:square;stroke-linejoin:miter;stroke-miterlimit:4;stroke-dasharray:none;stroke-opacity:1;paint-order:markers fill stroke"
               d="m 36.248775,110.23035 a 7.9897666,7.7617302 0 0 1 -7.989767,7.76173 7.9897666,7.7617302 0 0 1 -7.989766,-7.76173 7.9897666,7.7617302 0 0 1 7.989766,-7.76173 7.9897666,7.7617302 0 0 1 7.989767,7.76173 z" />
            <path
               id="path1326"
               style="opacity:0.976645;fill:#cccccc;fill-opacity:0.992157;stroke:none;stroke-width:0;stroke-linecap:square;stroke-linejoin:miter;stroke-miterlimit:4;stroke-dasharray:none;stroke-opacity:1;paint-order:stroke fill markers"
               d="m 23.711241,104.72021 a 7.2776169,7.1427299 0 0 0 -2.69227,5.54666 7.2776169,7.1427299 0 0 0 7.27747,7.1425 7.2776169,7.1427299 0 0 0 5.85963,-2.90663 7.2776169,7.1427299 0 0 1 -0.054,0.0425 7.2776169,7.1427299 0 0 1 -0.0669,0.0516 7.2776169,7.1427299 0 0 1 -0.0674,0.0508 7.2776169,7.1427299 0 0 1 -0.068,0.05 7.2776169,7.1427299 0 0 1 -0.0685,0.0492 7.2776169,7.1427299 0 0 1 -0.0691,0.0484 7.2776169,7.1427299 0 0 1 -0.0699,0.0476 7.2776169,7.1427299 0 0 1 -0.0702,0.0468 7.2776169,7.1427299 0 0 1 -0.0707,0.046 7.2776169,7.1427299 0 0 1 -0.0716,0.0452 7.2776169,7.1427299 0 0 1 -0.0718,0.0444 7.2776169,7.1427299 0 0 1 -0.0724,0.0436 7.2776169,7.1427299 0 0 1 -0.073,0.0425 7.2776169,7.1427299 0 0 1 -0.0735,0.042 7.2776169,7.1427299 0 0 1 -0.0738,0.0409 7.2776169,7.1427299 0 0 1 -0.0746,0.0404 7.2776169,7.1427299 0 0 1 -0.0749,0.0393 7.2776169,7.1427299 0 0 1 -0.0754,0.0382 7.2776169,7.1427299 0 0 1 -0.0757,0.0377 7.2776169,7.1427299 0 0 1 -0.0762,0.0366 7.2776169,7.1427299 0 0 1 -0.0768,0.0358 7.2776169,7.1427299 0 0 1 -0.0771,0.035 7.2776169,7.1427299 0 0 1 -0.0776,0.0342 7.2776169,7.1427299 0 0 1 -0.0779,0.0332 7.2776169,7.1427299 0 0 1 -0.0782,0.0324 7.2776169,7.1427299 0 0 1 -0.0787,0.0313 7.2776169,7.1427299 0 0 1 -0.079,0.0305 7.2776169,7.1427299 0 0 1 -0.0796,0.0297 7.2776169,7.1427299 0 0 1 -0.0798,0.0286 7.2776169,7.1427299 0 0 1 -0.0801,0.0278 7.2776169,7.1427299 0 0 1 -0.0804,0.0267 7.2776169,7.1427299 0 0 1 -0.0807,0.0259 7.2776169,7.1427299 0 0 1 -0.0809,0.0249 7.2776169,7.1427299 0 0 1 -0.0815,0.0241 7.2776169,7.1427299 0 0 1 -0.0815,0.0233 7.2776169,7.1427299 0 0 1 -0.082,0.0222 7.2776169,7.1427299 0 0 1 -0.082,0.0211 7.2776169,7.1427299 0 0 1 -0.0823,0.0203 7.2776169,7.1427299 0 0 1 -0.0829,0.0195 7.2776169,7.1427299 0 0 1 -0.0828,0.0185 7.2776169,7.1427299 0 0 1 -0.0829,0.0174 7.2776169,7.1427299 0 0 1 -0.0834,0.0166 7.2776169,7.1427299 0 0 1 -0.0834,0.0155 7.2776169,7.1427299 0 0 1 -0.0837,0.0144 7.2776169,7.1427299 0 0 1 -0.0837,0.0136 7.2776169,7.1427299 0 0 1 -0.084,0.0128 7.2776169,7.1427299 0 0 1 -0.0842,0.0118 7.2776169,7.1427299 0 0 1 -0.0842,0.0107 7.2776169,7.1427299 0 0 1 -0.0842,0.01 7.2776169,7.1427299 0 0 1 -0.0845,0.009 7.2776169,7.1427299 0 0 1 -0.0845,0.008 7.2776169,7.1427299 0 0 1 -0.0848,0.007 7.2776169,7.1427299 0 0 1 -0.0848,0.006 7.2776169,7.1427299 0 0 1 -0.0848,0.005 7.2776169,7.1427299 0 0 1 -0.0848,0.004 7.2776169,7.1427299 0 0 1 -0.0848,0.003 7.2776169,7.1427299 0 0 1 -0.085,0.002 7.2776169,7.1427299 0 0 1 -0.0848,10e-4 7.2776169,7.1427299 0 0 1 -0.0495,0 7.2776169,7.1427299 0 0 1 -0.0851,-5.4e-4 7.2776169,7.1427299 0 0 1 -0.0848,-10e-4 7.2776169,7.1427299 0 0 1 -0.085,-0.002 7.2776169,7.1427299 0 0 1 -0.0848,-0.003 7.2776169,7.1427299 0 0 1 -0.0848,-0.004 7.2776169,7.1427299 0 0 1 -0.0848,-0.005 7.2776169,7.1427299 0 0 1 -0.0848,-0.006 7.2776169,7.1427299 0 0 1 -0.0845,-0.007 7.2776169,7.1427299 0 0 1 -0.0845,-0.008 7.2776169,7.1427299 0 0 1 -0.0845,-0.009 7.2776169,7.1427299 0 0 1 -0.0842,-0.0104 7.2776169,7.1427299 0 0 1 -0.0842,-0.011 7.2776169,7.1427299 0 0 1 -0.084,-0.0123 7.2776169,7.1427299 0 0 1 -0.084,-0.0131 7.2776169,7.1427299 0 0 1 -0.0837,-0.0139 7.2776169,7.1427299 0 0 1 -0.0837,-0.015 7.2776169,7.1427299 0 0 1 -0.0834,-0.0161 7.2776169,7.1427299 0 0 1 -0.0831,-0.0168 7.2776169,7.1427299 0 0 1 -0.0829,-0.0179 7.2776169,7.1427299 0 0 1 -0.0829,-0.0187 7.2776169,7.1427299 0 0 1 -0.0826,-0.0198 7.2776169,7.1427299 0 0 1 -0.0823,-0.0206 7.2776169,7.1427299 0 0 1 -0.082,-0.0217 7.2776169,7.1427299 0 0 1 -0.0817,-0.0227 7.2776169,7.1427299 0 0 1 -0.0815,-0.0235 7.2776169,7.1427299 0 0 1 -0.0812,-0.0243 7.2776169,7.1427299 0 0 1 -0.0809,-0.0254 7.2776169,7.1427299 0 0 1 -0.0807,-0.0262 7.2776169,7.1427299 0 0 1 -0.0801,-0.0273 7.2776169,7.1427299 0 0 1 -0.0801,-0.0283 7.2776169,7.1427299 0 0 1 -0.0795,-0.0289 7.2776169,7.1427299 0 0 1 -0.0793,-0.03 7.2776169,7.1427299 0 0 1 -0.079,-0.031 7.2776169,7.1427299 0 0 1 -0.0785,-0.0318 7.2776169,7.1427299 0 0 1 -0.0782,-0.0326 7.2776169,7.1427299 0 0 1 -0.0776,-0.0334 7.2776169,7.1427299 0 0 1 -0.0774,-0.0345 7.2776169,7.1427299 0 0 1 -0.0771,-0.0353 7.2776169,7.1427299 0 0 1 -0.0765,-0.0364 7.2776169,7.1427299 0 0 1 -0.076,-0.0369 7.2776169,7.1427299 0 0 1 -0.0757,-0.038 7.2776169,7.1427299 0 0 1 -0.0751,-0.0388 7.2776169,7.1427299 0 0 1 -0.0746,-0.0398 7.2776169,7.1427299 0 0 1 -0.0743,-0.0404 7.2776169,7.1427299 0 0 1 -0.0738,-0.0414 7.2776169,7.1427299 0 0 1 -0.0732,-0.0422 7.2776169,7.1427299 0 0 1 -0.0727,-0.043 7.2776169,7.1427299 0 0 1 -0.0724,-0.0439 7.2776169,7.1427299 0 0 1 -0.0716,-0.0447 7.2776169,7.1427299 0 0 1 -0.0713,-0.0457 7.2776169,7.1427299 0 0 1 -0.0705,-0.0463 7.2776169,7.1427299 0 0 1 -0.0702,-0.0471 7.2776169,7.1427299 0 0 1 -0.0694,-0.0481 7.2776169,7.1427299 0 0 1 -0.0691,-0.0487 7.2776169,7.1427299 0 0 1 -0.0683,-0.0495 7.2776169,7.1427299 0 0 1 -0.0677,-0.0503 7.2776169,7.1427299 0 0 1 -0.0672,-0.0511 7.2776169,7.1427299 0 0 1 -0.0663,-0.0519 7.2776169,7.1427299 0 0 1 -0.0661,-0.0527 7.2776169,7.1427299 0 0 1 -0.0652,-0.0532 7.2776169,7.1427299 0 0 1 -0.0647,-0.0543 7.2776169,7.1427299 0 0 1 -0.0639,-0.0548 7.2776169,7.1427299 0 0 1 -0.0633,-0.0556 7.2776169,7.1427299 0 0 1 -0.0628,-0.0562 7.2776169,7.1427299 0 0 1 -0.0619,-0.057 7.2776169,7.1427299 0 0 1 -0.0614,-0.0577 7.2776169,7.1427299 0 0 1 -0.0606,-0.0583 7.2776169,7.1427299 0 0 1 -0.06,-0.0591 7.2776169,7.1427299 0 0 1 -0.0592,-0.0599 7.2776169,7.1427299 0 0 1 -0.0584,-0.0604 7.2776169,7.1427299 0 0 1 -0.0578,-0.0612 7.2776169,7.1427299 0 0 1 -0.057,-0.0618 7.2776169,7.1427299 0 0 1 -0.0564,-0.0623 7.2776169,7.1427299 0 0 1 -0.0556,-0.0631 7.2776169,7.1427299 0 0 1 -0.0548,-0.0636 7.2776169,7.1427299 0 0 1 -0.054,-0.0644 7.2776169,7.1427299 0 0 1 -0.0534,-0.0647 7.2776169,7.1427299 0 0 1 -0.0526,-0.0655 7.2776169,7.1427299 0 0 1 -0.0515,-0.0663 7.2776169,7.1427299 0 0 1 -0.0509,-0.0666 7.2776169,7.1427299 0 0 1 -0.0501,-0.0674 7.2776169,7.1427299 0 0 1 -0.0495,-0.0679 7.2776169,7.1427299 0 0 1 -0.0484,-0.0685 7.2776169,7.1427299 0 0 1 -0.0476,-0.069 7.2776169,7.1427299 0 0 1 -0.0468,-0.0695 7.2776169,7.1427299 0 0 1 -0.0463,-0.0701 7.2776169,7.1427299 0 0 1 -0.0451,-0.0706 7.2776169,7.1427299 0 0 1 -0.0443,-0.0711 7.2776169,7.1427299 0 0 1 -0.0435,-0.0714 7.2776169,7.1427299 0 0 1 -0.0427,-0.0722 7.2776169,7.1427299 0 0 1 -0.0418,-0.0725 7.2776169,7.1427299 0 0 1 -0.041,-0.073 7.2776169,7.1427299 0 0 1 -0.0399,-0.0735 7.2776169,7.1427299 0 0 1 -0.0394,-0.0741 7.2776169,7.1427299 0 0 1 -0.0383,-0.0743 7.2776169,7.1427299 0 0 1 -0.0374,-0.0749 7.2776169,7.1427299 0 0 1 -0.0366,-0.0754 7.2776169,7.1427299 0 0 1 -0.0355,-0.0757 7.2776169,7.1427299 0 0 1 -0.0347,-0.0759 7.2776169,7.1427299 0 0 1 -0.0339,-0.0765 7.2776169,7.1427299 0 0 1 -0.033,-0.077 7.2776169,7.1427299 0 0 1 -0.0319,-0.077 7.2776169,7.1427299 0 0 1 -0.0311,-0.0778 7.2776169,7.1427299 0 0 1 -0.03,-0.0778 7.2776169,7.1427299 0 0 1 -0.0292,-0.0784 7.2776169,7.1427299 0 0 1 -0.0284,-0.0786 7.2776169,7.1427299 0 0 1 -0.0272,-0.0789 7.2776169,7.1427299 0 0 1 -0.0264,-0.0791 7.2776169,7.1427299 0 0 1 -0.0256,-0.0797 7.2776169,7.1427299 0 0 1 -0.0245,-0.0797 7.2776169,7.1427299 0 0 1 -0.0234,-0.0802 7.2776169,7.1427299 0 0 1 -0.0228,-0.0802 7.2776169,7.1427299 0 0 1 -0.0215,-0.0808 7.2776169,7.1427299 0 0 1 -0.0206,-0.0807 7.2776169,7.1427299 0 0 1 -0.0198,-0.081 7.2776169,7.1427299 0 0 1 -0.0187,-0.0813 7.2776169,7.1427299 0 0 1 -0.0179,-0.0816 7.2776169,7.1427299 0 0 1 -0.0168,-0.0818 7.2776169,7.1427299 0 0 1 -0.016,-0.0818 7.2776169,7.1427299 0 0 1 -0.0149,-0.0821 7.2776169,7.1427299 0 0 1 -0.0138,-0.0824 7.2776169,7.1427299 0 0 1 -0.0129,-0.0824 7.2776169,7.1427299 0 0 1 -0.0118,-0.0826 7.2776169,7.1427299 0 0 1 -0.011,-0.0826 7.2776169,7.1427299 0 0 1 -0.01,-0.0826 7.2776169,7.1427299 0 0 1 -0.009,-0.0829 7.2776169,7.1427299 0 0 1 -0.008,-0.0832 7.2776169,7.1427299 0 0 1 -0.007,-0.0829 7.2776169,7.1427299 0 0 1 -0.006,-0.0832 7.2776169,7.1427299 0 0 1 -0.005,-0.0834 7.2776169,7.1427299 0 0 1 -0.004,-0.0832 7.2776169,7.1427299 0 0 1 -0.003,-0.0834 7.2776169,7.1427299 0 0 1 -0.002,-0.0832 7.2776169,7.1427299 0 0 1 -10e-4,-0.0834 7.2776169,7.1427299 0 0 1 -2.8e-4,-0.0487 7.2776169,7.1427299 0 0 1 5.6e-4,-0.0832 7.2776169,7.1427299 0 0 1 0.002,-0.0834 7.2776169,7.1427299 0 0 1 0.002,-0.0834 7.2776169,7.1427299 0 0 1 0.003,-0.0832 7.2776169,7.1427299 0 0 1 0.004,-0.0834 7.2776169,7.1427299 0 0 1 0.006,-0.0832 7.2776169,7.1427299 0 0 1 0.007,-0.0832 7.2776169,7.1427299 0 0 1 0.007,-0.0829 7.2776169,7.1427299 0 0 1 0.008,-0.0829 7.2776169,7.1427299 0 0 1 0.009,-0.0829 7.2776169,7.1427299 0 0 1 0.0105,-0.0829 7.2776169,7.1427299 0 0 1 0.0113,-0.0826 7.2776169,7.1427299 0 0 1 0.0124,-0.0824 7.2776169,7.1427299 0 0 1 0.0135,-0.0824 7.2776169,7.1427299 0 0 1 0.0143,-0.0821 7.2776169,7.1427299 0 0 1 0.0151,-0.0821 7.2776169,7.1427299 0 0 1 0.0162,-0.0818 7.2776169,7.1427299 0 0 1 0.0173,-0.0815 7.2776169,7.1427299 0 0 1 0.0182,-0.0816 7.2776169,7.1427299 0 0 1 0.019,-0.0813 7.2776169,7.1427299 0 0 1 0.0204,-0.0807 7.2776169,7.1427299 0 0 1 0.0209,-0.0808 7.2776169,7.1427299 0 0 1 0.022,-0.0807 7.2776169,7.1427299 0 0 1 0.0231,-0.0802 7.2776169,7.1427299 0 0 1 0.0239,-0.0799 7.2776169,7.1427299 0 0 1 0.0248,-0.0797 7.2776169,7.1427299 0 0 1 0.0259,-0.0794 7.2776169,7.1427299 0 0 1 0.027,-0.0791 7.2776169,7.1427299 0 0 1 0.0278,-0.0786 7.2776169,7.1427299 0 0 1 0.0286,-0.0786 7.2776169,7.1427299 0 0 1 0.0294,-0.0781 7.2776169,7.1427299 0 0 1 0.0306,-0.0778 7.2776169,7.1427299 0 0 1 0.0314,-0.0776 7.2776169,7.1427299 0 0 1 0.0325,-0.077 7.2776169,7.1427299 0 0 1 0.0333,-0.0767 7.2776169,7.1427299 0 0 1 0.0341,-0.0762 7.2776169,7.1427299 0 0 1 0.0352,-0.0759 7.2776169,7.1427299 0 0 1 0.0361,-0.0754 7.2776169,7.1427299 0 0 1 0.0369,-0.0751 7.2776169,7.1427299 0 0 1 0.0377,-0.0746 7.2776169,7.1427299 0 0 1 0.0385,-0.0743 7.2776169,7.1427299 0 0 1 0.0396,-0.0738 7.2776169,7.1427299 0 0 1 0.0405,-0.0733 7.2776169,7.1427299 0 0 1 0.0413,-0.0727 7.2776169,7.1427299 0 0 1 0.0421,-0.0725 7.2776169,7.1427299 0 0 1 0.0429,-0.0719 7.2776169,7.1427299 0 0 1 0.044,-0.0714 7.2776169,7.1427299 0 0 1 0.0446,-0.0709 7.2776169,7.1427299 0 0 1 0.0457,-0.0703 7.2776169,7.1427299 0 0 1 0.0462,-0.0698 7.2776169,7.1427299 0 0 1 0.0473,-0.0693 7.2776169,7.1427299 0 0 1 0.0479,-0.069 7.2776169,7.1427299 0 0 1 0.049,-0.0682 7.2776169,7.1427299 0 0 1 0.0495,-0.0677 7.2776169,7.1427299 0 0 1 0.0198,-0.0259 z" />
            <path
               id="path1328"
               style="opacity:0.976645;fill:#ffffff;fill-opacity:0.992157;stroke:none;stroke-width:0.480657;stroke-linecap:square;stroke-linejoin:miter;stroke-miterlimit:4;stroke-dasharray:none;stroke-opacity:1;paint-order:markers fill stroke"
               d="m 23.711241,104.72021 a 7.2776169,7.1427299 0 0 0 -0.0198,0.0259 7.2776169,7.1427299 0 0 0 -0.0495,0.0677 7.2776169,7.1427299 0 0 0 -0.049,0.0682 7.2776169,7.1427299 0 0 0 -0.0479,0.069 7.2776169,7.1427299 0 0 0 -0.0474,0.0693 7.2776169,7.1427299 0 0 0 -0.0462,0.0698 7.2776169,7.1427299 0 0 0 -0.0457,0.0703 7.2776169,7.1427299 0 0 0 -0.0446,0.0709 7.2776169,7.1427299 0 0 0 -0.044,0.0714 7.2776169,7.1427299 0 0 0 -0.0429,0.0719 7.2776169,7.1427299 0 0 0 -0.0421,0.0725 7.2776169,7.1427299 0 0 0 -0.0413,0.0727 7.2776169,7.1427299 0 0 0 -0.0405,0.0733 7.2776169,7.1427299 0 0 0 -0.0396,0.0738 7.2776169,7.1427299 0 0 0 -0.0385,0.0743 7.2776169,7.1427299 0 0 0 -0.0377,0.0746 7.2776169,7.1427299 0 0 0 -0.0369,0.0751 7.2776169,7.1427299 0 0 0 -0.0361,0.0754 7.2776169,7.1427299 0 0 0 -0.0352,0.0759 7.2776169,7.1427299 0 0 0 -0.0341,0.0762 7.2776169,7.1427299 0 0 0 -0.0333,0.0768 7.2776169,7.1427299 0 0 0 -0.0325,0.077 7.2776169,7.1427299 0 0 0 -0.0314,0.0775 7.2776169,7.1427299 0 0 0 -0.0306,0.0778 7.2776169,7.1427299 0 0 0 -0.0294,0.0781 7.2776169,7.1427299 0 0 0 -0.0286,0.0786 7.2776169,7.1427299 0 0 0 -0.0278,0.0786 7.2776169,7.1427299 0 0 0 -0.027,0.0791 7.2776169,7.1427299 0 0 0 -0.0259,0.0794 7.2776169,7.1427299 0 0 0 -0.0248,0.0797 7.2776169,7.1427299 0 0 0 -0.0239,0.0799 7.2776169,7.1427299 0 0 0 -0.0231,0.0802 7.2776169,7.1427299 0 0 0 -0.022,0.0808 7.2776169,7.1427299 0 0 0 -0.0209,0.0807 7.2776169,7.1427299 0 0 0 -0.0204,0.0808 7.2776169,7.1427299 0 0 0 -0.019,0.0813 7.2776169,7.1427299 0 0 0 -0.0182,0.0815 7.2776169,7.1427299 0 0 0 -0.0173,0.0816 7.2776169,7.1427299 0 0 0 -0.0162,0.0818 7.2776169,7.1427299 0 0 0 -0.0151,0.0821 7.2776169,7.1427299 0 0 0 -0.0143,0.0821 7.2776169,7.1427299 0 0 0 -0.0135,0.0823 7.2776169,7.1427299 0 0 0 -0.0124,0.0824 7.2776169,7.1427299 0 0 0 -0.0113,0.0826 7.2776169,7.1427299 0 0 0 -0.0105,0.0829 7.2776169,7.1427299 0 0 0 -0.009,0.0829 7.2776169,7.1427299 0 0 0 -0.008,0.0829 7.2776169,7.1427299 0 0 0 -0.007,0.0829 7.2776169,7.1427299 0 0 0 -0.007,0.0832 7.2776169,7.1427299 0 0 0 -0.006,0.0832 7.2776169,7.1427299 0 0 0 -0.004,0.0834 7.2776169,7.1427299 0 0 0 -0.003,0.0832 7.2776169,7.1427299 0 0 0 -0.002,0.0834 7.2776169,7.1427299 0 0 0 -0.002,0.0834 7.2776169,7.1427299 0 0 0 -5.6e-4,0.0832 7.2776169,7.1427299 0 0 0 2.8e-4,0.0487 7.2776169,7.1427299 0 0 0 10e-4,0.0834 7.2776169,7.1427299 0 0 0 0.002,0.0832 7.2776169,7.1427299 0 0 0 0.003,0.0834 7.2776169,7.1427299 0 0 0 0.004,0.0832 7.2776169,7.1427299 0 0 0 0.005,0.0834 7.2776169,7.1427299 0 0 0 0.006,0.0832 7.2776169,7.1427299 0 0 0 0.007,0.0829 7.2776169,7.1427299 0 0 0 0.008,0.0832 7.2776169,7.1427299 0 0 0 0.009,0.0829 7.2776169,7.1427299 0 0 0 0.01,0.0826 7.2776169,7.1427299 0 0 0 0.011,0.0826 7.2776169,7.1427299 0 0 0 0.0118,0.0826 7.2776169,7.1427299 0 0 0 0.0129,0.0824 7.2776169,7.1427299 0 0 0 0.0138,0.0824 7.2776169,7.1427299 0 0 0 0.0149,0.0821 7.2776169,7.1427299 0 0 0 0.016,0.0818 7.2776169,7.1427299 0 0 0 0.0168,0.0818 7.2776169,7.1427299 0 0 0 0.0179,0.0816 7.2776169,7.1427299 0 0 0 0.0187,0.0813 7.2776169,7.1427299 0 0 0 0.0198,0.081 7.2776169,7.1427299 0 0 0 0.0207,0.0808 7.2776169,7.1427299 0 0 0 0.0215,0.0807 7.2776169,7.1427299 0 0 0 0.0228,0.0802 7.2776169,7.1427299 0 0 0 0.0234,0.0802 7.2776169,7.1427299 0 0 0 0.0245,0.0797 7.2776169,7.1427299 0 0 0 0.0256,0.0797 7.2776169,7.1427299 0 0 0 0.0264,0.0791 7.2776169,7.1427299 0 0 0 0.0273,0.0789 7.2776169,7.1427299 0 0 0 0.0284,0.0786 7.2776169,7.1427299 0 0 0 0.0292,0.0784 7.2776169,7.1427299 0 0 0 0.03,0.0778 7.2776169,7.1427299 0 0 0 0.0311,0.0778 7.2776169,7.1427299 0 0 0 0.0319,0.077 7.2776169,7.1427299 0 0 0 0.033,0.077 7.2776169,7.1427299 0 0 0 0.0339,0.0765 7.2776169,7.1427299 0 0 0 0.0347,0.0759 7.2776169,7.1427299 0 0 0 0.0355,0.0757 7.2776169,7.1427299 0 0 0 0.0366,0.0754 7.2776169,7.1427299 0 0 0 0.0374,0.0749 7.2776169,7.1427299 0 0 0 0.0383,0.0743 7.2776169,7.1427299 0 0 0 0.0394,0.0741 7.2776169,7.1427299 0 0 0 0.0399,0.0735 7.2776169,7.1427299 0 0 0 0.041,0.073 7.2776169,7.1427299 0 0 0 0.0418,0.0725 7.2776169,7.1427299 0 0 0 0.0427,0.0722 7.2776169,7.1427299 0 0 0 0.0435,0.0714 7.2776169,7.1427299 0 0 0 0.0443,0.0711 7.2776169,7.1427299 0 0 0 0.0452,0.0706 7.2776169,7.1427299 0 0 0 0.0462,0.0701 7.2776169,7.1427299 0 0 0 0.0468,0.0695 7.2776169,7.1427299 0 0 0 0.0476,0.069 7.2776169,7.1427299 0 0 0 0.0485,0.0684 7.2776169,7.1427299 0 0 0 0.0495,0.0679 7.2776169,7.1427299 0 0 0 0.0501,0.0674 7.2776169,7.1427299 0 0 0 0.0509,0.0666 7.2776169,7.1427299 0 0 0 0.0515,0.0663 7.2776169,7.1427299 0 0 0 0.0526,0.0655 7.2776169,7.1427299 0 0 0 0.0534,0.0647 7.2776169,7.1427299 0 0 0 0.054,0.0644 7.2776169,7.1427299 0 0 0 0.0548,0.0636 7.2776169,7.1427299 0 0 0 0.0556,0.0631 7.2776169,7.1427299 0 0 0 0.0564,0.0623 7.2776169,7.1427299 0 0 0 0.057,0.0618 7.2776169,7.1427299 0 0 0 0.0578,0.0612 7.2776169,7.1427299 0 0 0 0.0584,0.0604 7.2776169,7.1427299 0 0 0 0.0592,0.0599 7.2776169,7.1427299 0 0 0 0.06,0.0591 7.2776169,7.1427299 0 0 0 0.0606,0.0583 7.2776169,7.1427299 0 0 0 0.0614,0.0578 7.2776169,7.1427299 0 0 0 0.0619,0.057 7.2776169,7.1427299 0 0 0 0.0628,0.0562 7.2776169,7.1427299 0 0 0 0.0633,0.0556 7.2776169,7.1427299 0 0 0 0.0639,0.0548 7.2776169,7.1427299 0 0 0 0.0647,0.0543 7.2776169,7.1427299 0 0 0 0.0652,0.0532 7.2776169,7.1427299 0 0 0 0.0661,0.0527 7.2776169,7.1427299 0 0 0 0.0663,0.0519 7.2776169,7.1427299 0 0 0 0.0672,0.0511 7.2776169,7.1427299 0 0 0 0.0677,0.0503 7.2776169,7.1427299 0 0 0 0.0683,0.0495 7.2776169,7.1427299 0 0 0 0.0691,0.0487 7.2776169,7.1427299 0 0 0 0.0694,0.0481 7.2776169,7.1427299 0 0 0 0.0702,0.0471 7.2776169,7.1427299 0 0 0 0.0705,0.0463 7.2776169,7.1427299 0 0 0 0.0713,0.0457 7.2776169,7.1427299 0 0 0 0.0716,0.0447 7.2776169,7.1427299 0 0 0 0.0724,0.0439 7.2776169,7.1427299 0 0 0 0.0727,0.043 7.2776169,7.1427299 0 0 0 0.0732,0.0422 7.2776169,7.1427299 0 0 0 0.0738,0.0414 7.2776169,7.1427299 0 0 0 0.0743,0.0404 7.2776169,7.1427299 0 0 0 0.0746,0.0398 7.2776169,7.1427299 0 0 0 0.0751,0.0388 7.2776169,7.1427299 0 0 0 0.0757,0.038 7.2776169,7.1427299 0 0 0 0.076,0.0369 7.2776169,7.1427299 0 0 0 0.0765,0.0364 7.2776169,7.1427299 0 0 0 0.0771,0.0353 7.2776169,7.1427299 0 0 0 0.0773,0.0345 7.2776169,7.1427299 0 0 0 0.0776,0.0334 7.2776169,7.1427299 0 0 0 0.0782,0.0326 7.2776169,7.1427299 0 0 0 0.0785,0.0318 7.2776169,7.1427299 0 0 0 0.079,0.031 7.2776169,7.1427299 0 0 0 0.0793,0.0299 7.2776169,7.1427299 0 0 0 0.0795,0.0289 7.2776169,7.1427299 0 0 0 0.0801,0.0284 7.2776169,7.1427299 0 0 0 0.0801,0.0273 7.2776169,7.1427299 0 0 0 0.0807,0.0262 7.2776169,7.1427299 0 0 0 0.0809,0.0254 7.2776169,7.1427299 0 0 0 0.0812,0.0243 7.2776169,7.1427299 0 0 0 0.0815,0.0235 7.2776169,7.1427299 0 0 0 0.0817,0.0227 7.2776169,7.1427299 0 0 0 0.082,0.0217 7.2776169,7.1427299 0 0 0 0.0823,0.0206 7.2776169,7.1427299 0 0 0 0.0826,0.0198 7.2776169,7.1427299 0 0 0 0.0829,0.0187 7.2776169,7.1427299 0 0 0 0.0829,0.0179 7.2776169,7.1427299 0 0 0 0.0831,0.0169 7.2776169,7.1427299 0 0 0 0.0834,0.016 7.2776169,7.1427299 0 0 0 0.0837,0.015 7.2776169,7.1427299 0 0 0 0.0837,0.0139 7.2776169,7.1427299 0 0 0 0.084,0.0131 7.2776169,7.1427299 0 0 0 0.084,0.0123 7.2776169,7.1427299 0 0 0 0.0842,0.011 7.2776169,7.1427299 0 0 0 0.0842,0.0104 7.2776169,7.1427299 0 0 0 0.0845,0.009 7.2776169,7.1427299 0 0 0 0.0845,0.008 7.2776169,7.1427299 0 0 0 0.0845,0.007 7.2776169,7.1427299 0 0 0 0.0848,0.006 7.2776169,7.1427299 0 0 0 0.0848,0.005 7.2776169,7.1427299 0 0 0 0.0848,0.004 7.2776169,7.1427299 0 0 0 0.0848,0.003 7.2776169,7.1427299 0 0 0 0.085,0.002 7.2776169,7.1427299 0 0 0 0.0848,10e-4 7.2776169,7.1427299 0 0 0 0.085,5.5e-4 7.2776169,7.1427299 0 0 0 0.0495,0 7.2776169,7.1427299 0 0 0 0.0848,-0.001 7.2776169,7.1427299 0 0 0 0.085,-0.002 7.2776169,7.1427299 0 0 0 0.0848,-0.003 7.2776169,7.1427299 0 0 0 0.0848,-0.004 7.2776169,7.1427299 0 0 0 0.0848,-0.005 7.2776169,7.1427299 0 0 0 0.0848,-0.006 7.2776169,7.1427299 0 0 0 0.0848,-0.007 7.2776169,7.1427299 0 0 0 0.0845,-0.008 7.2776169,7.1427299 0 0 0 0.0845,-0.009 7.2776169,7.1427299 0 0 0 0.0842,-0.01 7.2776169,7.1427299 0 0 0 0.0842,-0.0107 7.2776169,7.1427299 0 0 0 0.0842,-0.0118 7.2776169,7.1427299 0 0 0 0.084,-0.0128 7.2776169,7.1427299 0 0 0 0.0837,-0.0136 7.2776169,7.1427299 0 0 0 0.0837,-0.0144 7.2776169,7.1427299 0 0 0 0.0834,-0.0155 7.2776169,7.1427299 0 0 0 0.0834,-0.0166 7.2776169,7.1427299 0 0 0 0.0828,-0.0174 7.2776169,7.1427299 0 0 0 0.0829,-0.0184 7.2776169,7.1427299 0 0 0 0.0828,-0.0195 7.2776169,7.1427299 0 0 0 0.0823,-0.0203 7.2776169,7.1427299 0 0 0 0.082,-0.0211 7.2776169,7.1427299 0 0 0 0.082,-0.0222 7.2776169,7.1427299 0 0 0 0.0815,-0.0233 7.2776169,7.1427299 0 0 0 0.0815,-0.0241 7.2776169,7.1427299 0 0 0 0.0809,-0.0249 7.2776169,7.1427299 0 0 0 0.0806,-0.0259 7.2776169,7.1427299 0 0 0 0.0804,-0.0267 7.2776169,7.1427299 0 0 0 0.0801,-0.0278 7.2776169,7.1427299 0 0 0 0.0798,-0.0286 7.2776169,7.1427299 0 0 0 0.0795,-0.0297 7.2776169,7.1427299 0 0 0 0.079,-0.0305 7.2776169,7.1427299 0 0 0 0.0787,-0.0313 7.2776169,7.1427299 0 0 0 0.0782,-0.0323 7.2776169,7.1427299 0 0 0 0.0779,-0.0332 7.2776169,7.1427299 0 0 0 0.0776,-0.0342 7.2776169,7.1427299 0 0 0 0.0771,-0.035 7.2776169,7.1427299 0 0 0 0.0768,-0.0358 7.2776169,7.1427299 0 0 0 0.0763,-0.0366 7.2776169,7.1427299 0 0 0 0.0757,-0.0377 7.2776169,7.1427299 0 0 0 0.0754,-0.0382 7.2776169,7.1427299 0 0 0 0.0749,-0.0393 7.2776169,7.1427299 0 0 0 0.0746,-0.0404 7.2776169,7.1427299 0 0 0 0.0738,-0.0409 7.2776169,7.1427299 0 0 0 0.0735,-0.042 7.2776169,7.1427299 0 0 0 0.0729,-0.0425 7.2776169,7.1427299 0 0 0 0.0724,-0.0436 7.2776169,7.1427299 0 0 0 0.0718,-0.0444 7.2776169,7.1427299 0 0 0 0.0716,-0.0452 7.2776169,7.1427299 0 0 0 0.0707,-0.046 7.2776169,7.1427299 0 0 0 0.0702,-0.0468 7.2776169,7.1427299 0 0 0 0.0699,-0.0476 7.2776169,7.1427299 0 0 0 0.0691,-0.0484 7.2776169,7.1427299 0 0 0 0.0685,-0.0492 7.2776169,7.1427299 0 0 0 0.068,-0.05 7.2776169,7.1427299 0 0 0 0.0674,-0.0508 7.2776169,7.1427299 0 0 0 0.0669,-0.0516 7.2776169,7.1427299 0 0 0 0.054,-0.0425 7.2776169,7.1427299 0 0 0 1.41812,-4.23587 7.2776169,7.1427299 0 0 0 -7.27775,-7.14276 7.2776169,7.1427299 0 0 0 -4.5852,1.5961 z" />
            <g
               id="g1334"
               transform="matrix(-0.41850843,0.34155539,-0.30879105,-0.40656377,135.91664,139.78775)">
              <path
                 id="ellipse1330"
                 style="opacity:0.976645;fill:#000000;fill-opacity:0.992157;stroke:none;stroke-width:0.265735;stroke-linecap:square;stroke-linejoin:miter;stroke-miterlimit:4;stroke-dasharray:none;stroke-opacity:1;paint-order:markers fill stroke"
                 d="m 132.37366,177.39749 a 4.0929742,3.8818707 0 0 1 -4.09297,3.88187 4.0929742,3.8818707 0 0 1 -4.09298,-3.88187 4.0929742,3.8818707 0 0 1 4.09298,-3.88187 4.0929742,3.8818707 0 0 1 4.09297,3.88187 z" />
              <path
                 id="ellipse1332"
                 style="opacity:0.976645;fill:#ffffff;fill-opacity:0.992157;stroke:none;stroke-width:0.127092;stroke-linecap:square;stroke-linejoin:miter;stroke-miterlimit:4;stroke-dasharray:none;stroke-opacity:1;paint-order:markers fill stroke"
                 d="m 131.67,175.42719 a 2.052305,1.7708335 0 0 1 -2.05231,1.77083 2.052305,1.7708335 0 0 1 -2.0523,-1.77083 2.052305,1.7708335 0 0 1 2.0523,-1.77084 2.052305,1.7708335 0 0 1 2.05231,1.77084 z" />
            </g>
          </g>
          <path
             id="path1415"
             style="opacity:0.976645;fill:#000000;fill-opacity:1;stroke:none;stroke-width:1.41663;stroke-linecap:square;paint-order:stroke fill markers"
             transform="scale(1,-1)"
             d="m -5.2683604,-193.06354 a 3.2970703,5.9948816 0 0 1 -3.2970702,5.99488 3.2970703,5.9948816 0 0 1 -3.2970704,-5.99488 3.2970703,5.9948816 0 0 1 3.2970704,-5.99488 3.2970703,5.9948816 0 0 1 3.2970702,5.99488 z" />
          <g
             id="g1527"
             transform="matrix(-0.81069173,0.65051364,-0.58012666,-0.84599623,69.855804,249.53647)">
            <path
               id="ellipse1515"
               style="opacity:0.976645;fill:#000000;fill-opacity:0.992157;stroke:none;stroke-width:0.524995;stroke-linecap:square;stroke-linejoin:miter;stroke-miterlimit:4;stroke-dasharray:none;stroke-opacity:1;paint-order:markers fill stroke"
               d="m 36.248775,110.23035 a 7.9897666,7.7617302 0 0 1 -7.989767,7.76173 7.9897666,7.7617302 0 0 1 -7.989766,-7.76173 7.9897666,7.7617302 0 0 1 7.989766,-7.76173 7.9897666,7.7617302 0 0 1 7.989767,7.76173 z" />
            <path
               id="path1517"
               style="opacity:0.976645;fill:#cccccc;fill-opacity:0.992157;stroke:none;stroke-width:0;stroke-linecap:square;stroke-linejoin:miter;stroke-miterlimit:4;stroke-dasharray:none;stroke-opacity:1;paint-order:stroke fill markers"
               d="m 23.711241,104.72021 a 7.2776169,7.1427299 0 0 0 -2.69227,5.54666 7.2776169,7.1427299 0 0 0 7.27747,7.1425 7.2776169,7.1427299 0 0 0 5.85963,-2.90663 7.2776169,7.1427299 0 0 1 -0.054,0.0425 7.2776169,7.1427299 0 0 1 -0.0669,0.0516 7.2776169,7.1427299 0 0 1 -0.0674,0.0508 7.2776169,7.1427299 0 0 1 -0.068,0.05 7.2776169,7.1427299 0 0 1 -0.0685,0.0492 7.2776169,7.1427299 0 0 1 -0.0691,0.0484 7.2776169,7.1427299 0 0 1 -0.0699,0.0476 7.2776169,7.1427299 0 0 1 -0.0702,0.0468 7.2776169,7.1427299 0 0 1 -0.0707,0.046 7.2776169,7.1427299 0 0 1 -0.0716,0.0452 7.2776169,7.1427299 0 0 1 -0.0718,0.0444 7.2776169,7.1427299 0 0 1 -0.0724,0.0436 7.2776169,7.1427299 0 0 1 -0.073,0.0425 7.2776169,7.1427299 0 0 1 -0.0735,0.042 7.2776169,7.1427299 0 0 1 -0.0738,0.0409 7.2776169,7.1427299 0 0 1 -0.0746,0.0404 7.2776169,7.1427299 0 0 1 -0.0749,0.0393 7.2776169,7.1427299 0 0 1 -0.0754,0.0382 7.2776169,7.1427299 0 0 1 -0.0757,0.0377 7.2776169,7.1427299 0 0 1 -0.0762,0.0366 7.2776169,7.1427299 0 0 1 -0.0768,0.0358 7.2776169,7.1427299 0 0 1 -0.0771,0.035 7.2776169,7.1427299 0 0 1 -0.0776,0.0342 7.2776169,7.1427299 0 0 1 -0.0779,0.0332 7.2776169,7.1427299 0 0 1 -0.0782,0.0324 7.2776169,7.1427299 0 0 1 -0.0787,0.0313 7.2776169,7.1427299 0 0 1 -0.079,0.0305 7.2776169,7.1427299 0 0 1 -0.0796,0.0297 7.2776169,7.1427299 0 0 1 -0.0798,0.0286 7.2776169,7.1427299 0 0 1 -0.0801,0.0278 7.2776169,7.1427299 0 0 1 -0.0804,0.0267 7.2776169,7.1427299 0 0 1 -0.0807,0.0259 7.2776169,7.1427299 0 0 1 -0.0809,0.0249 7.2776169,7.1427299 0 0 1 -0.0815,0.0241 7.2776169,7.1427299 0 0 1 -0.0815,0.0233 7.2776169,7.1427299 0 0 1 -0.082,0.0222 7.2776169,7.1427299 0 0 1 -0.082,0.0211 7.2776169,7.1427299 0 0 1 -0.0823,0.0203 7.2776169,7.1427299 0 0 1 -0.0829,0.0195 7.2776169,7.1427299 0 0 1 -0.0828,0.0185 7.2776169,7.1427299 0 0 1 -0.0829,0.0174 7.2776169,7.1427299 0 0 1 -0.0834,0.0166 7.2776169,7.1427299 0 0 1 -0.0834,0.0155 7.2776169,7.1427299 0 0 1 -0.0837,0.0144 7.2776169,7.1427299 0 0 1 -0.0837,0.0136 7.2776169,7.1427299 0 0 1 -0.084,0.0128 7.2776169,7.1427299 0 0 1 -0.0842,0.0118 7.2776169,7.1427299 0 0 1 -0.0842,0.0107 7.2776169,7.1427299 0 0 1 -0.0842,0.01 7.2776169,7.1427299 0 0 1 -0.0845,0.009 7.2776169,7.1427299 0 0 1 -0.0845,0.008 7.2776169,7.1427299 0 0 1 -0.0848,0.007 7.2776169,7.1427299 0 0 1 -0.0848,0.006 7.2776169,7.1427299 0 0 1 -0.0848,0.005 7.2776169,7.1427299 0 0 1 -0.0848,0.004 7.2776169,7.1427299 0 0 1 -0.0848,0.003 7.2776169,7.1427299 0 0 1 -0.085,0.002 7.2776169,7.1427299 0 0 1 -0.0848,10e-4 7.2776169,7.1427299 0 0 1 -0.0495,0 7.2776169,7.1427299 0 0 1 -0.0851,-5.4e-4 7.2776169,7.1427299 0 0 1 -0.0848,-10e-4 7.2776169,7.1427299 0 0 1 -0.085,-0.002 7.2776169,7.1427299 0 0 1 -0.0848,-0.003 7.2776169,7.1427299 0 0 1 -0.0848,-0.004 7.2776169,7.1427299 0 0 1 -0.0848,-0.005 7.2776169,7.1427299 0 0 1 -0.0848,-0.006 7.2776169,7.1427299 0 0 1 -0.0845,-0.007 7.2776169,7.1427299 0 0 1 -0.0845,-0.008 7.2776169,7.1427299 0 0 1 -0.0845,-0.009 7.2776169,7.1427299 0 0 1 -0.0842,-0.0104 7.2776169,7.1427299 0 0 1 -0.0842,-0.011 7.2776169,7.1427299 0 0 1 -0.084,-0.0123 7.2776169,7.1427299 0 0 1 -0.084,-0.0131 7.2776169,7.1427299 0 0 1 -0.0837,-0.0139 7.2776169,7.1427299 0 0 1 -0.0837,-0.015 7.2776169,7.1427299 0 0 1 -0.0834,-0.0161 7.2776169,7.1427299 0 0 1 -0.0831,-0.0168 7.2776169,7.1427299 0 0 1 -0.0829,-0.0179 7.2776169,7.1427299 0 0 1 -0.0829,-0.0187 7.2776169,7.1427299 0 0 1 -0.0826,-0.0198 7.2776169,7.1427299 0 0 1 -0.0823,-0.0206 7.2776169,7.1427299 0 0 1 -0.082,-0.0217 7.2776169,7.1427299 0 0 1 -0.0817,-0.0227 7.2776169,7.1427299 0 0 1 -0.0815,-0.0235 7.2776169,7.1427299 0 0 1 -0.0812,-0.0243 7.2776169,7.1427299 0 0 1 -0.0809,-0.0254 7.2776169,7.1427299 0 0 1 -0.0807,-0.0262 7.2776169,7.1427299 0 0 1 -0.0801,-0.0273 7.2776169,7.1427299 0 0 1 -0.0801,-0.0283 7.2776169,7.1427299 0 0 1 -0.0795,-0.0289 7.2776169,7.1427299 0 0 1 -0.0793,-0.03 7.2776169,7.1427299 0 0 1 -0.079,-0.031 7.2776169,7.1427299 0 0 1 -0.0785,-0.0318 7.2776169,7.1427299 0 0 1 -0.0782,-0.0326 7.2776169,7.1427299 0 0 1 -0.0776,-0.0334 7.2776169,7.1427299 0 0 1 -0.0774,-0.0345 7.2776169,7.1427299 0 0 1 -0.0771,-0.0353 7.2776169,7.1427299 0 0 1 -0.0765,-0.0364 7.2776169,7.1427299 0 0 1 -0.076,-0.0369 7.2776169,7.1427299 0 0 1 -0.0757,-0.038 7.2776169,7.1427299 0 0 1 -0.0751,-0.0388 7.2776169,7.1427299 0 0 1 -0.0746,-0.0398 7.2776169,7.1427299 0 0 1 -0.0743,-0.0404 7.2776169,7.1427299 0 0 1 -0.0738,-0.0414 7.2776169,7.1427299 0 0 1 -0.0732,-0.0422 7.2776169,7.1427299 0 0 1 -0.0727,-0.043 7.2776169,7.1427299 0 0 1 -0.0724,-0.0439 7.2776169,7.1427299 0 0 1 -0.0716,-0.0447 7.2776169,7.1427299 0 0 1 -0.0713,-0.0457 7.2776169,7.1427299 0 0 1 -0.0705,-0.0463 7.2776169,7.1427299 0 0 1 -0.0702,-0.0471 7.2776169,7.1427299 0 0 1 -0.0694,-0.0481 7.2776169,7.1427299 0 0 1 -0.0691,-0.0487 7.2776169,7.1427299 0 0 1 -0.0683,-0.0495 7.2776169,7.1427299 0 0 1 -0.0677,-0.0503 7.2776169,7.1427299 0 0 1 -0.0672,-0.0511 7.2776169,7.1427299 0 0 1 -0.0663,-0.0519 7.2776169,7.1427299 0 0 1 -0.0661,-0.0527 7.2776169,7.1427299 0 0 1 -0.0652,-0.0532 7.2776169,7.1427299 0 0 1 -0.0647,-0.0543 7.2776169,7.1427299 0 0 1 -0.0639,-0.0548 7.2776169,7.1427299 0 0 1 -0.0633,-0.0556 7.2776169,7.1427299 0 0 1 -0.0628,-0.0562 7.2776169,7.1427299 0 0 1 -0.0619,-0.057 7.2776169,7.1427299 0 0 1 -0.0614,-0.0577 7.2776169,7.1427299 0 0 1 -0.0606,-0.0583 7.2776169,7.1427299 0 0 1 -0.06,-0.0591 7.2776169,7.1427299 0 0 1 -0.0592,-0.0599 7.2776169,7.1427299 0 0 1 -0.0584,-0.0604 7.2776169,7.1427299 0 0 1 -0.0578,-0.0612 7.2776169,7.1427299 0 0 1 -0.057,-0.0618 7.2776169,7.1427299 0 0 1 -0.0564,-0.0623 7.2776169,7.1427299 0 0 1 -0.0556,-0.0631 7.2776169,7.1427299 0 0 1 -0.0548,-0.0636 7.2776169,7.1427299 0 0 1 -0.054,-0.0644 7.2776169,7.1427299 0 0 1 -0.0534,-0.0647 7.2776169,7.1427299 0 0 1 -0.0526,-0.0655 7.2776169,7.1427299 0 0 1 -0.0515,-0.0663 7.2776169,7.1427299 0 0 1 -0.0509,-0.0666 7.2776169,7.1427299 0 0 1 -0.0501,-0.0674 7.2776169,7.1427299 0 0 1 -0.0495,-0.0679 7.2776169,7.1427299 0 0 1 -0.0484,-0.0685 7.2776169,7.1427299 0 0 1 -0.0476,-0.069 7.2776169,7.1427299 0 0 1 -0.0468,-0.0695 7.2776169,7.1427299 0 0 1 -0.0463,-0.0701 7.2776169,7.1427299 0 0 1 -0.0451,-0.0706 7.2776169,7.1427299 0 0 1 -0.0443,-0.0711 7.2776169,7.1427299 0 0 1 -0.0435,-0.0714 7.2776169,7.1427299 0 0 1 -0.0427,-0.0722 7.2776169,7.1427299 0 0 1 -0.0418,-0.0725 7.2776169,7.1427299 0 0 1 -0.041,-0.073 7.2776169,7.1427299 0 0 1 -0.0399,-0.0735 7.2776169,7.1427299 0 0 1 -0.0394,-0.0741 7.2776169,7.1427299 0 0 1 -0.0383,-0.0743 7.2776169,7.1427299 0 0 1 -0.0374,-0.0749 7.2776169,7.1427299 0 0 1 -0.0366,-0.0754 7.2776169,7.1427299 0 0 1 -0.0355,-0.0757 7.2776169,7.1427299 0 0 1 -0.0347,-0.0759 7.2776169,7.1427299 0 0 1 -0.0339,-0.0765 7.2776169,7.1427299 0 0 1 -0.033,-0.077 7.2776169,7.1427299 0 0 1 -0.0319,-0.077 7.2776169,7.1427299 0 0 1 -0.0311,-0.0778 7.2776169,7.1427299 0 0 1 -0.03,-0.0778 7.2776169,7.1427299 0 0 1 -0.0292,-0.0784 7.2776169,7.1427299 0 0 1 -0.0284,-0.0786 7.2776169,7.1427299 0 0 1 -0.0272,-0.0789 7.2776169,7.1427299 0 0 1 -0.0264,-0.0791 7.2776169,7.1427299 0 0 1 -0.0256,-0.0797 7.2776169,7.1427299 0 0 1 -0.0245,-0.0797 7.2776169,7.1427299 0 0 1 -0.0234,-0.0802 7.2776169,7.1427299 0 0 1 -0.0228,-0.0802 7.2776169,7.1427299 0 0 1 -0.0215,-0.0808 7.2776169,7.1427299 0 0 1 -0.0206,-0.0807 7.2776169,7.1427299 0 0 1 -0.0198,-0.081 7.2776169,7.1427299 0 0 1 -0.0187,-0.0813 7.2776169,7.1427299 0 0 1 -0.0179,-0.0816 7.2776169,7.1427299 0 0 1 -0.0168,-0.0818 7.2776169,7.1427299 0 0 1 -0.016,-0.0818 7.2776169,7.1427299 0 0 1 -0.0149,-0.0821 7.2776169,7.1427299 0 0 1 -0.0138,-0.0824 7.2776169,7.1427299 0 0 1 -0.0129,-0.0824 7.2776169,7.1427299 0 0 1 -0.0118,-0.0826 7.2776169,7.1427299 0 0 1 -0.011,-0.0826 7.2776169,7.1427299 0 0 1 -0.01,-0.0826 7.2776169,7.1427299 0 0 1 -0.009,-0.0829 7.2776169,7.1427299 0 0 1 -0.008,-0.0832 7.2776169,7.1427299 0 0 1 -0.007,-0.0829 7.2776169,7.1427299 0 0 1 -0.006,-0.0832 7.2776169,7.1427299 0 0 1 -0.005,-0.0834 7.2776169,7.1427299 0 0 1 -0.004,-0.0832 7.2776169,7.1427299 0 0 1 -0.003,-0.0834 7.2776169,7.1427299 0 0 1 -0.002,-0.0832 7.2776169,7.1427299 0 0 1 -10e-4,-0.0834 7.2776169,7.1427299 0 0 1 -2.8e-4,-0.0487 7.2776169,7.1427299 0 0 1 5.6e-4,-0.0832 7.2776169,7.1427299 0 0 1 0.002,-0.0834 7.2776169,7.1427299 0 0 1 0.002,-0.0834 7.2776169,7.1427299 0 0 1 0.003,-0.0832 7.2776169,7.1427299 0 0 1 0.004,-0.0834 7.2776169,7.1427299 0 0 1 0.006,-0.0832 7.2776169,7.1427299 0 0 1 0.007,-0.0832 7.2776169,7.1427299 0 0 1 0.007,-0.0829 7.2776169,7.1427299 0 0 1 0.008,-0.0829 7.2776169,7.1427299 0 0 1 0.009,-0.0829 7.2776169,7.1427299 0 0 1 0.0105,-0.0829 7.2776169,7.1427299 0 0 1 0.0113,-0.0826 7.2776169,7.1427299 0 0 1 0.0124,-0.0824 7.2776169,7.1427299 0 0 1 0.0135,-0.0824 7.2776169,7.1427299 0 0 1 0.0143,-0.0821 7.2776169,7.1427299 0 0 1 0.0151,-0.0821 7.2776169,7.1427299 0 0 1 0.0162,-0.0818 7.2776169,7.1427299 0 0 1 0.0173,-0.0815 7.2776169,7.1427299 0 0 1 0.0182,-0.0816 7.2776169,7.1427299 0 0 1 0.019,-0.0813 7.2776169,7.1427299 0 0 1 0.0204,-0.0807 7.2776169,7.1427299 0 0 1 0.0209,-0.0808 7.2776169,7.1427299 0 0 1 0.022,-0.0807 7.2776169,7.1427299 0 0 1 0.0231,-0.0802 7.2776169,7.1427299 0 0 1 0.0239,-0.0799 7.2776169,7.1427299 0 0 1 0.0248,-0.0797 7.2776169,7.1427299 0 0 1 0.0259,-0.0794 7.2776169,7.1427299 0 0 1 0.027,-0.0791 7.2776169,7.1427299 0 0 1 0.0278,-0.0786 7.2776169,7.1427299 0 0 1 0.0286,-0.0786 7.2776169,7.1427299 0 0 1 0.0294,-0.0781 7.2776169,7.1427299 0 0 1 0.0306,-0.0778 7.2776169,7.1427299 0 0 1 0.0314,-0.0776 7.2776169,7.1427299 0 0 1 0.0325,-0.077 7.2776169,7.1427299 0 0 1 0.0333,-0.0767 7.2776169,7.1427299 0 0 1 0.0341,-0.0762 7.2776169,7.1427299 0 0 1 0.0352,-0.0759 7.2776169,7.1427299 0 0 1 0.0361,-0.0754 7.2776169,7.1427299 0 0 1 0.0369,-0.0751 7.2776169,7.1427299 0 0 1 0.0377,-0.0746 7.2776169,7.1427299 0 0 1 0.0385,-0.0743 7.2776169,7.1427299 0 0 1 0.0396,-0.0738 7.2776169,7.1427299 0 0 1 0.0405,-0.0733 7.2776169,7.1427299 0 0 1 0.0413,-0.0727 7.2776169,7.1427299 0 0 1 0.0421,-0.0725 7.2776169,7.1427299 0 0 1 0.0429,-0.0719 7.2776169,7.1427299 0 0 1 0.044,-0.0714 7.2776169,7.1427299 0 0 1 0.0446,-0.0709 7.2776169,7.1427299 0 0 1 0.0457,-0.0703 7.2776169,7.1427299 0 0 1 0.0462,-0.0698 7.2776169,7.1427299 0 0 1 0.0473,-0.0693 7.2776169,7.1427299 0 0 1 0.0479,-0.069 7.2776169,7.1427299 0 0 1 0.049,-0.0682 7.2776169,7.1427299 0 0 1 0.0495,-0.0677 7.2776169,7.1427299 0 0 1 0.0198,-0.0259 z" />
            <path
               id="path1519"
               style="opacity:0.976645;fill:#ffffff;fill-opacity:0.992157;stroke:none;stroke-width:0.480657;stroke-linecap:square;stroke-linejoin:miter;stroke-miterlimit:4;stroke-dasharray:none;stroke-opacity:1;paint-order:markers fill stroke"
               d="m 23.711241,104.72021 a 7.2776169,7.1427299 0 0 0 -0.0198,0.0259 7.2776169,7.1427299 0 0 0 -0.0495,0.0677 7.2776169,7.1427299 0 0 0 -0.049,0.0682 7.2776169,7.1427299 0 0 0 -0.0479,0.069 7.2776169,7.1427299 0 0 0 -0.0474,0.0693 7.2776169,7.1427299 0 0 0 -0.0462,0.0698 7.2776169,7.1427299 0 0 0 -0.0457,0.0703 7.2776169,7.1427299 0 0 0 -0.0446,0.0709 7.2776169,7.1427299 0 0 0 -0.044,0.0714 7.2776169,7.1427299 0 0 0 -0.0429,0.0719 7.2776169,7.1427299 0 0 0 -0.0421,0.0725 7.2776169,7.1427299 0 0 0 -0.0413,0.0727 7.2776169,7.1427299 0 0 0 -0.0405,0.0733 7.2776169,7.1427299 0 0 0 -0.0396,0.0738 7.2776169,7.1427299 0 0 0 -0.0385,0.0743 7.2776169,7.1427299 0 0 0 -0.0377,0.0746 7.2776169,7.1427299 0 0 0 -0.0369,0.0751 7.2776169,7.1427299 0 0 0 -0.0361,0.0754 7.2776169,7.1427299 0 0 0 -0.0352,0.0759 7.2776169,7.1427299 0 0 0 -0.0341,0.0762 7.2776169,7.1427299 0 0 0 -0.0333,0.0768 7.2776169,7.1427299 0 0 0 -0.0325,0.077 7.2776169,7.1427299 0 0 0 -0.0314,0.0775 7.2776169,7.1427299 0 0 0 -0.0306,0.0778 7.2776169,7.1427299 0 0 0 -0.0294,0.0781 7.2776169,7.1427299 0 0 0 -0.0286,0.0786 7.2776169,7.1427299 0 0 0 -0.0278,0.0786 7.2776169,7.1427299 0 0 0 -0.027,0.0791 7.2776169,7.1427299 0 0 0 -0.0259,0.0794 7.2776169,7.1427299 0 0 0 -0.0248,0.0797 7.2776169,7.1427299 0 0 0 -0.0239,0.0799 7.2776169,7.1427299 0 0 0 -0.0231,0.0802 7.2776169,7.1427299 0 0 0 -0.022,0.0808 7.2776169,7.1427299 0 0 0 -0.0209,0.0807 7.2776169,7.1427299 0 0 0 -0.0204,0.0808 7.2776169,7.1427299 0 0 0 -0.019,0.0813 7.2776169,7.1427299 0 0 0 -0.0182,0.0815 7.2776169,7.1427299 0 0 0 -0.0173,0.0816 7.2776169,7.1427299 0 0 0 -0.0162,0.0818 7.2776169,7.1427299 0 0 0 -0.0151,0.0821 7.2776169,7.1427299 0 0 0 -0.0143,0.0821 7.2776169,7.1427299 0 0 0 -0.0135,0.0823 7.2776169,7.1427299 0 0 0 -0.0124,0.0824 7.2776169,7.1427299 0 0 0 -0.0113,0.0826 7.2776169,7.1427299 0 0 0 -0.0105,0.0829 7.2776169,7.1427299 0 0 0 -0.009,0.0829 7.2776169,7.1427299 0 0 0 -0.008,0.0829 7.2776169,7.1427299 0 0 0 -0.007,0.0829 7.2776169,7.1427299 0 0 0 -0.007,0.0832 7.2776169,7.1427299 0 0 0 -0.006,0.0832 7.2776169,7.1427299 0 0 0 -0.004,0.0834 7.2776169,7.1427299 0 0 0 -0.003,0.0832 7.2776169,7.1427299 0 0 0 -0.002,0.0834 7.2776169,7.1427299 0 0 0 -0.002,0.0834 7.2776169,7.1427299 0 0 0 -5.6e-4,0.0832 7.2776169,7.1427299 0 0 0 2.8e-4,0.0487 7.2776169,7.1427299 0 0 0 10e-4,0.0834 7.2776169,7.1427299 0 0 0 0.002,0.0832 7.2776169,7.1427299 0 0 0 0.003,0.0834 7.2776169,7.1427299 0 0 0 0.004,0.0832 7.2776169,7.1427299 0 0 0 0.005,0.0834 7.2776169,7.1427299 0 0 0 0.006,0.0832 7.2776169,7.1427299 0 0 0 0.007,0.0829 7.2776169,7.1427299 0 0 0 0.008,0.0832 7.2776169,7.1427299 0 0 0 0.009,0.0829 7.2776169,7.1427299 0 0 0 0.01,0.0826 7.2776169,7.1427299 0 0 0 0.011,0.0826 7.2776169,7.1427299 0 0 0 0.0118,0.0826 7.2776169,7.1427299 0 0 0 0.0129,0.0824 7.2776169,7.1427299 0 0 0 0.0138,0.0824 7.2776169,7.1427299 0 0 0 0.0149,0.0821 7.2776169,7.1427299 0 0 0 0.016,0.0818 7.2776169,7.1427299 0 0 0 0.0168,0.0818 7.2776169,7.1427299 0 0 0 0.0179,0.0816 7.2776169,7.1427299 0 0 0 0.0187,0.0813 7.2776169,7.1427299 0 0 0 0.0198,0.081 7.2776169,7.1427299 0 0 0 0.0207,0.0808 7.2776169,7.1427299 0 0 0 0.0215,0.0807 7.2776169,7.1427299 0 0 0 0.0228,0.0802 7.2776169,7.1427299 0 0 0 0.0234,0.0802 7.2776169,7.1427299 0 0 0 0.0245,0.0797 7.2776169,7.1427299 0 0 0 0.0256,0.0797 7.2776169,7.1427299 0 0 0 0.0264,0.0791 7.2776169,7.1427299 0 0 0 0.0273,0.0789 7.2776169,7.1427299 0 0 0 0.0284,0.0786 7.2776169,7.1427299 0 0 0 0.0292,0.0784 7.2776169,7.1427299 0 0 0 0.03,0.0778 7.2776169,7.1427299 0 0 0 0.0311,0.0778 7.2776169,7.1427299 0 0 0 0.0319,0.077 7.2776169,7.1427299 0 0 0 0.033,0.077 7.2776169,7.1427299 0 0 0 0.0339,0.0765 7.2776169,7.1427299 0 0 0 0.0347,0.0759 7.2776169,7.1427299 0 0 0 0.0355,0.0757 7.2776169,7.1427299 0 0 0 0.0366,0.0754 7.2776169,7.1427299 0 0 0 0.0374,0.0749 7.2776169,7.1427299 0 0 0 0.0383,0.0743 7.2776169,7.1427299 0 0 0 0.0394,0.0741 7.2776169,7.1427299 0 0 0 0.0399,0.0735 7.2776169,7.1427299 0 0 0 0.041,0.073 7.2776169,7.1427299 0 0 0 0.0418,0.0725 7.2776169,7.1427299 0 0 0 0.0427,0.0722 7.2776169,7.1427299 0 0 0 0.0435,0.0714 7.2776169,7.1427299 0 0 0 0.0443,0.0711 7.2776169,7.1427299 0 0 0 0.0452,0.0706 7.2776169,7.1427299 0 0 0 0.0462,0.0701 7.2776169,7.1427299 0 0 0 0.0468,0.0695 7.2776169,7.1427299 0 0 0 0.0476,0.069 7.2776169,7.1427299 0 0 0 0.0485,0.0684 7.2776169,7.1427299 0 0 0 0.0495,0.0679 7.2776169,7.1427299 0 0 0 0.0501,0.0674 7.2776169,7.1427299 0 0 0 0.0509,0.0666 7.2776169,7.1427299 0 0 0 0.0515,0.0663 7.2776169,7.1427299 0 0 0 0.0526,0.0655 7.2776169,7.1427299 0 0 0 0.0534,0.0647 7.2776169,7.1427299 0 0 0 0.054,0.0644 7.2776169,7.1427299 0 0 0 0.0548,0.0636 7.2776169,7.1427299 0 0 0 0.0556,0.0631 7.2776169,7.1427299 0 0 0 0.0564,0.0623 7.2776169,7.1427299 0 0 0 0.057,0.0618 7.2776169,7.1427299 0 0 0 0.0578,0.0612 7.2776169,7.1427299 0 0 0 0.0584,0.0604 7.2776169,7.1427299 0 0 0 0.0592,0.0599 7.2776169,7.1427299 0 0 0 0.06,0.0591 7.2776169,7.1427299 0 0 0 0.0606,0.0583 7.2776169,7.1427299 0 0 0 0.0614,0.0578 7.2776169,7.1427299 0 0 0 0.0619,0.057 7.2776169,7.1427299 0 0 0 0.0628,0.0562 7.2776169,7.1427299 0 0 0 0.0633,0.0556 7.2776169,7.1427299 0 0 0 0.0639,0.0548 7.2776169,7.1427299 0 0 0 0.0647,0.0543 7.2776169,7.1427299 0 0 0 0.0652,0.0532 7.2776169,7.1427299 0 0 0 0.0661,0.0527 7.2776169,7.1427299 0 0 0 0.0663,0.0519 7.2776169,7.1427299 0 0 0 0.0672,0.0511 7.2776169,7.1427299 0 0 0 0.0677,0.0503 7.2776169,7.1427299 0 0 0 0.0683,0.0495 7.2776169,7.1427299 0 0 0 0.0691,0.0487 7.2776169,7.1427299 0 0 0 0.0694,0.0481 7.2776169,7.1427299 0 0 0 0.0702,0.0471 7.2776169,7.1427299 0 0 0 0.0705,0.0463 7.2776169,7.1427299 0 0 0 0.0713,0.0457 7.2776169,7.1427299 0 0 0 0.0716,0.0447 7.2776169,7.1427299 0 0 0 0.0724,0.0439 7.2776169,7.1427299 0 0 0 0.0727,0.043 7.2776169,7.1427299 0 0 0 0.0732,0.0422 7.2776169,7.1427299 0 0 0 0.0738,0.0414 7.2776169,7.1427299 0 0 0 0.0743,0.0404 7.2776169,7.1427299 0 0 0 0.0746,0.0398 7.2776169,7.1427299 0 0 0 0.0751,0.0388 7.2776169,7.1427299 0 0 0 0.0757,0.038 7.2776169,7.1427299 0 0 0 0.076,0.0369 7.2776169,7.1427299 0 0 0 0.0765,0.0364 7.2776169,7.1427299 0 0 0 0.0771,0.0353 7.2776169,7.1427299 0 0 0 0.0773,0.0345 7.2776169,7.1427299 0 0 0 0.0776,0.0334 7.2776169,7.1427299 0 0 0 0.0782,0.0326 7.2776169,7.1427299 0 0 0 0.0785,0.0318 7.2776169,7.1427299 0 0 0 0.079,0.031 7.2776169,7.1427299 0 0 0 0.0793,0.0299 7.2776169,7.1427299 0 0 0 0.0795,0.0289 7.2776169,7.1427299 0 0 0 0.0801,0.0284 7.2776169,7.1427299 0 0 0 0.0801,0.0273 7.2776169,7.1427299 0 0 0 0.0807,0.0262 7.2776169,7.1427299 0 0 0 0.0809,0.0254 7.2776169,7.1427299 0 0 0 0.0812,0.0243 7.2776169,7.1427299 0 0 0 0.0815,0.0235 7.2776169,7.1427299 0 0 0 0.0817,0.0227 7.2776169,7.1427299 0 0 0 0.082,0.0217 7.2776169,7.1427299 0 0 0 0.0823,0.0206 7.2776169,7.1427299 0 0 0 0.0826,0.0198 7.2776169,7.1427299 0 0 0 0.0829,0.0187 7.2776169,7.1427299 0 0 0 0.0829,0.0179 7.2776169,7.1427299 0 0 0 0.0831,0.0169 7.2776169,7.1427299 0 0 0 0.0834,0.016 7.2776169,7.1427299 0 0 0 0.0837,0.015 7.2776169,7.1427299 0 0 0 0.0837,0.0139 7.2776169,7.1427299 0 0 0 0.084,0.0131 7.2776169,7.1427299 0 0 0 0.084,0.0123 7.2776169,7.1427299 0 0 0 0.0842,0.011 7.2776169,7.1427299 0 0 0 0.0842,0.0104 7.2776169,7.1427299 0 0 0 0.0845,0.009 7.2776169,7.1427299 0 0 0 0.0845,0.008 7.2776169,7.1427299 0 0 0 0.0845,0.007 7.2776169,7.1427299 0 0 0 0.0848,0.006 7.2776169,7.1427299 0 0 0 0.0848,0.005 7.2776169,7.1427299 0 0 0 0.0848,0.004 7.2776169,7.1427299 0 0 0 0.0848,0.003 7.2776169,7.1427299 0 0 0 0.085,0.002 7.2776169,7.1427299 0 0 0 0.0848,10e-4 7.2776169,7.1427299 0 0 0 0.085,5.5e-4 7.2776169,7.1427299 0 0 0 0.0495,0 7.2776169,7.1427299 0 0 0 0.0848,-0.001 7.2776169,7.1427299 0 0 0 0.085,-0.002 7.2776169,7.1427299 0 0 0 0.0848,-0.003 7.2776169,7.1427299 0 0 0 0.0848,-0.004 7.2776169,7.1427299 0 0 0 0.0848,-0.005 7.2776169,7.1427299 0 0 0 0.0848,-0.006 7.2776169,7.1427299 0 0 0 0.0848,-0.007 7.2776169,7.1427299 0 0 0 0.0845,-0.008 7.2776169,7.1427299 0 0 0 0.0845,-0.009 7.2776169,7.1427299 0 0 0 0.0842,-0.01 7.2776169,7.1427299 0 0 0 0.0842,-0.0107 7.2776169,7.1427299 0 0 0 0.0842,-0.0118 7.2776169,7.1427299 0 0 0 0.084,-0.0128 7.2776169,7.1427299 0 0 0 0.0837,-0.0136 7.2776169,7.1427299 0 0 0 0.0837,-0.0144 7.2776169,7.1427299 0 0 0 0.0834,-0.0155 7.2776169,7.1427299 0 0 0 0.0834,-0.0166 7.2776169,7.1427299 0 0 0 0.0828,-0.0174 7.2776169,7.1427299 0 0 0 0.0829,-0.0184 7.2776169,7.1427299 0 0 0 0.0828,-0.0195 7.2776169,7.1427299 0 0 0 0.0823,-0.0203 7.2776169,7.1427299 0 0 0 0.082,-0.0211 7.2776169,7.1427299 0 0 0 0.082,-0.0222 7.2776169,7.1427299 0 0 0 0.0815,-0.0233 7.2776169,7.1427299 0 0 0 0.0815,-0.0241 7.2776169,7.1427299 0 0 0 0.0809,-0.0249 7.2776169,7.1427299 0 0 0 0.0806,-0.0259 7.2776169,7.1427299 0 0 0 0.0804,-0.0267 7.2776169,7.1427299 0 0 0 0.0801,-0.0278 7.2776169,7.1427299 0 0 0 0.0798,-0.0286 7.2776169,7.1427299 0 0 0 0.0795,-0.0297 7.2776169,7.1427299 0 0 0 0.079,-0.0305 7.2776169,7.1427299 0 0 0 0.0787,-0.0313 7.2776169,7.1427299 0 0 0 0.0782,-0.0323 7.2776169,7.1427299 0 0 0 0.0779,-0.0332 7.2776169,7.1427299 0 0 0 0.0776,-0.0342 7.2776169,7.1427299 0 0 0 0.0771,-0.035 7.2776169,7.1427299 0 0 0 0.0768,-0.0358 7.2776169,7.1427299 0 0 0 0.0763,-0.0366 7.2776169,7.1427299 0 0 0 0.0757,-0.0377 7.2776169,7.1427299 0 0 0 0.0754,-0.0382 7.2776169,7.1427299 0 0 0 0.0749,-0.0393 7.2776169,7.1427299 0 0 0 0.0746,-0.0404 7.2776169,7.1427299 0 0 0 0.0738,-0.0409 7.2776169,7.1427299 0 0 0 0.0735,-0.042 7.2776169,7.1427299 0 0 0 0.0729,-0.0425 7.2776169,7.1427299 0 0 0 0.0724,-0.0436 7.2776169,7.1427299 0 0 0 0.0718,-0.0444 7.2776169,7.1427299 0 0 0 0.0716,-0.0452 7.2776169,7.1427299 0 0 0 0.0707,-0.046 7.2776169,7.1427299 0 0 0 0.0702,-0.0468 7.2776169,7.1427299 0 0 0 0.0699,-0.0476 7.2776169,7.1427299 0 0 0 0.0691,-0.0484 7.2776169,7.1427299 0 0 0 0.0685,-0.0492 7.2776169,7.1427299 0 0 0 0.068,-0.05 7.2776169,7.1427299 0 0 0 0.0674,-0.0508 7.2776169,7.1427299 0 0 0 0.0669,-0.0516 7.2776169,7.1427299 0 0 0 0.054,-0.0425 7.2776169,7.1427299 0 0 0 1.41812,-4.23587 7.2776169,7.1427299 0 0 0 -7.27775,-7.14276 7.2776169,7.1427299 0 0 0 -4.5852,1.5961 z" />
            <g
               id="g1525"
               transform="matrix(-0.41850843,0.34155539,-0.30879105,-0.40656377,135.91664,139.78775)">
              <path
                 id="ellipse1521"
                 style="opacity:0.976645;fill:#000000;fill-opacity:0.992157;stroke:none;stroke-width:0.265735;stroke-linecap:square;stroke-linejoin:miter;stroke-miterlimit:4;stroke-dasharray:none;stroke-opacity:1;paint-order:markers fill stroke"
                 d="m 132.37366,177.39749 a 4.0929742,3.8818707 0 0 1 -4.09297,3.88187 4.0929742,3.8818707 0 0 1 -4.09298,-3.88187 4.0929742,3.8818707 0 0 1 4.09298,-3.88187 4.0929742,3.8818707 0 0 1 4.09297,3.88187 z" />
              <path
                 id="ellipse1523"
                 style="opacity:0.976645;fill:#ffffff;fill-opacity:0.992157;stroke:none;stroke-width:0.127092;stroke-linecap:square;stroke-linejoin:miter;stroke-miterlimit:4;stroke-dasharray:none;stroke-opacity:1;paint-order:markers fill stroke"
                 d="m 131.67,175.42719 a 2.052305,1.7708335 0 0 1 -2.05231,1.77083 2.052305,1.7708335 0 0 1 -2.0523,-1.77083 2.052305,1.7708335 0 0 1 2.0523,-1.77084 2.052305,1.7708335 0 0 1 2.05231,1.77084 z" />
            </g>
          </g>
        </g>
      </g>
    </g>
  </g>
  <g
     inkscape:groupmode="layer"
     id="layer2"
     inkscape:label="Layer 1"
     transform="matrix(0.93744766,0,0,0.92791976,160.05507,-117.68038)" />
</svg>
