<?xml version="1.0" encoding="UTF-8" standalone="no"?>
<svg
   xmlns:dc="http://purl.org/dc/elements/1.1/"
   xmlns:cc="http://creativecommons.org/ns#"
   xmlns:rdf="http://www.w3.org/1999/02/22-rdf-syntax-ns#"
   xmlns:svg="http://www.w3.org/2000/svg"
   xmlns="http://www.w3.org/2000/svg"
   xmlns:sodipodi="http://sodipodi.sourceforge.net/DTD/sodipodi-0.dtd"
   xmlns:inkscape="http://www.inkscape.org/namespaces/inkscape"
   width="70mm"
   height="66.865898mm"
   viewBox="0 0 70.000001 66.865898"
   version="1.1"
   id="svg8"
   inkscape:version="1.0.2-2 (e86c870879, 2021-01-15)"
   sodipodi:docname="zabavne.svg">
  <defs
     id="defs2" />
  <sodipodi:namedview
     id="base"
     pagecolor="#ffffff"
     bordercolor="#666666"
     borderopacity="1.0"
     inkscape:pageopacity="0.0"
     inkscape:pageshadow="2"
     inkscape:zoom="1.4272577"
     inkscape:cx="69.316765"
     inkscape:cy="76.521999"
     inkscape:document-units="mm"
     inkscape:current-layer="g1836"
     inkscape:document-rotation="0"
     showgrid="false"
     inkscape:window-width="1920"
     inkscape:window-height="1001"
     inkscape:window-x="-9"
     inkscape:window-y="-9"
     inkscape:window-maximized="1" />
  <metadata
     id="metadata5">
    <rdf:RDF>
      <cc:Work
         rdf:about="">
        <dc:format>image/svg+xml</dc:format>
        <dc:type
           rdf:resource="http://purl.org/dc/dcmitype/StillImage" />
        <dc:title />
      </cc:Work>
    </rdf:RDF>
  </metadata>
  <g
     inkscape:label="Vrstva 1"
     inkscape:groupmode="layer"
     id="layer1"
     transform="translate(-108.06898,-169.59274)">
    <g
       id="g1836"
       transform="translate(2.4099247,55.428264)">
      <g
         id="g967">
        <g
           id="g918"
           transform="translate(5.1906067,9.6396981)">
          <path
             id="path1074"
             style="opacity:0.976645;fill:#000000;fill-opacity:0.996078;stroke-width:0.449992;stroke-linecap:square;paint-order:stroke fill markers"
             d="m 154.29871,153.89067 a 20,17.499995 0 0 1 -20.00001,17.50001 20,17.499995 0 0 1 -19.99999,-17.50001 20,17.499995 0 0 1 19.99999,-17.49999 20,17.499995 0 0 1 20.00001,17.49999 z" />
          <path
             id="circle1102"
             style="opacity:0.976645;fill:#3f51b5;fill-opacity:1;stroke-width:0.41079;stroke-linecap:square;paint-order:stroke fill markers"
             d="m 152.45762,153.8633 a 18.235757,15.994779 0 0 1 -18.23575,15.99477 18.235757,15.994779 0 0 1 -18.23575,-15.99477 18.235757,15.994779 0 0 1 18.23575,-15.99478 18.235757,15.994779 0 0 1 18.23575,15.99478 z" />
          <g
             id="g1072"
             transform="matrix(0.77932542,0,0,0.70454098,106.63213,71.56259)">
            <path
               id="circle1060"
               style="opacity:0.976645;fill:#000000;fill-opacity:0.992157;stroke:none;stroke-width:0.524995;stroke-linecap:square;stroke-linejoin:miter;stroke-miterlimit:4;stroke-dasharray:none;stroke-opacity:1;paint-order:markers fill stroke"
               d="m 36.248775,110.23035 a 7.9897666,7.7617302 0 0 1 -7.989767,7.76173 7.9897666,7.7617302 0 0 1 -7.989766,-7.76173 7.9897666,7.7617302 0 0 1 7.989766,-7.76173 7.9897666,7.7617302 0 0 1 7.989767,7.76173 z" />
            <path
               id="path1062"
               style="opacity:0.976645;fill:#cccccc;fill-opacity:0.992157;stroke:none;stroke-width:0;stroke-linecap:square;stroke-linejoin:miter;stroke-miterlimit:4;stroke-dasharray:none;stroke-opacity:1;paint-order:stroke fill markers"
               d="m 23.711241,104.72021 a 7.2776169,7.1427299 0 0 0 -2.69227,5.54666 7.2776169,7.1427299 0 0 0 7.27747,7.1425 7.2776169,7.1427299 0 0 0 5.85963,-2.90663 7.2776169,7.1427299 0 0 1 -0.054,0.0425 7.2776169,7.1427299 0 0 1 -0.0669,0.0516 7.2776169,7.1427299 0 0 1 -0.0674,0.0508 7.2776169,7.1427299 0 0 1 -0.068,0.05 7.2776169,7.1427299 0 0 1 -0.0685,0.0492 7.2776169,7.1427299 0 0 1 -0.0691,0.0484 7.2776169,7.1427299 0 0 1 -0.0699,0.0476 7.2776169,7.1427299 0 0 1 -0.0702,0.0468 7.2776169,7.1427299 0 0 1 -0.0707,0.046 7.2776169,7.1427299 0 0 1 -0.0716,0.0452 7.2776169,7.1427299 0 0 1 -0.0718,0.0444 7.2776169,7.1427299 0 0 1 -0.0724,0.0436 7.2776169,7.1427299 0 0 1 -0.073,0.0425 7.2776169,7.1427299 0 0 1 -0.0735,0.042 7.2776169,7.1427299 0 0 1 -0.0738,0.0409 7.2776169,7.1427299 0 0 1 -0.0746,0.0404 7.2776169,7.1427299 0 0 1 -0.0749,0.0393 7.2776169,7.1427299 0 0 1 -0.0754,0.0382 7.2776169,7.1427299 0 0 1 -0.0757,0.0377 7.2776169,7.1427299 0 0 1 -0.0762,0.0366 7.2776169,7.1427299 0 0 1 -0.0768,0.0358 7.2776169,7.1427299 0 0 1 -0.0771,0.035 7.2776169,7.1427299 0 0 1 -0.0776,0.0342 7.2776169,7.1427299 0 0 1 -0.0779,0.0332 7.2776169,7.1427299 0 0 1 -0.0782,0.0324 7.2776169,7.1427299 0 0 1 -0.0787,0.0313 7.2776169,7.1427299 0 0 1 -0.079,0.0305 7.2776169,7.1427299 0 0 1 -0.0796,0.0297 7.2776169,7.1427299 0 0 1 -0.0798,0.0286 7.2776169,7.1427299 0 0 1 -0.0801,0.0278 7.2776169,7.1427299 0 0 1 -0.0804,0.0267 7.2776169,7.1427299 0 0 1 -0.0807,0.0259 7.2776169,7.1427299 0 0 1 -0.0809,0.0249 7.2776169,7.1427299 0 0 1 -0.0815,0.0241 7.2776169,7.1427299 0 0 1 -0.0815,0.0233 7.2776169,7.1427299 0 0 1 -0.082,0.0222 7.2776169,7.1427299 0 0 1 -0.082,0.0211 7.2776169,7.1427299 0 0 1 -0.0823,0.0203 7.2776169,7.1427299 0 0 1 -0.0829,0.0195 7.2776169,7.1427299 0 0 1 -0.0828,0.0185 7.2776169,7.1427299 0 0 1 -0.0829,0.0174 7.2776169,7.1427299 0 0 1 -0.0834,0.0166 7.2776169,7.1427299 0 0 1 -0.0834,0.0155 7.2776169,7.1427299 0 0 1 -0.0837,0.0144 7.2776169,7.1427299 0 0 1 -0.0837,0.0136 7.2776169,7.1427299 0 0 1 -0.084,0.0128 7.2776169,7.1427299 0 0 1 -0.0842,0.0118 7.2776169,7.1427299 0 0 1 -0.0842,0.0107 7.2776169,7.1427299 0 0 1 -0.0842,0.01 7.2776169,7.1427299 0 0 1 -0.0845,0.009 7.2776169,7.1427299 0 0 1 -0.0845,0.008 7.2776169,7.1427299 0 0 1 -0.0848,0.007 7.2776169,7.1427299 0 0 1 -0.0848,0.006 7.2776169,7.1427299 0 0 1 -0.0848,0.005 7.2776169,7.1427299 0 0 1 -0.0848,0.004 7.2776169,7.1427299 0 0 1 -0.0848,0.003 7.2776169,7.1427299 0 0 1 -0.085,0.002 7.2776169,7.1427299 0 0 1 -0.0848,10e-4 7.2776169,7.1427299 0 0 1 -0.0495,0 7.2776169,7.1427299 0 0 1 -0.0851,-5.4e-4 7.2776169,7.1427299 0 0 1 -0.0848,-10e-4 7.2776169,7.1427299 0 0 1 -0.085,-0.002 7.2776169,7.1427299 0 0 1 -0.0848,-0.003 7.2776169,7.1427299 0 0 1 -0.0848,-0.004 7.2776169,7.1427299 0 0 1 -0.0848,-0.005 7.2776169,7.1427299 0 0 1 -0.0848,-0.006 7.2776169,7.1427299 0 0 1 -0.0845,-0.007 7.2776169,7.1427299 0 0 1 -0.0845,-0.008 7.2776169,7.1427299 0 0 1 -0.0845,-0.009 7.2776169,7.1427299 0 0 1 -0.0842,-0.0104 7.2776169,7.1427299 0 0 1 -0.0842,-0.011 7.2776169,7.1427299 0 0 1 -0.084,-0.0123 7.2776169,7.1427299 0 0 1 -0.084,-0.0131 7.2776169,7.1427299 0 0 1 -0.0837,-0.0139 7.2776169,7.1427299 0 0 1 -0.0837,-0.015 7.2776169,7.1427299 0 0 1 -0.0834,-0.0161 7.2776169,7.1427299 0 0 1 -0.0831,-0.0168 7.2776169,7.1427299 0 0 1 -0.0829,-0.0179 7.2776169,7.1427299 0 0 1 -0.0829,-0.0187 7.2776169,7.1427299 0 0 1 -0.0826,-0.0198 7.2776169,7.1427299 0 0 1 -0.0823,-0.0206 7.2776169,7.1427299 0 0 1 -0.082,-0.0217 7.2776169,7.1427299 0 0 1 -0.0817,-0.0227 7.2776169,7.1427299 0 0 1 -0.0815,-0.0235 7.2776169,7.1427299 0 0 1 -0.0812,-0.0243 7.2776169,7.1427299 0 0 1 -0.0809,-0.0254 7.2776169,7.1427299 0 0 1 -0.0807,-0.0262 7.2776169,7.1427299 0 0 1 -0.0801,-0.0273 7.2776169,7.1427299 0 0 1 -0.0801,-0.0283 7.2776169,7.1427299 0 0 1 -0.0795,-0.0289 7.2776169,7.1427299 0 0 1 -0.0793,-0.03 7.2776169,7.1427299 0 0 1 -0.079,-0.031 7.2776169,7.1427299 0 0 1 -0.0785,-0.0318 7.2776169,7.1427299 0 0 1 -0.0782,-0.0326 7.2776169,7.1427299 0 0 1 -0.0776,-0.0334 7.2776169,7.1427299 0 0 1 -0.0774,-0.0345 7.2776169,7.1427299 0 0 1 -0.0771,-0.0353 7.2776169,7.1427299 0 0 1 -0.0765,-0.0364 7.2776169,7.1427299 0 0 1 -0.076,-0.0369 7.2776169,7.1427299 0 0 1 -0.0757,-0.038 7.2776169,7.1427299 0 0 1 -0.0751,-0.0388 7.2776169,7.1427299 0 0 1 -0.0746,-0.0398 7.2776169,7.1427299 0 0 1 -0.0743,-0.0404 7.2776169,7.1427299 0 0 1 -0.0738,-0.0414 7.2776169,7.1427299 0 0 1 -0.0732,-0.0422 7.2776169,7.1427299 0 0 1 -0.0727,-0.043 7.2776169,7.1427299 0 0 1 -0.0724,-0.0439 7.2776169,7.1427299 0 0 1 -0.0716,-0.0447 7.2776169,7.1427299 0 0 1 -0.0713,-0.0457 7.2776169,7.1427299 0 0 1 -0.0705,-0.0463 7.2776169,7.1427299 0 0 1 -0.0702,-0.0471 7.2776169,7.1427299 0 0 1 -0.0694,-0.0481 7.2776169,7.1427299 0 0 1 -0.0691,-0.0487 7.2776169,7.1427299 0 0 1 -0.0683,-0.0495 7.2776169,7.1427299 0 0 1 -0.0677,-0.0503 7.2776169,7.1427299 0 0 1 -0.0672,-0.0511 7.2776169,7.1427299 0 0 1 -0.0663,-0.0519 7.2776169,7.1427299 0 0 1 -0.0661,-0.0527 7.2776169,7.1427299 0 0 1 -0.0652,-0.0532 7.2776169,7.1427299 0 0 1 -0.0647,-0.0543 7.2776169,7.1427299 0 0 1 -0.0639,-0.0548 7.2776169,7.1427299 0 0 1 -0.0633,-0.0556 7.2776169,7.1427299 0 0 1 -0.0628,-0.0562 7.2776169,7.1427299 0 0 1 -0.0619,-0.057 7.2776169,7.1427299 0 0 1 -0.0614,-0.0577 7.2776169,7.1427299 0 0 1 -0.0606,-0.0583 7.2776169,7.1427299 0 0 1 -0.06,-0.0591 7.2776169,7.1427299 0 0 1 -0.0592,-0.0599 7.2776169,7.1427299 0 0 1 -0.0584,-0.0604 7.2776169,7.1427299 0 0 1 -0.0578,-0.0612 7.2776169,7.1427299 0 0 1 -0.057,-0.0618 7.2776169,7.1427299 0 0 1 -0.0564,-0.0623 7.2776169,7.1427299 0 0 1 -0.0556,-0.0631 7.2776169,7.1427299 0 0 1 -0.0548,-0.0636 7.2776169,7.1427299 0 0 1 -0.054,-0.0644 7.2776169,7.1427299 0 0 1 -0.0534,-0.0647 7.2776169,7.1427299 0 0 1 -0.0526,-0.0655 7.2776169,7.1427299 0 0 1 -0.0515,-0.0663 7.2776169,7.1427299 0 0 1 -0.0509,-0.0666 7.2776169,7.1427299 0 0 1 -0.0501,-0.0674 7.2776169,7.1427299 0 0 1 -0.0495,-0.0679 7.2776169,7.1427299 0 0 1 -0.0484,-0.0685 7.2776169,7.1427299 0 0 1 -0.0476,-0.069 7.2776169,7.1427299 0 0 1 -0.0468,-0.0695 7.2776169,7.1427299 0 0 1 -0.0463,-0.0701 7.2776169,7.1427299 0 0 1 -0.0451,-0.0706 7.2776169,7.1427299 0 0 1 -0.0443,-0.0711 7.2776169,7.1427299 0 0 1 -0.0435,-0.0714 7.2776169,7.1427299 0 0 1 -0.0427,-0.0722 7.2776169,7.1427299 0 0 1 -0.0418,-0.0725 7.2776169,7.1427299 0 0 1 -0.041,-0.073 7.2776169,7.1427299 0 0 1 -0.0399,-0.0735 7.2776169,7.1427299 0 0 1 -0.0394,-0.0741 7.2776169,7.1427299 0 0 1 -0.0383,-0.0743 7.2776169,7.1427299 0 0 1 -0.0374,-0.0749 7.2776169,7.1427299 0 0 1 -0.0366,-0.0754 7.2776169,7.1427299 0 0 1 -0.0355,-0.0757 7.2776169,7.1427299 0 0 1 -0.0347,-0.0759 7.2776169,7.1427299 0 0 1 -0.0339,-0.0765 7.2776169,7.1427299 0 0 1 -0.033,-0.077 7.2776169,7.1427299 0 0 1 -0.0319,-0.077 7.2776169,7.1427299 0 0 1 -0.0311,-0.0778 7.2776169,7.1427299 0 0 1 -0.03,-0.0778 7.2776169,7.1427299 0 0 1 -0.0292,-0.0784 7.2776169,7.1427299 0 0 1 -0.0284,-0.0786 7.2776169,7.1427299 0 0 1 -0.0272,-0.0789 7.2776169,7.1427299 0 0 1 -0.0264,-0.0791 7.2776169,7.1427299 0 0 1 -0.0256,-0.0797 7.2776169,7.1427299 0 0 1 -0.0245,-0.0797 7.2776169,7.1427299 0 0 1 -0.0234,-0.0802 7.2776169,7.1427299 0 0 1 -0.0228,-0.0802 7.2776169,7.1427299 0 0 1 -0.0215,-0.0808 7.2776169,7.1427299 0 0 1 -0.0206,-0.0807 7.2776169,7.1427299 0 0 1 -0.0198,-0.081 7.2776169,7.1427299 0 0 1 -0.0187,-0.0813 7.2776169,7.1427299 0 0 1 -0.0179,-0.0816 7.2776169,7.1427299 0 0 1 -0.0168,-0.0818 7.2776169,7.1427299 0 0 1 -0.016,-0.0818 7.2776169,7.1427299 0 0 1 -0.0149,-0.0821 7.2776169,7.1427299 0 0 1 -0.0138,-0.0824 7.2776169,7.1427299 0 0 1 -0.0129,-0.0824 7.2776169,7.1427299 0 0 1 -0.0118,-0.0826 7.2776169,7.1427299 0 0 1 -0.011,-0.0826 7.2776169,7.1427299 0 0 1 -0.01,-0.0826 7.2776169,7.1427299 0 0 1 -0.009,-0.0829 7.2776169,7.1427299 0 0 1 -0.008,-0.0832 7.2776169,7.1427299 0 0 1 -0.007,-0.0829 7.2776169,7.1427299 0 0 1 -0.006,-0.0832 7.2776169,7.1427299 0 0 1 -0.005,-0.0834 7.2776169,7.1427299 0 0 1 -0.004,-0.0832 7.2776169,7.1427299 0 0 1 -0.003,-0.0834 7.2776169,7.1427299 0 0 1 -0.002,-0.0832 7.2776169,7.1427299 0 0 1 -10e-4,-0.0834 7.2776169,7.1427299 0 0 1 -2.8e-4,-0.0487 7.2776169,7.1427299 0 0 1 5.6e-4,-0.0832 7.2776169,7.1427299 0 0 1 0.002,-0.0834 7.2776169,7.1427299 0 0 1 0.002,-0.0834 7.2776169,7.1427299 0 0 1 0.003,-0.0832 7.2776169,7.1427299 0 0 1 0.004,-0.0834 7.2776169,7.1427299 0 0 1 0.006,-0.0832 7.2776169,7.1427299 0 0 1 0.007,-0.0832 7.2776169,7.1427299 0 0 1 0.007,-0.0829 7.2776169,7.1427299 0 0 1 0.008,-0.0829 7.2776169,7.1427299 0 0 1 0.009,-0.0829 7.2776169,7.1427299 0 0 1 0.0105,-0.0829 7.2776169,7.1427299 0 0 1 0.0113,-0.0826 7.2776169,7.1427299 0 0 1 0.0124,-0.0824 7.2776169,7.1427299 0 0 1 0.0135,-0.0824 7.2776169,7.1427299 0 0 1 0.0143,-0.0821 7.2776169,7.1427299 0 0 1 0.0151,-0.0821 7.2776169,7.1427299 0 0 1 0.0162,-0.0818 7.2776169,7.1427299 0 0 1 0.0173,-0.0815 7.2776169,7.1427299 0 0 1 0.0182,-0.0816 7.2776169,7.1427299 0 0 1 0.019,-0.0813 7.2776169,7.1427299 0 0 1 0.0204,-0.0807 7.2776169,7.1427299 0 0 1 0.0209,-0.0808 7.2776169,7.1427299 0 0 1 0.022,-0.0807 7.2776169,7.1427299 0 0 1 0.0231,-0.0802 7.2776169,7.1427299 0 0 1 0.0239,-0.0799 7.2776169,7.1427299 0 0 1 0.0248,-0.0797 7.2776169,7.1427299 0 0 1 0.0259,-0.0794 7.2776169,7.1427299 0 0 1 0.027,-0.0791 7.2776169,7.1427299 0 0 1 0.0278,-0.0786 7.2776169,7.1427299 0 0 1 0.0286,-0.0786 7.2776169,7.1427299 0 0 1 0.0294,-0.0781 7.2776169,7.1427299 0 0 1 0.0306,-0.0778 7.2776169,7.1427299 0 0 1 0.0314,-0.0776 7.2776169,7.1427299 0 0 1 0.0325,-0.077 7.2776169,7.1427299 0 0 1 0.0333,-0.0767 7.2776169,7.1427299 0 0 1 0.0341,-0.0762 7.2776169,7.1427299 0 0 1 0.0352,-0.0759 7.2776169,7.1427299 0 0 1 0.0361,-0.0754 7.2776169,7.1427299 0 0 1 0.0369,-0.0751 7.2776169,7.1427299 0 0 1 0.0377,-0.0746 7.2776169,7.1427299 0 0 1 0.0385,-0.0743 7.2776169,7.1427299 0 0 1 0.0396,-0.0738 7.2776169,7.1427299 0 0 1 0.0405,-0.0733 7.2776169,7.1427299 0 0 1 0.0413,-0.0727 7.2776169,7.1427299 0 0 1 0.0421,-0.0725 7.2776169,7.1427299 0 0 1 0.0429,-0.0719 7.2776169,7.1427299 0 0 1 0.044,-0.0714 7.2776169,7.1427299 0 0 1 0.0446,-0.0709 7.2776169,7.1427299 0 0 1 0.0457,-0.0703 7.2776169,7.1427299 0 0 1 0.0462,-0.0698 7.2776169,7.1427299 0 0 1 0.0473,-0.0693 7.2776169,7.1427299 0 0 1 0.0479,-0.069 7.2776169,7.1427299 0 0 1 0.049,-0.0682 7.2776169,7.1427299 0 0 1 0.0495,-0.0677 7.2776169,7.1427299 0 0 1 0.0198,-0.0259 z" />
            <path
               id="path1064"
               style="opacity:0.976645;fill:#ffffff;fill-opacity:0.992157;stroke:none;stroke-width:0.480657;stroke-linecap:square;stroke-linejoin:miter;stroke-miterlimit:4;stroke-dasharray:none;stroke-opacity:1;paint-order:markers fill stroke"
               d="m 23.711241,104.72021 a 7.2776169,7.1427299 0 0 0 -0.0198,0.0259 7.2776169,7.1427299 0 0 0 -0.0495,0.0677 7.2776169,7.1427299 0 0 0 -0.049,0.0682 7.2776169,7.1427299 0 0 0 -0.0479,0.069 7.2776169,7.1427299 0 0 0 -0.0474,0.0693 7.2776169,7.1427299 0 0 0 -0.0462,0.0698 7.2776169,7.1427299 0 0 0 -0.0457,0.0703 7.2776169,7.1427299 0 0 0 -0.0446,0.0709 7.2776169,7.1427299 0 0 0 -0.044,0.0714 7.2776169,7.1427299 0 0 0 -0.0429,0.0719 7.2776169,7.1427299 0 0 0 -0.0421,0.0725 7.2776169,7.1427299 0 0 0 -0.0413,0.0727 7.2776169,7.1427299 0 0 0 -0.0405,0.0733 7.2776169,7.1427299 0 0 0 -0.0396,0.0738 7.2776169,7.1427299 0 0 0 -0.0385,0.0743 7.2776169,7.1427299 0 0 0 -0.0377,0.0746 7.2776169,7.1427299 0 0 0 -0.0369,0.0751 7.2776169,7.1427299 0 0 0 -0.0361,0.0754 7.2776169,7.1427299 0 0 0 -0.0352,0.0759 7.2776169,7.1427299 0 0 0 -0.0341,0.0762 7.2776169,7.1427299 0 0 0 -0.0333,0.0768 7.2776169,7.1427299 0 0 0 -0.0325,0.077 7.2776169,7.1427299 0 0 0 -0.0314,0.0775 7.2776169,7.1427299 0 0 0 -0.0306,0.0778 7.2776169,7.1427299 0 0 0 -0.0294,0.0781 7.2776169,7.1427299 0 0 0 -0.0286,0.0786 7.2776169,7.1427299 0 0 0 -0.0278,0.0786 7.2776169,7.1427299 0 0 0 -0.027,0.0791 7.2776169,7.1427299 0 0 0 -0.0259,0.0794 7.2776169,7.1427299 0 0 0 -0.0248,0.0797 7.2776169,7.1427299 0 0 0 -0.0239,0.0799 7.2776169,7.1427299 0 0 0 -0.0231,0.0802 7.2776169,7.1427299 0 0 0 -0.022,0.0808 7.2776169,7.1427299 0 0 0 -0.0209,0.0807 7.2776169,7.1427299 0 0 0 -0.0204,0.0808 7.2776169,7.1427299 0 0 0 -0.019,0.0813 7.2776169,7.1427299 0 0 0 -0.0182,0.0815 7.2776169,7.1427299 0 0 0 -0.0173,0.0816 7.2776169,7.1427299 0 0 0 -0.0162,0.0818 7.2776169,7.1427299 0 0 0 -0.0151,0.0821 7.2776169,7.1427299 0 0 0 -0.0143,0.0821 7.2776169,7.1427299 0 0 0 -0.0135,0.0823 7.2776169,7.1427299 0 0 0 -0.0124,0.0824 7.2776169,7.1427299 0 0 0 -0.0113,0.0826 7.2776169,7.1427299 0 0 0 -0.0105,0.0829 7.2776169,7.1427299 0 0 0 -0.009,0.0829 7.2776169,7.1427299 0 0 0 -0.008,0.0829 7.2776169,7.1427299 0 0 0 -0.007,0.0829 7.2776169,7.1427299 0 0 0 -0.007,0.0832 7.2776169,7.1427299 0 0 0 -0.006,0.0832 7.2776169,7.1427299 0 0 0 -0.004,0.0834 7.2776169,7.1427299 0 0 0 -0.003,0.0832 7.2776169,7.1427299 0 0 0 -0.002,0.0834 7.2776169,7.1427299 0 0 0 -0.002,0.0834 7.2776169,7.1427299 0 0 0 -5.6e-4,0.0832 7.2776169,7.1427299 0 0 0 2.8e-4,0.0487 7.2776169,7.1427299 0 0 0 10e-4,0.0834 7.2776169,7.1427299 0 0 0 0.002,0.0832 7.2776169,7.1427299 0 0 0 0.003,0.0834 7.2776169,7.1427299 0 0 0 0.004,0.0832 7.2776169,7.1427299 0 0 0 0.005,0.0834 7.2776169,7.1427299 0 0 0 0.006,0.0832 7.2776169,7.1427299 0 0 0 0.007,0.0829 7.2776169,7.1427299 0 0 0 0.008,0.0832 7.2776169,7.1427299 0 0 0 0.009,0.0829 7.2776169,7.1427299 0 0 0 0.01,0.0826 7.2776169,7.1427299 0 0 0 0.011,0.0826 7.2776169,7.1427299 0 0 0 0.0118,0.0826 7.2776169,7.1427299 0 0 0 0.0129,0.0824 7.2776169,7.1427299 0 0 0 0.0138,0.0824 7.2776169,7.1427299 0 0 0 0.0149,0.0821 7.2776169,7.1427299 0 0 0 0.016,0.0818 7.2776169,7.1427299 0 0 0 0.0168,0.0818 7.2776169,7.1427299 0 0 0 0.0179,0.0816 7.2776169,7.1427299 0 0 0 0.0187,0.0813 7.2776169,7.1427299 0 0 0 0.0198,0.081 7.2776169,7.1427299 0 0 0 0.0207,0.0808 7.2776169,7.1427299 0 0 0 0.0215,0.0807 7.2776169,7.1427299 0 0 0 0.0228,0.0802 7.2776169,7.1427299 0 0 0 0.0234,0.0802 7.2776169,7.1427299 0 0 0 0.0245,0.0797 7.2776169,7.1427299 0 0 0 0.0256,0.0797 7.2776169,7.1427299 0 0 0 0.0264,0.0791 7.2776169,7.1427299 0 0 0 0.0273,0.0789 7.2776169,7.1427299 0 0 0 0.0284,0.0786 7.2776169,7.1427299 0 0 0 0.0292,0.0784 7.2776169,7.1427299 0 0 0 0.03,0.0778 7.2776169,7.1427299 0 0 0 0.0311,0.0778 7.2776169,7.1427299 0 0 0 0.0319,0.077 7.2776169,7.1427299 0 0 0 0.033,0.077 7.2776169,7.1427299 0 0 0 0.0339,0.0765 7.2776169,7.1427299 0 0 0 0.0347,0.0759 7.2776169,7.1427299 0 0 0 0.0355,0.0757 7.2776169,7.1427299 0 0 0 0.0366,0.0754 7.2776169,7.1427299 0 0 0 0.0374,0.0749 7.2776169,7.1427299 0 0 0 0.0383,0.0743 7.2776169,7.1427299 0 0 0 0.0394,0.0741 7.2776169,7.1427299 0 0 0 0.0399,0.0735 7.2776169,7.1427299 0 0 0 0.041,0.073 7.2776169,7.1427299 0 0 0 0.0418,0.0725 7.2776169,7.1427299 0 0 0 0.0427,0.0722 7.2776169,7.1427299 0 0 0 0.0435,0.0714 7.2776169,7.1427299 0 0 0 0.0443,0.0711 7.2776169,7.1427299 0 0 0 0.0452,0.0706 7.2776169,7.1427299 0 0 0 0.0462,0.0701 7.2776169,7.1427299 0 0 0 0.0468,0.0695 7.2776169,7.1427299 0 0 0 0.0476,0.069 7.2776169,7.1427299 0 0 0 0.0485,0.0684 7.2776169,7.1427299 0 0 0 0.0495,0.0679 7.2776169,7.1427299 0 0 0 0.0501,0.0674 7.2776169,7.1427299 0 0 0 0.0509,0.0666 7.2776169,7.1427299 0 0 0 0.0515,0.0663 7.2776169,7.1427299 0 0 0 0.0526,0.0655 7.2776169,7.1427299 0 0 0 0.0534,0.0647 7.2776169,7.1427299 0 0 0 0.054,0.0644 7.2776169,7.1427299 0 0 0 0.0548,0.0636 7.2776169,7.1427299 0 0 0 0.0556,0.0631 7.2776169,7.1427299 0 0 0 0.0564,0.0623 7.2776169,7.1427299 0 0 0 0.057,0.0618 7.2776169,7.1427299 0 0 0 0.0578,0.0612 7.2776169,7.1427299 0 0 0 0.0584,0.0604 7.2776169,7.1427299 0 0 0 0.0592,0.0599 7.2776169,7.1427299 0 0 0 0.06,0.0591 7.2776169,7.1427299 0 0 0 0.0606,0.0583 7.2776169,7.1427299 0 0 0 0.0614,0.0578 7.2776169,7.1427299 0 0 0 0.0619,0.057 7.2776169,7.1427299 0 0 0 0.0628,0.0562 7.2776169,7.1427299 0 0 0 0.0633,0.0556 7.2776169,7.1427299 0 0 0 0.0639,0.0548 7.2776169,7.1427299 0 0 0 0.0647,0.0543 7.2776169,7.1427299 0 0 0 0.0652,0.0532 7.2776169,7.1427299 0 0 0 0.0661,0.0527 7.2776169,7.1427299 0 0 0 0.0663,0.0519 7.2776169,7.1427299 0 0 0 0.0672,0.0511 7.2776169,7.1427299 0 0 0 0.0677,0.0503 7.2776169,7.1427299 0 0 0 0.0683,0.0495 7.2776169,7.1427299 0 0 0 0.0691,0.0487 7.2776169,7.1427299 0 0 0 0.0694,0.0481 7.2776169,7.1427299 0 0 0 0.0702,0.0471 7.2776169,7.1427299 0 0 0 0.0705,0.0463 7.2776169,7.1427299 0 0 0 0.0713,0.0457 7.2776169,7.1427299 0 0 0 0.0716,0.0447 7.2776169,7.1427299 0 0 0 0.0724,0.0439 7.2776169,7.1427299 0 0 0 0.0727,0.043 7.2776169,7.1427299 0 0 0 0.0732,0.0422 7.2776169,7.1427299 0 0 0 0.0738,0.0414 7.2776169,7.1427299 0 0 0 0.0743,0.0404 7.2776169,7.1427299 0 0 0 0.0746,0.0398 7.2776169,7.1427299 0 0 0 0.0751,0.0388 7.2776169,7.1427299 0 0 0 0.0757,0.038 7.2776169,7.1427299 0 0 0 0.076,0.0369 7.2776169,7.1427299 0 0 0 0.0765,0.0364 7.2776169,7.1427299 0 0 0 0.0771,0.0353 7.2776169,7.1427299 0 0 0 0.0773,0.0345 7.2776169,7.1427299 0 0 0 0.0776,0.0334 7.2776169,7.1427299 0 0 0 0.0782,0.0326 7.2776169,7.1427299 0 0 0 0.0785,0.0318 7.2776169,7.1427299 0 0 0 0.079,0.031 7.2776169,7.1427299 0 0 0 0.0793,0.0299 7.2776169,7.1427299 0 0 0 0.0795,0.0289 7.2776169,7.1427299 0 0 0 0.0801,0.0284 7.2776169,7.1427299 0 0 0 0.0801,0.0273 7.2776169,7.1427299 0 0 0 0.0807,0.0262 7.2776169,7.1427299 0 0 0 0.0809,0.0254 7.2776169,7.1427299 0 0 0 0.0812,0.0243 7.2776169,7.1427299 0 0 0 0.0815,0.0235 7.2776169,7.1427299 0 0 0 0.0817,0.0227 7.2776169,7.1427299 0 0 0 0.082,0.0217 7.2776169,7.1427299 0 0 0 0.0823,0.0206 7.2776169,7.1427299 0 0 0 0.0826,0.0198 7.2776169,7.1427299 0 0 0 0.0829,0.0187 7.2776169,7.1427299 0 0 0 0.0829,0.0179 7.2776169,7.1427299 0 0 0 0.0831,0.0169 7.2776169,7.1427299 0 0 0 0.0834,0.016 7.2776169,7.1427299 0 0 0 0.0837,0.015 7.2776169,7.1427299 0 0 0 0.0837,0.0139 7.2776169,7.1427299 0 0 0 0.084,0.0131 7.2776169,7.1427299 0 0 0 0.084,0.0123 7.2776169,7.1427299 0 0 0 0.0842,0.011 7.2776169,7.1427299 0 0 0 0.0842,0.0104 7.2776169,7.1427299 0 0 0 0.0845,0.009 7.2776169,7.1427299 0 0 0 0.0845,0.008 7.2776169,7.1427299 0 0 0 0.0845,0.007 7.2776169,7.1427299 0 0 0 0.0848,0.006 7.2776169,7.1427299 0 0 0 0.0848,0.005 7.2776169,7.1427299 0 0 0 0.0848,0.004 7.2776169,7.1427299 0 0 0 0.0848,0.003 7.2776169,7.1427299 0 0 0 0.085,0.002 7.2776169,7.1427299 0 0 0 0.0848,10e-4 7.2776169,7.1427299 0 0 0 0.085,5.5e-4 7.2776169,7.1427299 0 0 0 0.0495,0 7.2776169,7.1427299 0 0 0 0.0848,-0.001 7.2776169,7.1427299 0 0 0 0.085,-0.002 7.2776169,7.1427299 0 0 0 0.0848,-0.003 7.2776169,7.1427299 0 0 0 0.0848,-0.004 7.2776169,7.1427299 0 0 0 0.0848,-0.005 7.2776169,7.1427299 0 0 0 0.0848,-0.006 7.2776169,7.1427299 0 0 0 0.0848,-0.007 7.2776169,7.1427299 0 0 0 0.0845,-0.008 7.2776169,7.1427299 0 0 0 0.0845,-0.009 7.2776169,7.1427299 0 0 0 0.0842,-0.01 7.2776169,7.1427299 0 0 0 0.0842,-0.0107 7.2776169,7.1427299 0 0 0 0.0842,-0.0118 7.2776169,7.1427299 0 0 0 0.084,-0.0128 7.2776169,7.1427299 0 0 0 0.0837,-0.0136 7.2776169,7.1427299 0 0 0 0.0837,-0.0144 7.2776169,7.1427299 0 0 0 0.0834,-0.0155 7.2776169,7.1427299 0 0 0 0.0834,-0.0166 7.2776169,7.1427299 0 0 0 0.0828,-0.0174 7.2776169,7.1427299 0 0 0 0.0829,-0.0184 7.2776169,7.1427299 0 0 0 0.0828,-0.0195 7.2776169,7.1427299 0 0 0 0.0823,-0.0203 7.2776169,7.1427299 0 0 0 0.082,-0.0211 7.2776169,7.1427299 0 0 0 0.082,-0.0222 7.2776169,7.1427299 0 0 0 0.0815,-0.0233 7.2776169,7.1427299 0 0 0 0.0815,-0.0241 7.2776169,7.1427299 0 0 0 0.0809,-0.0249 7.2776169,7.1427299 0 0 0 0.0806,-0.0259 7.2776169,7.1427299 0 0 0 0.0804,-0.0267 7.2776169,7.1427299 0 0 0 0.0801,-0.0278 7.2776169,7.1427299 0 0 0 0.0798,-0.0286 7.2776169,7.1427299 0 0 0 0.0795,-0.0297 7.2776169,7.1427299 0 0 0 0.079,-0.0305 7.2776169,7.1427299 0 0 0 0.0787,-0.0313 7.2776169,7.1427299 0 0 0 0.0782,-0.0323 7.2776169,7.1427299 0 0 0 0.0779,-0.0332 7.2776169,7.1427299 0 0 0 0.0776,-0.0342 7.2776169,7.1427299 0 0 0 0.0771,-0.035 7.2776169,7.1427299 0 0 0 0.0768,-0.0358 7.2776169,7.1427299 0 0 0 0.0763,-0.0366 7.2776169,7.1427299 0 0 0 0.0757,-0.0377 7.2776169,7.1427299 0 0 0 0.0754,-0.0382 7.2776169,7.1427299 0 0 0 0.0749,-0.0393 7.2776169,7.1427299 0 0 0 0.0746,-0.0404 7.2776169,7.1427299 0 0 0 0.0738,-0.0409 7.2776169,7.1427299 0 0 0 0.0735,-0.042 7.2776169,7.1427299 0 0 0 0.0729,-0.0425 7.2776169,7.1427299 0 0 0 0.0724,-0.0436 7.2776169,7.1427299 0 0 0 0.0718,-0.0444 7.2776169,7.1427299 0 0 0 0.0716,-0.0452 7.2776169,7.1427299 0 0 0 0.0707,-0.046 7.2776169,7.1427299 0 0 0 0.0702,-0.0468 7.2776169,7.1427299 0 0 0 0.0699,-0.0476 7.2776169,7.1427299 0 0 0 0.0691,-0.0484 7.2776169,7.1427299 0 0 0 0.0685,-0.0492 7.2776169,7.1427299 0 0 0 0.068,-0.05 7.2776169,7.1427299 0 0 0 0.0674,-0.0508 7.2776169,7.1427299 0 0 0 0.0669,-0.0516 7.2776169,7.1427299 0 0 0 0.054,-0.0425 7.2776169,7.1427299 0 0 0 1.41812,-4.23587 7.2776169,7.1427299 0 0 0 -7.27775,-7.14276 7.2776169,7.1427299 0 0 0 -4.5852,1.5961 z" />
            <g
               id="g1070"
               transform="matrix(0.5326511,0,0,0.51744869,-41.914401,15.875551)">
              <path
                 id="ellipse1066"
                 style="opacity:0.976645;fill:#000000;fill-opacity:0.992157;stroke:none;stroke-width:0.265735;stroke-linecap:square;stroke-linejoin:miter;stroke-miterlimit:4;stroke-dasharray:none;stroke-opacity:1;paint-order:markers fill stroke"
                 d="m 132.37366,177.39749 a 4.0929742,3.8818707 0 0 1 -4.09297,3.88187 4.0929742,3.8818707 0 0 1 -4.09298,-3.88187 4.0929742,3.8818707 0 0 1 4.09298,-3.88187 4.0929742,3.8818707 0 0 1 4.09297,3.88187 z" />
              <path
                 id="ellipse1068"
                 style="opacity:0.976645;fill:#ffffff;fill-opacity:0.992157;stroke:none;stroke-width:0.127092;stroke-linecap:square;stroke-linejoin:miter;stroke-miterlimit:4;stroke-dasharray:none;stroke-opacity:1;paint-order:markers fill stroke"
                 d="m 131.67,175.42719 a 2.052305,1.7708335 0 0 1 -2.05231,1.77083 2.052305,1.7708335 0 0 1 -2.0523,-1.77083 2.052305,1.7708335 0 0 1 2.0523,-1.77084 2.052305,1.7708335 0 0 1 2.05231,1.77084 z" />
            </g>
          </g>
          <g
             id="g1058"
             transform="matrix(0.4213881,0,0,0.35341701,89.091783,87.096341)">
            <path
               id="circle1045"
               style="opacity:0.976645;fill:#000000;fill-opacity:0.992157;stroke:none;stroke-width:1;stroke-linecap:square;stroke-linejoin:miter;stroke-miterlimit:4;stroke-dasharray:none;stroke-opacity:1;paint-order:markers fill stroke"
               d="m 140.67708,175.84941 a 15,15 0 0 1 -15,15 15,15 0 0 1 -15,-15 15,15 0 0 1 15,-15 15,15 0 0 1 15,15 z" />
            <path
               id="path1047"
               style="opacity:0.976645;fill:#cccccc;fill-opacity:0.992157;stroke:none;stroke-width:0;stroke-linecap:square;stroke-linejoin:miter;stroke-miterlimit:4;stroke-dasharray:none;stroke-opacity:1;paint-order:stroke fill markers"
               d="m 442.73047,624.38086 a 51.639721,52.171636 0 0 0 -19.10352,40.51367 51.639721,52.171636 0 0 0 51.63867,52.16992 51.639721,52.171636 0 0 0 41.57813,-21.23047 51.639721,52.171636 0 0 1 -0.38281,0.31055 51.639721,52.171636 0 0 1 -0.47461,0.37695 51.639721,52.171636 0 0 1 -0.47852,0.3711 51.639721,52.171636 0 0 1 -0.48242,0.36523 51.639721,52.171636 0 0 1 -0.48633,0.35938 51.639721,52.171636 0 0 1 -0.49023,0.35351 51.639721,52.171636 0 0 1 -0.4961,0.34766 51.639721,52.171636 0 0 1 -0.49804,0.3418 51.639721,52.171636 0 0 1 -0.50196,0.33593 51.639721,52.171636 0 0 1 -0.50781,0.33008 51.639721,52.171636 0 0 1 -0.50976,0.32422 51.639721,52.171636 0 0 1 -0.51368,0.31836 51.639721,52.171636 0 0 1 -0.51757,0.31055 51.639721,52.171636 0 0 1 -0.52149,0.30664 51.639721,52.171636 0 0 1 -0.52344,0.29883 51.639721,52.171636 0 0 1 -0.52929,0.29492 51.639721,52.171636 0 0 1 -0.53125,0.28711 51.639721,52.171636 0 0 1 -0.53516,0.27929 51.639721,52.171636 0 0 1 -0.53711,0.27539 51.639721,52.171636 0 0 1 -0.54101,0.26758 51.639721,52.171636 0 0 1 -0.54493,0.26172 51.639721,52.171636 0 0 1 -0.54687,0.25586 51.639721,52.171636 0 0 1 -0.55078,0.25 51.639721,52.171636 0 0 1 -0.55274,0.24219 51.639721,52.171636 0 0 1 -0.55468,0.23633 51.639721,52.171636 0 0 1 -0.5586,0.22851 51.639721,52.171636 0 0 1 -0.56054,0.22266 51.639721,52.171636 0 0 1 -0.56446,0.21679 51.639721,52.171636 0 0 1 -0.5664,0.20899 51.639721,52.171636 0 0 1 -0.56836,0.20312 51.639721,52.171636 0 0 1 -0.57032,0.19532 51.639721,52.171636 0 0 1 -0.57226,0.18945 51.639721,52.171636 0 0 1 -0.57422,0.18164 51.639721,52.171636 0 0 1 -0.57812,0.17578 51.639721,52.171636 0 0 1 -0.57813,0.16992 51.639721,52.171636 0 0 1 -0.58203,0.16211 51.639721,52.171636 0 0 1 -0.58203,0.1543 51.639721,52.171636 0 0 1 -0.58399,0.14844 51.639721,52.171636 0 0 1 -0.58789,0.14258 51.639721,52.171636 0 0 1 -0.58789,0.13476 51.639721,52.171636 0 0 1 -0.58789,0.12695 51.639721,52.171636 0 0 1 -0.5918,0.1211 51.639721,52.171636 0 0 1 -0.59179,0.11328 51.639721,52.171636 0 0 1 -0.59375,0.10547 51.639721,52.171636 0 0 1 -0.59375,0.0996 51.639721,52.171636 0 0 1 -0.59571,0.0937 51.639721,52.171636 0 0 1 -0.59765,0.0859 51.639721,52.171636 0 0 1 -0.59766,0.0781 51.639721,52.171636 0 0 1 -0.59765,0.0703 51.639721,52.171636 0 0 1 -0.59961,0.0645 51.639721,52.171636 0 0 1 -0.59961,0.0586 51.639721,52.171636 0 0 1 -0.60157,0.0508 51.639721,52.171636 0 0 1 -0.60156,0.043 51.639721,52.171636 0 0 1 -0.60156,0.0352 51.639721,52.171636 0 0 1 -0.60156,0.0293 51.639721,52.171636 0 0 1 -0.60157,0.0215 51.639721,52.171636 0 0 1 -0.60351,0.0156 51.639721,52.171636 0 0 1 -0.60156,0.008 51.639721,52.171636 0 0 1 -0.35157,0 51.639721,52.171636 0 0 1 -0.60351,-0.004 51.639721,52.171636 0 0 1 -0.60156,-0.01 51.639721,52.171636 0 0 1 -0.60352,-0.0176 51.639721,52.171636 0 0 1 -0.60156,-0.0254 51.639721,52.171636 0 0 1 -0.60156,-0.0312 51.639721,52.171636 0 0 1 -0.60157,-0.0391 51.639721,52.171636 0 0 1 -0.60156,-0.0469 51.639721,52.171636 0 0 1 -0.59961,-0.0527 51.639721,52.171636 0 0 1 -0.59961,-0.0606 51.639721,52.171636 0 0 1 -0.59961,-0.0664 51.639721,52.171636 0 0 1 -0.59765,-0.0762 51.639721,52.171636 0 0 1 -0.59766,-0.0801 51.639721,52.171636 0 0 1 -0.5957,-0.0898 51.639721,52.171636 0 0 1 -0.59571,-0.0957 51.639721,52.171636 0 0 1 -0.59375,-0.10156 51.639721,52.171636 0 0 1 -0.59375,-0.10938 51.639721,52.171636 0 0 1 -0.59179,-0.11718 51.639721,52.171636 0 0 1 -0.58985,-0.12305 51.639721,52.171636 0 0 1 -0.58789,-0.13086 51.639721,52.171636 0 0 1 -0.58789,-0.13672 51.639721,52.171636 0 0 1 -0.58594,-0.14453 51.639721,52.171636 0 0 1 -0.58398,-0.15039 51.639721,52.171636 0 0 1 -0.58203,-0.1582 51.639721,52.171636 0 0 1 -0.58008,-0.16602 51.639721,52.171636 0 0 1 -0.57813,-0.17187 51.639721,52.171636 0 0 1 -0.57617,-0.17774 51.639721,52.171636 0 0 1 -0.57422,-0.18554 51.639721,52.171636 0 0 1 -0.57226,-0.19141 51.639721,52.171636 0 0 1 -0.56836,-0.19922 51.639721,52.171636 0 0 1 -0.56836,-0.20703 51.639721,52.171636 0 0 1 -0.56445,-0.21094 51.639721,52.171636 0 0 1 -0.5625,-0.21875 51.639721,52.171636 0 0 1 -0.56055,-0.22656 51.639721,52.171636 0 0 1 -0.55664,-0.23242 51.639721,52.171636 0 0 1 -0.55469,-0.23828 51.639721,52.171636 0 0 1 -0.55078,-0.24415 51.639721,52.171636 0 0 1 -0.54883,-0.25195 51.639721,52.171636 0 0 1 -0.54687,-0.25781 51.639721,52.171636 0 0 1 -0.54297,-0.26563 51.639721,52.171636 0 0 1 -0.53906,-0.26953 51.639721,52.171636 0 0 1 -0.53711,-0.27734 51.639721,52.171636 0 0 1 -0.53321,-0.2832 51.639721,52.171636 0 0 1 -0.52929,-0.29102 51.639721,52.171636 0 0 1 -0.52735,-0.29492 51.639721,52.171636 0 0 1 -0.52343,-0.30274 51.639721,52.171636 0 0 1 -0.51954,-0.30859 51.639721,52.171636 0 0 1 -0.51562,-0.31445 51.639721,52.171636 0 0 1 -0.51367,-0.32032 51.639721,52.171636 0 0 1 -0.50781,-0.32617 51.639721,52.171636 0 0 1 -0.50586,-0.33398 51.639721,52.171636 0 0 1 -0.5,-0.33789 51.639721,52.171636 0 0 1 -0.49805,-0.34375 51.639721,52.171636 0 0 1 -0.49219,-0.35156 51.639721,52.171636 0 0 1 -0.49023,-0.35547 51.639721,52.171636 0 0 1 -0.48438,-0.36133 51.639721,52.171636 0 0 1 -0.48047,-0.36719 51.639721,52.171636 0 0 1 -0.47656,-0.37305 51.639721,52.171636 0 0 1 -0.4707,-0.3789 51.639721,52.171636 0 0 1 -0.46875,-0.38477 51.639721,52.171636 0 0 1 -0.46289,-0.38867 51.639721,52.171636 0 0 1 -0.45899,-0.39648 51.639721,52.171636 0 0 1 -0.45312,-0.40039 51.639721,52.171636 0 0 1 -0.44922,-0.40625 51.639721,52.171636 0 0 1 -0.44531,-0.41016 51.639721,52.171636 0 0 1 -0.43946,-0.41602 51.639721,52.171636 0 0 1 -0.43554,-0.42187 51.639721,52.171636 0 0 1 -0.42969,-0.42578 51.639721,52.171636 0 0 1 -0.42578,-0.43164 51.639721,52.171636 0 0 1 -0.41992,-0.4375 51.639721,52.171636 0 0 1 -0.41407,-0.44141 51.639721,52.171636 0 0 1 -0.41015,-0.44727 51.639721,52.171636 0 0 1 -0.4043,-0.45117 51.639721,52.171636 0 0 1 -0.40039,-0.45507 51.639721,52.171636 0 0 1 -0.39453,-0.46094 51.639721,52.171636 0 0 1 -0.38867,-0.46485 51.639721,52.171636 0 0 1 -0.38282,-0.4707 51.639721,52.171636 0 0 1 -0.3789,-0.47266 51.639721,52.171636 0 0 1 -0.37305,-0.47851 51.639721,52.171636 0 0 1 -0.36523,-0.48438 51.639721,52.171636 0 0 1 -0.36133,-0.48632 51.639721,52.171636 0 0 1 -0.35547,-0.49219 51.639721,52.171636 0 0 1 -0.35156,-0.4961 51.639721,52.171636 0 0 1 -0.34375,-0.5 51.639721,52.171636 0 0 1 -0.33789,-0.5039 51.639721,52.171636 0 0 1 -0.33204,-0.50781 51.639721,52.171636 0 0 1 -0.32812,-0.51172 51.639721,52.171636 0 0 1 -0.32031,-0.51563 51.639721,52.171636 0 0 1 -0.31446,-0.51953 51.639721,52.171636 0 0 1 -0.30859,-0.52148 51.639721,52.171636 0 0 1 -0.30273,-0.52735 51.639721,52.171636 0 0 1 -0.29688,-0.52929 51.639721,52.171636 0 0 1 -0.29101,-0.53321 51.639721,52.171636 0 0 1 -0.28321,-0.53711 51.639721,52.171636 0 0 1 -0.27929,-0.54101 51.639721,52.171636 0 0 1 -0.27149,-0.54297 51.639721,52.171636 0 0 1 -0.26562,-0.54688 51.639721,52.171636 0 0 1 -0.25977,-0.55078 51.639721,52.171636 0 0 1 -0.25195,-0.55273 51.639721,52.171636 0 0 1 -0.2461,-0.55469 51.639721,52.171636 0 0 1 -0.24023,-0.55859 51.639721,52.171636 0 0 1 -0.23438,-0.5625 51.639721,52.171636 0 0 1 -0.22656,-0.5625 51.639721,52.171636 0 0 1 -0.2207,-0.56836 51.639721,52.171636 0 0 1 -0.21289,-0.56836 51.639721,52.171636 0 0 1 -0.20703,-0.57227 51.639721,52.171636 0 0 1 -0.20118,-0.57422 51.639721,52.171636 0 0 1 -0.19335,-0.57617 51.639721,52.171636 0 0 1 -0.1875,-0.57812 51.639721,52.171636 0 0 1 -0.18165,-0.58203 51.639721,52.171636 0 0 1 -0.17382,-0.58204 51.639721,52.171636 0 0 1 -0.16602,-0.58593 51.639721,52.171636 0 0 1 -0.16211,-0.58594 51.639721,52.171636 0 0 1 -0.15234,-0.58984 51.639721,52.171636 0 0 1 -0.14649,-0.58985 51.639721,52.171636 0 0 1 -0.14062,-0.5918 51.639721,52.171636 0 0 1 -0.13281,-0.59374 51.639721,52.171636 0 0 1 -0.12696,-0.59571 51.639721,52.171636 0 0 1 -0.11914,-0.59765 51.639721,52.171636 0 0 1 -0.11328,-0.59766 51.639721,52.171636 0 0 1 -0.10547,-0.59961 51.639721,52.171636 0 0 1 -0.0976,-0.60156 51.639721,52.171636 0 0 1 -0.0918,-0.60157 51.639721,52.171636 0 0 1 -0.084,-0.60351 51.639721,52.171636 0 0 1 -0.0781,-0.60352 51.639721,52.171636 0 0 1 -0.0703,-0.60351 51.639721,52.171636 0 0 1 -0.0645,-0.60547 51.639721,52.171636 0 0 1 -0.0566,-0.60742 51.639721,52.171636 0 0 1 -0.0508,-0.60547 51.639721,52.171636 0 0 1 -0.043,-0.60742 51.639721,52.171636 0 0 1 -0.0351,-0.60938 51.639721,52.171636 0 0 1 -0.0293,-0.60742 51.639721,52.171636 0 0 1 -0.0215,-0.60938 51.639721,52.171636 0 0 1 -0.0137,-0.60742 51.639721,52.171636 0 0 1 -0.008,-0.60937 51.639721,52.171636 0 0 1 -0.002,-0.35547 51.639721,52.171636 0 0 1 0.004,-0.60742 51.639721,52.171636 0 0 1 0.0117,-0.60938 51.639721,52.171636 0 0 1 0.0176,-0.60937 51.639721,52.171636 0 0 1 0.0234,-0.60742 51.639721,52.171636 0 0 1 0.0312,-0.60938 51.639721,52.171636 0 0 1 0.0391,-0.60742 51.639721,52.171636 0 0 1 0.0469,-0.60742 51.639721,52.171636 0 0 1 0.0527,-0.60547 51.639721,52.171636 0 0 1 0.0586,-0.60547 51.639721,52.171636 0 0 1 0.0664,-0.60547 51.639721,52.171636 0 0 1 0.0742,-0.60547 51.639721,52.171636 0 0 1 0.0801,-0.60351 51.639721,52.171636 0 0 1 0.0879,-0.60157 51.639721,52.171636 0 0 1 0.0957,-0.60156 51.639721,52.171636 0 0 1 0.10156,-0.59961 51.639721,52.171636 0 0 1 0.10743,-0.59961 51.639721,52.171636 0 0 1 0.11523,-0.59765 51.639721,52.171636 0 0 1 0.12305,-0.59571 51.639721,52.171636 0 0 1 0.1289,-0.5957 51.639721,52.171636 0 0 1 0.13477,-0.59375 51.639721,52.171636 0 0 1 0.14453,-0.58984 51.639721,52.171636 0 0 1 0.14844,-0.58985 51.639721,52.171636 0 0 1 0.15625,-0.58984 51.639721,52.171636 0 0 1 0.16406,-0.58594 51.639721,52.171636 0 0 1 0.16992,-0.58398 51.639721,52.171636 0 0 1 0.17578,-0.58203 51.639721,52.171636 0 0 1 0.1836,-0.58008 51.639721,52.171636 0 0 1 0.1914,-0.57813 51.639721,52.171636 0 0 1 0.19727,-0.57422 51.639721,52.171636 0 0 1 0.20312,-0.57421 51.639721,52.171636 0 0 1 0.20899,-0.57032 51.639721,52.171636 0 0 1 0.2168,-0.56836 51.639721,52.171636 0 0 1 0.22265,-0.5664 51.639721,52.171636 0 0 1 0.23047,-0.5625 51.639721,52.171636 0 0 1 0.23633,-0.56055 51.639721,52.171636 0 0 1 0.24219,-0.55664 51.639721,52.171636 0 0 1 0.25,-0.55469 51.639721,52.171636 0 0 1 0.25586,-0.55078 51.639721,52.171636 0 0 1 0.26171,-0.54883 51.639721,52.171636 0 0 1 0.26758,-0.54492 51.639721,52.171636 0 0 1 0.27344,-0.54297 51.639721,52.171636 0 0 1 0.28125,-0.53906 51.639721,52.171636 0 0 1 0.28711,-0.53516 51.639721,52.171636 0 0 1 0.29297,-0.53125 51.639721,52.171636 0 0 1 0.29883,-0.52929 51.639721,52.171636 0 0 1 0.30468,-0.52539 51.639721,52.171636 0 0 1 0.3125,-0.52149 51.639721,52.171636 0 0 1 0.31641,-0.51758 51.639721,52.171636 0 0 1 0.32422,-0.51367 51.639721,52.171636 0 0 1 0.32812,-0.50976 51.639721,52.171636 0 0 1 0.33594,-0.50586 51.639721,52.171636 0 0 1 0.33984,-0.50391 51.639721,52.171636 0 0 1 0.34766,-0.49805 51.639721,52.171636 0 0 1 0.35156,-0.49414 51.639721,52.171636 0 0 1 0.14063,-0.18945 z"
               transform="scale(0.26458333)" />
            <path
               id="path1049"
               style="opacity:0.976645;fill:#ffffff;fill-opacity:0.992157;stroke:none;stroke-width:3.46033;stroke-linecap:square;stroke-linejoin:miter;stroke-miterlimit:4;stroke-dasharray:none;stroke-opacity:1;paint-order:markers fill stroke"
               d="m 442.73047,624.38086 a 51.639721,52.171636 0 0 0 -0.14063,0.18945 51.639721,52.171636 0 0 0 -0.35156,0.49414 51.639721,52.171636 0 0 0 -0.34766,0.49805 51.639721,52.171636 0 0 0 -0.33984,0.50391 51.639721,52.171636 0 0 0 -0.33594,0.50586 51.639721,52.171636 0 0 0 -0.32812,0.50976 51.639721,52.171636 0 0 0 -0.32422,0.51367 51.639721,52.171636 0 0 0 -0.31641,0.51758 51.639721,52.171636 0 0 0 -0.3125,0.52149 51.639721,52.171636 0 0 0 -0.30468,0.52539 51.639721,52.171636 0 0 0 -0.29883,0.52929 51.639721,52.171636 0 0 0 -0.29297,0.53125 51.639721,52.171636 0 0 0 -0.28711,0.53516 51.639721,52.171636 0 0 0 -0.28125,0.53906 51.639721,52.171636 0 0 0 -0.27344,0.54297 51.639721,52.171636 0 0 0 -0.26758,0.54492 51.639721,52.171636 0 0 0 -0.26171,0.54883 51.639721,52.171636 0 0 0 -0.25586,0.55078 51.639721,52.171636 0 0 0 -0.25,0.55469 51.639721,52.171636 0 0 0 -0.24219,0.55664 51.639721,52.171636 0 0 0 -0.23633,0.56055 51.639721,52.171636 0 0 0 -0.23047,0.5625 51.639721,52.171636 0 0 0 -0.22265,0.5664 51.639721,52.171636 0 0 0 -0.2168,0.56836 51.639721,52.171636 0 0 0 -0.20899,0.57032 51.639721,52.171636 0 0 0 -0.20312,0.57421 51.639721,52.171636 0 0 0 -0.19727,0.57422 51.639721,52.171636 0 0 0 -0.1914,0.57813 51.639721,52.171636 0 0 0 -0.1836,0.58008 51.639721,52.171636 0 0 0 -0.17578,0.58203 51.639721,52.171636 0 0 0 -0.16992,0.58398 51.639721,52.171636 0 0 0 -0.16406,0.58594 51.639721,52.171636 0 0 0 -0.15625,0.58984 51.639721,52.171636 0 0 0 -0.14844,0.58985 51.639721,52.171636 0 0 0 -0.14453,0.58984 51.639721,52.171636 0 0 0 -0.13477,0.59375 51.639721,52.171636 0 0 0 -0.1289,0.5957 51.639721,52.171636 0 0 0 -0.12305,0.59571 51.639721,52.171636 0 0 0 -0.11523,0.59765 51.639721,52.171636 0 0 0 -0.10743,0.59961 51.639721,52.171636 0 0 0 -0.10156,0.59961 51.639721,52.171636 0 0 0 -0.0957,0.60156 51.639721,52.171636 0 0 0 -0.0879,0.60157 51.639721,52.171636 0 0 0 -0.0801,0.60351 51.639721,52.171636 0 0 0 -0.0742,0.60547 51.639721,52.171636 0 0 0 -0.0664,0.60547 51.639721,52.171636 0 0 0 -0.0586,0.60547 51.639721,52.171636 0 0 0 -0.0527,0.60547 51.639721,52.171636 0 0 0 -0.0469,0.60742 51.639721,52.171636 0 0 0 -0.0391,0.60742 51.639721,52.171636 0 0 0 -0.0312,0.60938 51.639721,52.171636 0 0 0 -0.0234,0.60742 51.639721,52.171636 0 0 0 -0.0176,0.60937 51.639721,52.171636 0 0 0 -0.0117,0.60938 51.639721,52.171636 0 0 0 -0.004,0.60742 51.639721,52.171636 0 0 0 0.002,0.35547 51.639721,52.171636 0 0 0 0.008,0.60937 51.639721,52.171636 0 0 0 0.0137,0.60742 51.639721,52.171636 0 0 0 0.0215,0.60938 51.639721,52.171636 0 0 0 0.0293,0.60742 51.639721,52.171636 0 0 0 0.0351,0.60938 51.639721,52.171636 0 0 0 0.043,0.60742 51.639721,52.171636 0 0 0 0.0508,0.60547 51.639721,52.171636 0 0 0 0.0566,0.60742 51.639721,52.171636 0 0 0 0.0645,0.60547 51.639721,52.171636 0 0 0 0.0703,0.60351 51.639721,52.171636 0 0 0 0.0781,0.60352 51.639721,52.171636 0 0 0 0.084,0.60351 51.639721,52.171636 0 0 0 0.0918,0.60157 51.639721,52.171636 0 0 0 0.0976,0.60156 51.639721,52.171636 0 0 0 0.10547,0.59961 51.639721,52.171636 0 0 0 0.11328,0.59766 51.639721,52.171636 0 0 0 0.11914,0.59765 51.639721,52.171636 0 0 0 0.12696,0.59571 51.639721,52.171636 0 0 0 0.13281,0.59374 51.639721,52.171636 0 0 0 0.14062,0.5918 51.639721,52.171636 0 0 0 0.14649,0.58985 51.639721,52.171636 0 0 0 0.15234,0.58984 51.639721,52.171636 0 0 0 0.16211,0.58594 51.639721,52.171636 0 0 0 0.16602,0.58593 51.639721,52.171636 0 0 0 0.17382,0.58204 51.639721,52.171636 0 0 0 0.18165,0.58203 51.639721,52.171636 0 0 0 0.1875,0.57812 51.639721,52.171636 0 0 0 0.19335,0.57617 51.639721,52.171636 0 0 0 0.20118,0.57422 51.639721,52.171636 0 0 0 0.20703,0.57227 51.639721,52.171636 0 0 0 0.21289,0.56836 51.639721,52.171636 0 0 0 0.2207,0.56836 51.639721,52.171636 0 0 0 0.22656,0.5625 51.639721,52.171636 0 0 0 0.23438,0.5625 51.639721,52.171636 0 0 0 0.24023,0.55859 51.639721,52.171636 0 0 0 0.2461,0.55469 51.639721,52.171636 0 0 0 0.25195,0.55273 51.639721,52.171636 0 0 0 0.25977,0.55078 51.639721,52.171636 0 0 0 0.26562,0.54688 51.639721,52.171636 0 0 0 0.27149,0.54297 51.639721,52.171636 0 0 0 0.27929,0.54101 51.639721,52.171636 0 0 0 0.28321,0.53711 51.639721,52.171636 0 0 0 0.29101,0.53321 51.639721,52.171636 0 0 0 0.29688,0.52929 51.639721,52.171636 0 0 0 0.30273,0.52735 51.639721,52.171636 0 0 0 0.30859,0.52148 51.639721,52.171636 0 0 0 0.31446,0.51953 51.639721,52.171636 0 0 0 0.32031,0.51563 51.639721,52.171636 0 0 0 0.32812,0.51172 51.639721,52.171636 0 0 0 0.33204,0.50781 51.639721,52.171636 0 0 0 0.33789,0.5039 51.639721,52.171636 0 0 0 0.34375,0.5 51.639721,52.171636 0 0 0 0.35156,0.4961 51.639721,52.171636 0 0 0 0.35547,0.49219 51.639721,52.171636 0 0 0 0.36133,0.48632 51.639721,52.171636 0 0 0 0.36523,0.48438 51.639721,52.171636 0 0 0 0.37305,0.47851 51.639721,52.171636 0 0 0 0.3789,0.47266 51.639721,52.171636 0 0 0 0.38282,0.4707 51.639721,52.171636 0 0 0 0.38867,0.46485 51.639721,52.171636 0 0 0 0.39453,0.46094 51.639721,52.171636 0 0 0 0.40039,0.45507 51.639721,52.171636 0 0 0 0.4043,0.45117 51.639721,52.171636 0 0 0 0.41015,0.44727 51.639721,52.171636 0 0 0 0.41407,0.44141 51.639721,52.171636 0 0 0 0.41992,0.4375 51.639721,52.171636 0 0 0 0.42578,0.43164 51.639721,52.171636 0 0 0 0.42969,0.42578 51.639721,52.171636 0 0 0 0.43554,0.42187 51.639721,52.171636 0 0 0 0.43946,0.41602 51.639721,52.171636 0 0 0 0.44531,0.41016 51.639721,52.171636 0 0 0 0.44922,0.40625 51.639721,52.171636 0 0 0 0.45312,0.40039 51.639721,52.171636 0 0 0 0.45899,0.39648 51.639721,52.171636 0 0 0 0.46289,0.38867 51.639721,52.171636 0 0 0 0.46875,0.38477 51.639721,52.171636 0 0 0 0.4707,0.3789 51.639721,52.171636 0 0 0 0.47656,0.37305 51.639721,52.171636 0 0 0 0.48047,0.36719 51.639721,52.171636 0 0 0 0.48438,0.36133 51.639721,52.171636 0 0 0 0.49023,0.35547 51.639721,52.171636 0 0 0 0.49219,0.35156 51.639721,52.171636 0 0 0 0.49805,0.34375 51.639721,52.171636 0 0 0 0.5,0.33789 51.639721,52.171636 0 0 0 0.50586,0.33398 51.639721,52.171636 0 0 0 0.50781,0.32617 51.639721,52.171636 0 0 0 0.51367,0.32032 51.639721,52.171636 0 0 0 0.51562,0.31445 51.639721,52.171636 0 0 0 0.51954,0.30859 51.639721,52.171636 0 0 0 0.52343,0.30274 51.639721,52.171636 0 0 0 0.52735,0.29492 51.639721,52.171636 0 0 0 0.52929,0.29102 51.639721,52.171636 0 0 0 0.53321,0.2832 51.639721,52.171636 0 0 0 0.53711,0.27734 51.639721,52.171636 0 0 0 0.53906,0.26953 51.639721,52.171636 0 0 0 0.54297,0.26563 51.639721,52.171636 0 0 0 0.54687,0.25781 51.639721,52.171636 0 0 0 0.54883,0.25195 51.639721,52.171636 0 0 0 0.55078,0.24415 51.639721,52.171636 0 0 0 0.55469,0.23828 51.639721,52.171636 0 0 0 0.55664,0.23242 51.639721,52.171636 0 0 0 0.56055,0.22656 51.639721,52.171636 0 0 0 0.5625,0.21875 51.639721,52.171636 0 0 0 0.56445,0.21094 51.639721,52.171636 0 0 0 0.56836,0.20703 51.639721,52.171636 0 0 0 0.56836,0.19922 51.639721,52.171636 0 0 0 0.57226,0.19141 51.639721,52.171636 0 0 0 0.57422,0.18554 51.639721,52.171636 0 0 0 0.57617,0.17774 51.639721,52.171636 0 0 0 0.57813,0.17187 51.639721,52.171636 0 0 0 0.58008,0.16602 51.639721,52.171636 0 0 0 0.58203,0.1582 51.639721,52.171636 0 0 0 0.58398,0.15039 51.639721,52.171636 0 0 0 0.58594,0.14453 51.639721,52.171636 0 0 0 0.58789,0.13672 51.639721,52.171636 0 0 0 0.58789,0.13086 51.639721,52.171636 0 0 0 0.58985,0.12305 51.639721,52.171636 0 0 0 0.59179,0.11718 51.639721,52.171636 0 0 0 0.59375,0.10938 51.639721,52.171636 0 0 0 0.59375,0.10156 51.639721,52.171636 0 0 0 0.59571,0.0957 51.639721,52.171636 0 0 0 0.5957,0.0898 51.639721,52.171636 0 0 0 0.59766,0.0801 51.639721,52.171636 0 0 0 0.59765,0.0762 51.639721,52.171636 0 0 0 0.59961,0.0664 51.639721,52.171636 0 0 0 0.59961,0.0606 51.639721,52.171636 0 0 0 0.59961,0.0527 51.639721,52.171636 0 0 0 0.60156,0.0469 51.639721,52.171636 0 0 0 0.60157,0.0391 51.639721,52.171636 0 0 0 0.60156,0.0312 51.639721,52.171636 0 0 0 0.60156,0.0254 51.639721,52.171636 0 0 0 0.60352,0.0176 51.639721,52.171636 0 0 0 0.60156,0.01 51.639721,52.171636 0 0 0 0.60351,0.004 51.639721,52.171636 0 0 0 0.35157,0 51.639721,52.171636 0 0 0 0.60156,-0.008 51.639721,52.171636 0 0 0 0.60351,-0.0156 51.639721,52.171636 0 0 0 0.60157,-0.0215 51.639721,52.171636 0 0 0 0.60156,-0.0293 51.639721,52.171636 0 0 0 0.60156,-0.0352 51.639721,52.171636 0 0 0 0.60156,-0.043 51.639721,52.171636 0 0 0 0.60157,-0.0508 51.639721,52.171636 0 0 0 0.59961,-0.0586 51.639721,52.171636 0 0 0 0.59961,-0.0645 51.639721,52.171636 0 0 0 0.59765,-0.0703 51.639721,52.171636 0 0 0 0.59766,-0.0781 51.639721,52.171636 0 0 0 0.59765,-0.0859 51.639721,52.171636 0 0 0 0.59571,-0.0937 51.639721,52.171636 0 0 0 0.59375,-0.0996 51.639721,52.171636 0 0 0 0.59375,-0.10547 51.639721,52.171636 0 0 0 0.59179,-0.11328 51.639721,52.171636 0 0 0 0.5918,-0.1211 51.639721,52.171636 0 0 0 0.58789,-0.12695 51.639721,52.171636 0 0 0 0.58789,-0.13476 51.639721,52.171636 0 0 0 0.58789,-0.14258 51.639721,52.171636 0 0 0 0.58399,-0.14844 51.639721,52.171636 0 0 0 0.58203,-0.1543 51.639721,52.171636 0 0 0 0.58203,-0.16211 51.639721,52.171636 0 0 0 0.57813,-0.16992 51.639721,52.171636 0 0 0 0.57812,-0.17578 51.639721,52.171636 0 0 0 0.57422,-0.18164 51.639721,52.171636 0 0 0 0.57226,-0.18945 51.639721,52.171636 0 0 0 0.57032,-0.19532 51.639721,52.171636 0 0 0 0.56836,-0.20312 51.639721,52.171636 0 0 0 0.5664,-0.20899 51.639721,52.171636 0 0 0 0.56446,-0.21679 51.639721,52.171636 0 0 0 0.56054,-0.22266 51.639721,52.171636 0 0 0 0.5586,-0.22851 51.639721,52.171636 0 0 0 0.55468,-0.23633 51.639721,52.171636 0 0 0 0.55274,-0.24219 51.639721,52.171636 0 0 0 0.55078,-0.25 51.639721,52.171636 0 0 0 0.54687,-0.25586 51.639721,52.171636 0 0 0 0.54493,-0.26172 51.639721,52.171636 0 0 0 0.54101,-0.26758 51.639721,52.171636 0 0 0 0.53711,-0.27539 51.639721,52.171636 0 0 0 0.53516,-0.27929 51.639721,52.171636 0 0 0 0.53125,-0.28711 51.639721,52.171636 0 0 0 0.52929,-0.29492 51.639721,52.171636 0 0 0 0.52344,-0.29883 51.639721,52.171636 0 0 0 0.52149,-0.30664 51.639721,52.171636 0 0 0 0.51757,-0.31055 51.639721,52.171636 0 0 0 0.51368,-0.31836 51.639721,52.171636 0 0 0 0.50976,-0.32422 51.639721,52.171636 0 0 0 0.50781,-0.33008 51.639721,52.171636 0 0 0 0.50196,-0.33593 51.639721,52.171636 0 0 0 0.49804,-0.3418 51.639721,52.171636 0 0 0 0.4961,-0.34766 51.639721,52.171636 0 0 0 0.49023,-0.35351 51.639721,52.171636 0 0 0 0.48633,-0.35938 51.639721,52.171636 0 0 0 0.48242,-0.36523 51.639721,52.171636 0 0 0 0.47852,-0.3711 51.639721,52.171636 0 0 0 0.47461,-0.37695 51.639721,52.171636 0 0 0 0.38281,-0.31055 51.639721,52.171636 0 0 0 10.0625,-30.93945 51.639721,52.171636 0 0 0 -51.64063,-52.17187 51.639721,52.171636 0 0 0 -32.53515,11.6582 z"
               transform="scale(0.26458333)" />
            <g
               id="g1055"
               transform="translate(2.5332447,1.2666223)">
              <path
                 id="ellipse1051"
                 style="opacity:0.976645;fill:#000000;fill-opacity:0.992157;stroke:none;stroke-width:0.265735;stroke-linecap:square;stroke-linejoin:miter;stroke-miterlimit:4;stroke-dasharray:none;stroke-opacity:1;paint-order:markers fill stroke"
                 d="m 132.37366,177.39749 a 4.0929742,3.8818707 0 0 1 -4.09297,3.88187 4.0929742,3.8818707 0 0 1 -4.09298,-3.88187 4.0929742,3.8818707 0 0 1 4.09298,-3.88187 4.0929742,3.8818707 0 0 1 4.09297,3.88187 z" />
              <path
                 id="ellipse1053"
                 style="opacity:0.976645;fill:#ffffff;fill-opacity:0.992157;stroke:none;stroke-width:0.127092;stroke-linecap:square;stroke-linejoin:miter;stroke-miterlimit:4;stroke-dasharray:none;stroke-opacity:1;paint-order:markers fill stroke"
                 d="m 131.67,175.42719 a 2.052305,1.7708335 0 0 1 -2.05231,1.77083 2.052305,1.7708335 0 0 1 -2.0523,-1.77083 2.052305,1.7708335 0 0 1 2.0523,-1.77084 2.052305,1.7708335 0 0 1 2.05231,1.77084 z" />
            </g>
          </g>
          <g
             id="g1115"
             transform="matrix(-0.555048,-0.01271328,0.01043563,-0.54989948,281.8613,365.23101)">
            <path
               style="fill:#000000;fill-opacity:0.992157;stroke:none;stroke-width:0.529167;stroke-linecap:butt;stroke-linejoin:miter;stroke-miterlimit:4;stroke-dasharray:none;stroke-opacity:1"
               d="m 259.33317,358.20365 c 7.79531,2.25845 15.29873,2.50589 22.72258,-0.64064 -3.48888,5.34653 -2.45107,9.76849 -0.41821,13.98721 -5.98784,2.69687 -14.31079,2.08204 -22.02556,-0.42709 2.70215,-3.59288 1.40788,-8.20609 -0.27881,-12.91948 z"
               id="path1095"
               sodipodi:nodetypes="ccccc" />
            <path
               style="fill:#ffffff;fill-opacity:0.992157;stroke:none;stroke-width:0.468589;stroke-linecap:butt;stroke-linejoin:miter;stroke-miterlimit:4;stroke-dasharray:none;stroke-opacity:1"
               d="m 260.57046,359.26697 c 6.90039,2.00065 13.5424,2.21983 20.11397,-0.56751 -3.08835,4.73621 -2.16969,8.6534 -0.37019,12.39055 -5.30042,2.38902 -12.66788,1.84437 -19.49698,-0.37833 2.39193,-3.18276 1.24625,-7.26937 -0.2468,-11.44471 z"
               id="path1103"
               sodipodi:nodetypes="ccccc" />
            <path
               style="fill:none;stroke:#000000;stroke-width:0.529167;stroke-linecap:butt;stroke-linejoin:miter;stroke-miterlimit:4;stroke-dasharray:none;stroke-opacity:1"
               d="m 257.18672,357.41398 c 1.09281,0.50437 1.94851,0.24336 3.38374,1.85299 l 8.31278,1.2123 7.42124,-0.72599 4.37995,-1.05382 3.20262,-2.4148 -3.20262,2.4148"
               id="path1105"
               sodipodi:nodetypes="ccccccc" />
            <path
               style="fill:none;stroke:#000000;stroke-width:0.264583px;stroke-linecap:butt;stroke-linejoin:miter;stroke-opacity:1"
               d="m 274.81292,365.18949 -1.15303,0.15871 -2.11186,-2.92273 0.63022,7.41653 -2.08395,-4.0479 -1.40108,0.0999 -1.57409,-2.63151 -0.33466,5.10805 -1.89489,-2.75715 -3.16333,-0.0644"
               id="path1109" />
          </g>
        </g>
        <g
           id="g931"
           transform="matrix(1.4151397,0,0,1.1175803,-56.455445,-1.8216592)">
          <path
             id="rect837"
             style="opacity:0.976645;fill:#999999;fill-opacity:1;stroke-width:0.546435;stroke-linecap:square;paint-order:stroke fill markers"
             d="m 119.35818,103.78327 c -2.65956,0 -4.80094,1.96439 -4.80094,4.40415 v 15.96831 c 0,2.43976 2.14138,4.40415 4.80094,4.40415 h 25.59653 l 7.32595,6.54105 6.94039,-6.54105 h 8.7e-4 c 2.65959,0 4.8004,-1.96439 4.8004,-4.40415 v -15.96831 c 0,-2.43976 -2.14081,-4.40415 -4.8004,-4.40415 z" />
          <path
             id="path843"
             style="opacity:0.976645;fill:#ffffff;fill-opacity:1;stroke-width:0.527207;stroke-linecap:square;paint-order:stroke fill markers"
             d="m 120.00319,104.31707 c -2.58851,0 -4.67266,1.87877 -4.67266,4.21222 v 15.27243 c 0,2.33343 2.08415,4.21221 4.67266,4.21221 h 24.91258 l 7.1302,6.25602 6.75495,-6.25602 h 8.8e-4 c 2.58853,0 4.67214,-1.87878 4.67214,-4.21221 v -15.27243 c 0,-2.33345 -2.08361,-4.21222 -4.67214,-4.21222 z" />
          <g
             aria-label="NAKRM M!"
             transform="matrix(0.91279416,0,0,0.86571117,17.788865,33.355242)"
             id="text847"
             style="font-style:normal;font-variant:normal;font-weight:normal;font-stretch:normal;font-size:11.0604px;line-height:1.25;font-family:Mistral;-inkscape-font-specification:'Mistral, Normal';font-variant-ligatures:normal;font-variant-caps:normal;font-variant-numeric:normal;font-variant-east-asian:normal;fill:#000000;fill-opacity:1;stroke:none;stroke-width:0.276511">
            <path
               d="m 112.05174,94.273611 -0.0864,-0.351038 q 0.0324,-0.108012 0.0648,-0.216023 0.0324,-0.113413 0.0594,-0.221424 0.0324,-0.07561 0.10801,-0.113413 0.081,-0.0432 0.21062,-0.0432 0.0486,0 0.14582,-0.0216 0.10261,-0.0216 0.14581,-0.0216 0.0486,0 0.12962,0.07561 0.081,0.07561 0.11341,0.08641 0.0378,-0.027 0.0918,-0.09181 0.0594,-0.06481 0.14042,-0.172819 0.0702,-0.08641 0.13501,-0.140415 0.0648,-0.05401 0.14042,-0.07561 0.0864,0.0432 0.15121,0.07021 0.0378,0.0216 0.0486,0.0486 0.0162,0.027 0.0162,0.07561 0,0.027 -0.027,0.118812 -0.027,0.08641 -0.081,0.237626 -0.0594,0.162018 -0.0918,0.27003 -0.0324,0.108011 -0.0432,0.167418 -0.081,0.124213 -0.12961,0.226824 -0.0432,0.09721 -0.0432,0.18362 0,0.108012 0.0648,0.324035 0.0648,0.210623 0.18902,0.529258 0.17282,0.432047 0.35104,0.901898 0.16202,0.518456 0.34024,1.004509 0.17822,0.480652 0.37264,0.9235 0.19982,0.46445 0.32943,0.691275 0.12962,0.226824 0.19442,0.226824 0.054,0 0.0756,-0.05941 0.027,-0.06481 0.027,-0.199822 0,-0.05401 0.0108,-0.140415 0.0162,-0.08641 0.0486,-0.18902 0.0486,-0.145816 0.0918,-0.329436 0.054,-0.280831 0.0972,-0.491453 0.0486,-0.210623 0.081,-0.36184 0.0216,-0.09721 0.0486,-0.410444 0.027,-0.313234 0.054,-0.847892 0,-0.05401 0.0162,-0.151217 0.0216,-0.09721 0.0378,-0.221424 0.0216,-0.124213 0.0324,-0.210623 0.0108,-0.09181 0.0108,-0.162017 0,-0.124214 -0.027,-0.36724 -0.027,-0.248427 -0.027,-0.37264 0.081,-0.340237 0.15121,-0.664272 0.0594,-0.280831 0.11342,-0.464451 0.054,-0.18902 0.0918,-0.286231 0.0864,-0.194421 0.21062,-0.334836 0.12421,-0.145816 0.27543,-0.237626 h 0.0432 q 0.054,0 0.0702,0.0216 0.0216,0.0216 0.0216,0.07021 -0.027,0.113412 -0.0486,0.172819 0.0162,0.09721 0.0324,0.205222 -0.0162,0.135015 -0.0378,0.226825 -0.0108,0.05941 -0.0216,0.18362 -0.0108,0.118812 -0.0108,0.291631 0,0.06481 -0.0162,0.280831 -0.0162,0.210622 -0.0594,0.567061 -0.0324,0.507655 -0.081,1.00991 -0.0432,0.502254 -0.0918,1.004509 -0.0432,0.604865 -0.12422,1.10712 -0.081,0.496854 -0.19442,0.891097 -0.027,0.237625 -0.10261,0.529257 -0.0702,0.291632 -0.18362,0.631868 l -0.16742,0.27003 q -0.0162,0.0216 -0.34023,0.140411 -0.32404,0.11341 -0.36184,0.11341 -0.081,0 -0.24303,-0.210617 -0.16202,-0.216023 -0.38344,-0.65347 -0.21062,-0.394243 -0.33484,-0.648071 -0.12421,-0.259228 -0.15661,-0.388842 -0.0108,-0.0486 -0.0324,-0.124213 -0.0216,-0.07561 -0.0486,-0.172819 -0.10801,-0.237626 -0.27543,-0.588664 -0.16202,-0.351038 -0.37804,-0.83169 -0.0378,-0.118813 -0.0972,-0.226825 -0.054,-0.113412 -0.13502,-0.237626 l -0.0378,0.0162 q -0.0378,0.108012 -0.0756,0.270029 -0.0378,0.162018 -0.0864,0.388843 -0.054,0.145815 -0.11341,0.259228 -0.081,0.313234 -0.18362,0.680474 -0.10261,0.367239 -0.22143,0.788485 -0.0324,0.140415 -0.0648,0.291632 -0.0324,0.151216 -0.0756,0.313234 l -0.0972,0.178219 q -0.0216,0.162018 -0.0486,0.318635 -0.0378,0.124213 -0.0972,0.302432 -0.054,0.172816 -0.13501,0.415846 -0.0162,0.12421 -0.081,0.18362 -0.0594,0.0648 -0.16742,0.0702 -0.0108,0.0216 -0.0432,0.0432 -0.0324,0.027 -0.10801,0.0486 -0.054,0.0108 -0.081,-0.0594 -0.027,-0.0648 -0.027,-0.19442 0,-0.0756 0.027,-0.23763 0.027,-0.16202 0.081,-0.410441 0.0594,-0.28083 0.0918,-0.437447 0.0378,-0.162018 0.0486,-0.205223 0.0216,-0.129614 0.0486,-0.340236 0.027,-0.210623 0.0594,-0.486053 0.0108,-0.07021 0.0324,-0.172819 0.027,-0.108012 0.0648,-0.248427 0.027,-0.108012 0.10801,-0.583263 0.081,-0.480652 0.21063,-1.333945 0.14041,-0.837091 0.27002,-1.684983 z"
               style="font-style:normal;font-variant:normal;font-weight:normal;font-stretch:normal;font-size:11.0604px;font-family:Mistral;-inkscape-font-specification:'Mistral, Normal';font-variant-ligatures:normal;font-variant-caps:normal;font-variant-numeric:normal;font-variant-east-asian:normal;stroke-width:0.276511"
               id="path946" />
            <path
               d="m 116.60444,98.145831 q -0.0162,-0.05941 -0.0162,-0.09721 -0.005,-0.0378 -0.005,-0.06481 0,-0.178219 0.0432,-0.302433 0.0432,-0.129614 0.12961,-0.216023 0.0216,-0.0216 0.10802,-0.06481 0.0918,-0.0432 0.23762,-0.102612 0.10261,-0.0486 0.16202,-0.113412 0.0648,-0.07021 0.0702,-0.167418 0.0162,-0.07561 0.0648,-0.172819 0.0486,-0.09721 0.11342,-0.210623 0.0216,-0.0324 0.12961,-0.37264 0.10801,-0.340237 0.30243,-0.999108 0.054,-0.199822 0.10802,-0.345638 0.054,-0.145816 0.0918,-0.248427 0.17281,-0.45905 0.28083,-0.599465 0.11341,-0.145816 0.16741,-0.237626 v -0.027 l -0.16741,-0.264628 0.21062,-0.243027 0.27003,-0.05401 q 0.081,-0.0108 0.14581,-0.151216 0.0702,-0.140415 0.23763,-0.307833 0.0378,-0.0108 0.11881,-0.06481 0.0864,-0.05941 0.21603,-0.162018 0.11341,-0.09181 0.19442,-0.135015 0.081,-0.0432 0.12421,-0.0432 0.14582,0 0.21062,0.05941 0.0648,0.05941 0.0648,0.156617 0,0.118813 -0.12421,0.345638 -0.12422,0.226824 -0.12422,0.345637 0,0.05401 0.0216,0.09181 0.027,0.0324 0.0594,0.04321 l 0.64807,0.351038 q 0.054,0.0216 0.0972,0.172819 0.0432,0.145815 0.0702,0.405044 0.0324,0.216023 0.0486,0.361839 0.0216,0.140415 0.0216,0.226824 -0.0378,0.232226 -0.0756,0.469851 0.054,0.302433 0.11881,0.637269 -0.0324,0.318635 -0.0702,0.648071 0,0.0324 0.0108,0.05941 0.0162,0.0216 0.0432,0.027 0.0918,0.0054 0.13502,0.0486 0.0486,0.04321 0.0486,0.118813 0,0.09721 -0.0324,0.156617 -0.027,0.05401 -0.081,0.08641 -0.0702,0.0432 -0.11341,0.07561 -0.0378,0.0324 -0.054,0.05401 l 0.0702,0.334836 -0.0972,0.766883 q 0,0.09721 -0.0162,0.248427 -0.0162,0.151217 -0.0486,0.351038 -0.054,0.145816 -0.081,0.243027 -0.027,0.09721 -0.027,0.129614 0.027,0.09181 0.0486,0.194421 -0.0324,0.145816 -0.0702,0.291632 -0.0324,0.145825 -0.0648,0.286235 -0.0594,0.18902 -0.15662,0.27543 -0.0972,0.0918 -0.22682,0.0918 -0.0702,0 -0.10801,-0.0648 -0.0324,-0.0594 -0.0324,-0.18362 0,-0.054 0.0162,-0.15661 0.0216,-0.10261 0.0216,-0.156626 0,-0.0378 -0.0108,-0.102611 -0.0108,-0.06481 -0.0108,-0.113412 0,-0.151216 0.027,-0.480652 0.0324,-0.334836 0.0324,-0.502255 -0.027,-0.09181 -0.054,-0.18902 0.0162,-0.102611 0.0216,-0.205222 0.005,-0.108012 -0.005,-0.199822 l 0.081,-0.145816 -0.0702,-0.502254 -0.0378,-0.0162 q -0.0324,0 -0.0972,0.027 -0.0594,0.0216 -0.15121,0.07561 -0.0648,0.0216 -0.20523,0.0486 -0.13501,0.0216 -0.36183,0.027 -0.0972,0.0486 -0.18362,0.08641 -0.12422,0.027 -0.31324,0.09721 -0.18902,0.06481 -0.43745,0.162018 -0.14581,0.07021 -0.27003,0.113412 -0.11881,0.0378 -0.19982,0.0378 -0.0648,0 -0.10801,0.0486 -0.0432,0.04861 -0.0702,0.140416 -0.0162,0.08641 -0.081,0.237625 -0.0594,0.151217 -0.16202,0.378041 -0.0216,0.05941 -0.0594,0.18362 -0.0378,0.124214 -0.0864,0.307834 -0.0324,0.07021 -0.0756,0.178219 -0.0432,0.102611 -0.0972,0.243026 0,0.06481 -0.0162,0.162019 -0.0108,0.0918 -0.0378,0.21602 -0.027,0.0756 -0.0756,0.18902 -0.0432,0.11882 -0.11341,0.25923 -0.0432,0.0864 -0.12422,0.12422 -0.081,0.0432 -0.21062,0.0432 -0.0918,0 -0.14041,-0.0648 -0.054,-0.0594 -0.054,-0.18902 0,-0.14041 0.0324,-0.32403 0.0324,-0.17822 0.10261,-0.394246 0.0756,-0.286231 0.12962,-0.464451 0.054,-0.178219 0.0594,-0.264628 0.0162,-0.0378 0.0486,-0.135015 0.0324,-0.09721 0.0756,-0.237626 0.0486,-0.135014 0.0918,-0.307833 l -0.027,-0.04321 -0.17281,0.027 q -0.0594,-0.0054 -0.0864,-0.0486 -0.027,-0.04321 -0.027,-0.113412 0,-0.03781 0.0108,-0.08101 0.0108,-0.04861 0.0324,-0.113413 z m 1.96041,-0.993707 q 0.12421,0 0.36724,-0.05941 0.24303,-0.05941 0.36724,-0.05941 0.0756,0.0162 0.15122,0.027 0.13501,-0.027 0.26463,-0.05941 0.12961,-0.0378 0.26462,-0.06481 0.054,-0.0108 0.081,-0.0378 0.027,-0.0324 0.027,-0.08101 -0.0108,-0.162017 -0.0108,-0.221424 0,-0.102611 0.0108,-0.226824 0.0162,-0.129614 0.0432,-0.264629 l -0.0648,-0.243026 0.0216,-0.221424 q -0.0216,-0.118813 -0.0378,-0.221424 -0.0108,-0.108012 0,-0.17822 -0.0108,-0.0216 -0.0378,-0.07021 -0.027,-0.04861 -0.0594,-0.102612 -0.054,-0.09181 -0.11341,-0.172818 -0.054,-0.08641 -0.10801,-0.172819 -0.0756,-0.102611 -0.16202,-0.151216 -0.0864,-0.04861 -0.17822,-0.04861 -0.10801,0 -0.22142,0.172819 -0.11342,0.172819 -0.21063,0.523857 -0.0162,0.04321 -0.0918,0.178219 -0.0702,0.135015 -0.20522,0.351038 -0.0216,0.205223 -0.14581,0.513056 -0.12422,0.302433 -0.34564,0.712877 -0.027,0.0378 -0.0324,0.06481 0,0.027 0,0.05941 0,0.0378 0.0162,0.05941 0.0216,0.0162 0.0594,0.0162 0.054,0 0.17282,-0.0108 0.12422,-0.0108 0.17822,-0.0108 z"
               style="font-style:normal;font-variant:normal;font-weight:normal;font-stretch:normal;font-size:11.0604px;font-family:Mistral;-inkscape-font-specification:'Mistral, Normal';font-variant-ligatures:normal;font-variant-caps:normal;font-variant-numeric:normal;font-variant-east-asian:normal;stroke-width:0.276511"
               id="path948" />
            <path
               d="m 126.43351,98.642685 q 0.22142,0.469851 0.22142,0.496854 -0.10801,0.113413 -0.29163,0.253828 -0.18362,0.140415 -0.44825,0.318634 -0.28083,0.194421 -0.47525,0.280831 -0.18902,0.08641 -0.29163,0.08641 -0.22143,0 -0.39965,-0.113373 -0.17282,-0.113412 -0.29703,-0.356439 -0.0162,-0.0324 -0.0378,-0.07021 -0.0162,-0.04321 -0.0432,-0.08641 -0.13501,-0.129614 -0.25923,-0.259228 -0.0594,-0.06481 -0.22682,-0.307833 -0.16742,-0.248427 -0.42125,-0.675074 -0.11341,-0.199821 -0.24302,-0.405043 -0.12962,-0.205223 -0.27003,-0.415846 -0.0378,0.05401 -0.0864,0.253828 -0.0432,0.194421 -0.0864,0.534658 0,0.05401 -0.0378,0.178219 -0.0324,0.124214 -0.0324,0.18362 0,0.027 0.0108,0.09181 0.0162,0.05941 0.0162,0.08641 0,0.172818 -0.0486,0.523856 -0.0486,0.351038 -0.0486,0.523857 0,0.140415 -0.0486,0.205222 -0.0432,0.06481 -0.15122,0.06481 -0.11341,-0.0108 -0.17822,-0.0324 -0.081,0.0216 -0.15121,0.0324 -0.0594,0 -0.0972,-0.07021 -0.0324,-0.07561 -0.0324,-0.232225 0,-0.05401 0.027,-0.172819 0.027,-0.118813 0.027,-0.18362 0,-0.04321 -0.0162,-0.135015 -0.0162,-0.09721 -0.0162,-0.140415 0,-0.04321 0.0216,-0.270029 0.027,-0.226825 0.081,-0.653471 0.0486,-0.437448 0.0864,-0.691275 0.0378,-0.253828 0.054,-0.307833 0.0162,-0.0378 0.0432,-0.09181 0.027,-0.05401 0.0378,-0.129614 l -0.081,-0.307834 q 0.0432,-0.248427 0.10261,-0.729079 0.0648,-0.486053 0.15122,-1.220532 0.0486,-0.432047 0.0756,-0.669673 0.027,-0.237626 0.0324,-0.270029 0.0756,-0.221424 0.23223,-0.36724 0.15661,-0.151217 0.39964,-0.226825 0.0324,-0.0216 0.0756,-0.05941 0.0486,-0.0378 0.11341,-0.08641 0.0702,-0.0108 0.17822,0.194421 0.10801,0.205223 0.10801,0.302433 0,0.04321 -0.0108,0.118813 -0.0108,0.07021 -0.0432,0.167418 -0.0378,0.118813 -0.0594,0.194421 -0.0216,0.07561 -0.027,0.102612 -0.0864,0.297032 -0.19442,0.74528 -0.10801,0.448249 -0.23762,1.058515 -0.0108,0.04861 -0.027,0.124214 -0.0108,0.07021 -0.0432,0.172818 -0.0216,0.09181 -0.0378,0.167419 -0.0162,0.07561 -0.0162,0.129614 0,0.07021 0.054,0.156617 0.16202,-0.05941 0.51846,-0.442848 0.35644,-0.383442 0.9181,-1.074717 0.57246,-0.702076 0.85869,-1.139524 0.28623,-0.442848 0.28623,-0.621067 0,-0.06481 -0.0864,-0.162018 -0.081,-0.102611 -0.081,-0.172818 0,-0.140416 0.12962,-0.232225 0.12961,-0.09721 0.39424,-0.145816 0.054,-0.0054 0.16742,-0.09181 0.11341,-0.09181 0.19442,-0.09181 0.081,0.0162 0.15121,0.0216 0.0918,-0.0486 0.17822,-0.102611 0.081,0.08101 0.11342,0.18362 0.0378,0.09721 0.0378,0.226825 0,0.259228 -0.0648,0.459049 -0.0594,0.194421 -0.18902,0.313234 -0.0378,0.0324 -0.081,0.07561 -0.0432,0.0432 -0.0864,0.09721 -0.0864,0.18362 -0.23762,0.405044 -0.15122,0.221424 -0.36184,0.486053 -0.46445,0.572462 -0.85329,1.004509 -0.38885,0.432047 -0.70208,0.723678 -0.12961,0.124214 -0.19442,0.216024 -0.0648,0.08641 -0.0648,0.151216 0.0918,0.178219 0.16202,0.329436 0.12961,0.313234 0.27003,0.610266 0.14582,0.297032 0.28623,0.599465 0.23763,0.453649 0.43745,0.680474 0.20522,0.221424 0.37264,0.221424 0.027,0 0.16202,-0.05941 0.13501,-0.06481 0.35643,-0.178219 0.0486,-0.07021 0.20523,-0.167418 0.16201,-0.102611 0.16742,-0.135015 z"
               style="font-style:normal;font-variant:normal;font-weight:normal;font-stretch:normal;font-size:11.0604px;font-family:Mistral;-inkscape-font-specification:'Mistral, Normal';font-variant-ligatures:normal;font-variant-caps:normal;font-variant-numeric:normal;font-variant-east-asian:normal;stroke-width:0.276511"
               id="path950" />
            <path
               d="m 128.48033,97.222331 q 0,0.108012 0.15121,0.291632 0.15662,0.178219 0.46445,0.442848 0.19983,0.167418 0.41045,0.329436 0.21602,0.156617 0.42664,0.318634 0.0918,0.07561 0.23763,0.199822 0.14582,0.118813 0.34024,0.28083 0.14041,0.108012 0.29163,0.216024 0.15662,0.108012 0.33483,0.216023 0.11882,0.09181 0.26463,0.199822 0.14582,0.108012 0.33484,0.232225 0.10801,0.0648 0.16742,0.237623 0.0594,0.16742 0.0702,0.43745 l -0.0486,0.14042 -0.054,0.027 q -0.054,0 -0.14581,-0.0486 -0.0864,-0.0432 -0.22143,-0.12961 -0.027,-0.0162 -0.24842,-0.11881 -0.21603,-0.10261 -0.62647,-0.29164 -0.22682,-0.0972 -0.41585,-0.216019 -0.18902,-0.124213 -0.34563,-0.259228 -0.0918,-0.08101 -0.23763,-0.178219 -0.14041,-0.09721 -0.33483,-0.210623 -0.19983,-0.113412 -0.34564,-0.216024 -0.14582,-0.102611 -0.23223,-0.172818 -0.29163,-0.237626 -0.47525,-0.36184 -0.18362,-0.124213 -0.25383,-0.124213 -0.054,0.07561 -0.0594,0.156617 -0.0648,0.253828 -0.14042,0.64267 -0.0702,0.383441 -0.15662,0.896497 0,0.0918 -0.0324,0.13501 -0.0324,0.0486 -0.0972,0.0486 -0.21062,0 -0.31863,-0.10261 -0.10802,-0.10261 -0.10802,-0.307835 0,-0.27543 0.0324,-0.577862 0.0378,-0.302433 0.11881,-0.637269 0.027,-0.145816 0.0378,-0.259229 0.0162,-0.118812 0.0162,-0.216023 0,-0.248427 -0.21603,-0.426646 -0.21062,-0.17822 -0.21062,-0.253828 0,-0.118813 0.0324,-0.205222 0.0378,-0.09181 0.10802,-0.145816 0.17821,-0.113412 0.32943,-0.216023 0.0378,-0.0216 0.0486,-0.07021 0.0162,-0.05401 0.0162,-0.145816 0,-0.05401 0,-0.113412 0,-0.06481 0,-0.118813 0.0162,-0.480652 0.027,-0.999108 0,-0.03781 0,-0.118813 0,-0.08101 -0.0108,-0.210623 -0.0108,-0.09721 -0.005,-0.178219 0.005,-0.08641 0.005,-0.156617 -0.0324,-0.108012 -0.0594,-0.18362 -0.0216,-0.08101 -0.0216,-0.151217 0,-0.06481 0.0108,-0.199821 0.0108,-0.140416 0.0108,-0.199822 0,-0.07561 -0.0162,-0.210623 -0.0108,-0.135015 -0.0108,-0.205222 0,-0.194421 0.0864,-0.372641 0.0918,-0.178219 0.27543,-0.351038 0.17822,-0.151216 0.36184,-0.226824 0.18902,-0.08101 0.38344,-0.08101 0.0918,0 0.27003,0.0162 0.18362,0.0108 0.28623,0.0108 0.0702,0 0.38344,0.118813 0.12422,0.0108 0.22143,0.0324 0.0972,0.0162 0.15661,0.0378 0.13502,0.06481 0.21063,0.102611 0.0756,0.0324 0.10801,0.0378 0.0918,0.0324 0.15662,0.05401 0.0702,0.0216 0.11341,0.05401 0.0702,0.0324 0.16202,0.07561 0.0972,0.04321 0.21602,0.09721 0.19442,0.09721 0.36184,0.226825 0.17282,0.129614 0.32403,0.28083 0.17282,0.194421 0.25923,0.383442 0.0864,0.18362 0.0864,0.367239 0,0.05401 -0.0108,0.156617 -0.005,0.09721 -0.027,0.221424 -0.0162,0.156617 -0.16202,0.340237 -0.14582,0.17822 -0.42125,0.394243 -0.24302,0.189021 -0.45365,0.318635 -0.21062,0.124213 -0.38884,0.178219 -0.0702,0.04861 -0.10801,0.09181 -0.054,0.05401 -0.22682,0.151216 -0.17282,0.09721 -0.46986,0.243027 -0.54005,0.264629 -0.76688,0.351038 -0.22682,0.08101 -0.22682,0.178219 z m -0.56706,-2.603082 q 0.10261,-0.07561 0.19442,-0.145816 0.0918,-0.07561 0.23762,-0.07561 0.0648,0 0.15662,0.145816 0.0972,0.140415 0.0972,0.210622 0,0.03781 -0.027,0.172819 -0.027,0.135015 -0.0864,0.36724 -0.12422,0.523857 -0.14042,0.658872 -0.0162,0.129614 -0.0702,0.410444 -0.0216,0.07021 -0.0432,0.18362 0,0.0486 0.0162,0.07021 0.0216,0.0216 0.054,0.0216 1.07471,-0.540059 1.11252,-0.561661 0.0432,-0.0108 0.0918,-0.027 0.0486,-0.0216 0.0918,-0.04321 l 0.081,-0.102611 q 0.31323,-0.199821 0.64807,-0.426646 0.21062,-0.162018 0.31323,-0.318635 0.10261,-0.156617 0.10261,-0.313234 0,-0.199821 -0.23222,-0.394242 -0.23223,-0.194421 -0.69668,-0.372641 -0.39424,-0.156617 -0.71828,-0.226824 -0.32403,-0.07561 -0.58866,-0.07561 -0.34564,0 -0.52386,0.124214 -0.17282,0.118813 -0.17282,0.356439 0,0.183619 0.027,0.28083 0.027,0.09181 0.0756,0.08101 z"
               style="font-style:normal;font-variant:normal;font-weight:normal;font-stretch:normal;font-size:11.0604px;font-family:Mistral;-inkscape-font-specification:'Mistral, Normal';font-variant-ligatures:normal;font-variant-caps:normal;font-variant-numeric:normal;font-variant-east-asian:normal;stroke-width:0.276511"
               id="path952" />
            <path
               d="m 132.55777,94.900079 q -0.0162,-0.108011 -0.0378,-0.226824 0,0.04861 0.0162,-0.07561 0.0162,-0.124213 0.0432,-0.426646 0.0432,-0.05941 0.0594,-0.102611 0.0216,-0.0486 0.0378,-0.08641 -0.0486,-0.05941 -0.0756,-0.09721 -0.0216,-0.04321 -0.0216,-0.07021 0.0432,-0.329435 0.081,-0.626467 0.005,-0.08101 0.0918,-0.18362 0.0918,-0.102612 0.24843,-0.221424 0.12421,-0.102612 0.24302,-0.172819 0.11882,-0.07021 0.22683,-0.113412 0.14581,-0.04861 0.17282,-0.08101 0.027,-0.0324 0.0594,-0.0324 0.0864,0 0.12962,0.08641 0.0486,0.08641 0.0486,0.259228 0,0.09181 -0.0486,0.253827 -0.0432,0.162018 -0.0432,0.237626 0,0.0324 0.005,0.248427 0.0108,0.216023 0.027,0.621067 0.005,0.291632 0.081,0.621068 0.081,0.329436 0.20522,0.685874 0.16742,0.464451 0.36184,0.696676 0.19442,0.226824 0.42664,0.226824 0.18362,0 0.48606,-0.237625 0.30243,-0.237626 0.71287,-0.712878 0.31324,-0.36724 0.55626,-0.685874 0.24843,-0.318635 0.39965,-0.583263 0.14041,-0.237626 0.32943,-0.426647 0.18902,-0.18902 0.43205,-0.345637 0.0756,-0.04321 0.12421,-0.07021 0.0486,-0.027 0.0756,-0.027 0.0972,0 0.14582,0.145816 0.054,0.145816 0.054,0.432047 -0.0324,0.264629 -0.054,0.523857 -0.0486,0.405044 -0.14582,0.842491 -0.0918,0.437448 -0.24302,0.907299 -0.0756,0.237625 -0.12962,0.415845 -0.054,0.178219 -0.0756,0.302433 -0.0108,0.07021 -0.0324,0.178219 -0.0162,0.102611 -0.0378,0.243026 -0.054,0.135015 -0.11882,0.27003 -0.054,0.108011 -0.0918,0.259228 -0.0324,0.151216 -0.0594,0.351038 0,0.0378 -0.005,0.09721 -0.005,0.05941 -0.0108,0.124214 -0.12421,0.55086 -0.25382,1.069316 -0.0108,0.04861 -0.0486,0.124213 -0.0702,0.0216 -0.16202,0.09181 -0.0864,0.07021 -0.18362,0.194421 -0.0972,0.108012 -0.16201,0.162018 -0.0648,0.0486 -0.0972,0.0486 -0.0432,0 -0.0702,-0.027 -0.027,-0.027 -0.027,-0.09181 0.005,-0.0432 0.0162,-0.07021 0.0756,-0.18362 0.12961,-0.529258 0.0594,-0.345637 0.10801,-0.853292 0.005,-0.108012 0.0864,-0.583264 0.081,-0.475251 0.23763,-1.317743 0.0216,-0.135014 0.054,-0.329435 0.0378,-0.199822 0.0918,-0.45365 0.0378,-0.129614 0.0594,-0.221424 0.027,-0.09721 0.027,-0.140415 0,-0.05401 -0.0216,-0.07561 -0.0162,-0.027 -0.054,-0.027 -0.0324,0 -0.11882,0.08641 -0.0864,0.08101 -0.21602,0.248427 -0.0756,0.09181 -0.15662,0.194421 -0.0756,0.102612 -0.16202,0.199822 -0.14581,0.151217 -0.27002,0.286231 l -0.39965,0.399644 q -0.054,0.0324 -0.13501,0.08101 -0.0756,0.04861 -0.18362,0.113413 -0.10261,0.162017 -0.32944,0.28083 -0.22142,0.113412 -0.41044,0.113412 -0.22683,0 -0.43745,-0.140415 -0.20522,-0.145816 -0.39964,-0.442848 -0.0864,-0.145816 -0.17282,-0.291631 -0.081,-0.145816 -0.17822,-0.291632 l -0.027,0.0054 q -0.027,0.0324 -0.10261,0.437448 -0.0702,0.405044 -0.18362,1.188129 -0.12421,0.804687 -0.18902,1.263737 -0.0648,0.45905 -0.0648,0.594064 -0.0108,0.18362 -0.0702,0.286231 -0.054,0.09721 -0.17282,0.113408 -0.0594,0.005 -0.16742,0.0324 -0.10801,0.0216 -0.25923,0.0594 -0.027,-0.005 -0.0486,-0.0162 -0.0216,-0.0162 -0.0216,-0.0432 l 0.0324,-0.199823 -0.054,-0.205223 q 0.0324,-0.167418 0.0648,-0.324035 0.0216,-0.324035 0.0378,-0.610266 0.005,-0.05941 0.0378,-0.199822 0.0378,-0.140415 0.0378,-0.210623 0,-0.0378 -0.0162,-0.108011 -0.0162,-0.07561 -0.0162,-0.113413 0,-0.297032 0.0918,-0.880295 0.0972,-0.583263 0.0972,-0.885696 -0.0162,-0.124214 -0.0378,-0.248427 0.027,-0.194421 0.0864,-0.486053 0.0594,-0.291632 0.13501,-0.680474 z"
               style="font-style:normal;font-variant:normal;font-weight:normal;font-stretch:normal;font-size:11.0604px;font-family:Mistral;-inkscape-font-specification:'Mistral, Normal';font-variant-ligatures:normal;font-variant-caps:normal;font-variant-numeric:normal;font-variant-east-asian:normal;stroke-width:0.276511"
               id="path954" />
            <path
               d="m 141.88998,94.900079 q -0.0162,-0.108011 -0.0378,-0.226824 0,0.04861 0.0162,-0.07561 0.0162,-0.124213 0.0432,-0.426646 0.0432,-0.05941 0.0594,-0.102611 0.0216,-0.0486 0.0378,-0.08641 -0.0486,-0.05941 -0.0756,-0.09721 -0.0216,-0.04321 -0.0216,-0.07021 0.0432,-0.329435 0.081,-0.626467 0.005,-0.08101 0.0918,-0.18362 0.0918,-0.102612 0.24843,-0.221424 0.12421,-0.102612 0.24303,-0.172819 0.11881,-0.07021 0.22682,-0.113412 0.14582,-0.04861 0.17282,-0.08101 0.027,-0.0324 0.0594,-0.0324 0.0864,0 0.12961,0.08641 0.0486,0.08641 0.0486,0.259228 0,0.09181 -0.0486,0.253827 -0.0432,0.162018 -0.0432,0.237626 0,0.0324 0.005,0.248427 0.0108,0.216023 0.027,0.621067 0.005,0.291632 0.081,0.621068 0.081,0.329436 0.20522,0.685874 0.16742,0.464451 0.36184,0.696676 0.19442,0.226824 0.42665,0.226824 0.18362,0 0.48605,-0.237625 0.30243,-0.237626 0.71288,-0.712878 0.31323,-0.36724 0.55626,-0.685874 0.24842,-0.318635 0.39964,-0.583263 0.14042,-0.237626 0.32944,-0.426647 0.18902,-0.18902 0.43204,-0.345637 0.0756,-0.04321 0.12422,-0.07021 0.0486,-0.027 0.0756,-0.027 0.0972,0 0.14582,0.145816 0.054,0.145816 0.054,0.432047 -0.0324,0.264629 -0.054,0.523857 -0.0486,0.405044 -0.14582,0.842491 -0.0918,0.437448 -0.24302,0.907299 -0.0756,0.237625 -0.12962,0.415845 -0.054,0.178219 -0.0756,0.302433 -0.0108,0.07021 -0.0324,0.178219 -0.0162,0.102611 -0.0378,0.243026 -0.054,0.135015 -0.11881,0.27003 -0.054,0.108011 -0.0918,0.259228 -0.0324,0.151216 -0.0594,0.351038 0,0.0378 -0.005,0.09721 -0.005,0.05941 -0.0108,0.124214 -0.12422,0.55086 -0.25383,1.069316 -0.0108,0.04861 -0.0486,0.124213 -0.0702,0.0216 -0.16201,0.09181 -0.0864,0.07021 -0.18362,0.194421 -0.0972,0.108012 -0.16202,0.162018 -0.0648,0.0486 -0.0972,0.0486 -0.0432,0 -0.0702,-0.027 -0.027,-0.027 -0.027,-0.09181 0.005,-0.0432 0.0162,-0.07021 0.0756,-0.18362 0.12961,-0.529258 0.0594,-0.345637 0.10802,-0.853292 0.005,-0.108012 0.0864,-0.583264 0.081,-0.475251 0.23763,-1.317743 0.0216,-0.135014 0.054,-0.329435 0.0378,-0.199822 0.0918,-0.45365 0.0378,-0.129614 0.0594,-0.221424 0.027,-0.09721 0.027,-0.140415 0,-0.05401 -0.0216,-0.07561 -0.0162,-0.027 -0.054,-0.027 -0.0324,0 -0.11882,0.08641 -0.0864,0.08101 -0.21602,0.248427 -0.0756,0.09181 -0.15662,0.194421 -0.0756,0.102612 -0.16201,0.199822 -0.14582,0.151217 -0.27003,0.286231 l -0.39965,0.399644 q -0.054,0.0324 -0.13501,0.08101 -0.0756,0.04861 -0.18362,0.113413 -0.10261,0.162017 -0.32944,0.28083 -0.22142,0.113412 -0.41044,0.113412 -0.22683,0 -0.43745,-0.140415 -0.20522,-0.145816 -0.39964,-0.442848 -0.0864,-0.145816 -0.17282,-0.291631 -0.081,-0.145816 -0.17822,-0.291632 l -0.027,0.0054 q -0.027,0.0324 -0.10261,0.437448 -0.0702,0.405044 -0.18362,1.188129 -0.12422,0.804687 -0.18902,1.263737 -0.0648,0.45905 -0.0648,0.594064 -0.0108,0.18362 -0.0702,0.286231 -0.054,0.09721 -0.17282,0.113408 -0.0594,0.005 -0.16742,0.0324 -0.10801,0.0216 -0.25922,0.0594 -0.027,-0.005 -0.0486,-0.0162 -0.0216,-0.0162 -0.0216,-0.0432 l 0.0324,-0.199823 -0.054,-0.205223 q 0.0324,-0.167418 0.0648,-0.324035 0.0216,-0.324035 0.0378,-0.610266 0.005,-0.05941 0.0378,-0.199822 0.0378,-0.140415 0.0378,-0.210623 0,-0.0378 -0.0162,-0.108011 -0.0162,-0.07561 -0.0162,-0.113413 0,-0.297032 0.0918,-0.880295 0.0972,-0.583263 0.0972,-0.885696 -0.0162,-0.124214 -0.0378,-0.248427 0.027,-0.194421 0.0864,-0.486053 0.0594,-0.291632 0.13501,-0.680474 z"
               style="font-style:normal;font-variant:normal;font-weight:normal;font-stretch:normal;font-size:11.0604px;font-family:Mistral;-inkscape-font-specification:'Mistral, Normal';font-variant-ligatures:normal;font-variant-caps:normal;font-variant-numeric:normal;font-variant-east-asian:normal;stroke-width:0.276511"
               id="path956" />
            <path
               d="m 152.14029,98.642685 0.20522,0.496854 q -0.0594,0.05401 -0.14581,0.118813 -0.081,0.05941 -0.19442,0.129614 -0.11341,0.0378 -0.27543,0.108012 -0.15662,0.07021 -0.36184,0.162017 -0.15662,0.09721 -0.25923,0.145816 -0.0972,0.04861 -0.13501,0.04861 -0.0702,0 -0.25923,0.05941 -0.18362,0.05941 -0.48606,0.178219 -0.16201,0.0594 -0.34563,0.12422 -0.17822,0.0594 -0.37264,0.10801 l -0.33484,-0.0702 -0.20522,0.0918 q -0.10261,0 -0.21062,-0.005 -0.10262,0 -0.19983,-0.0108 -0.15661,-0.005 -0.23762,-0.0432 -0.0756,-0.0378 -0.0756,-0.10801 l 0.0324,-0.205223 -0.0324,-0.0378 q -0.18362,0 -0.24843,-0.0486 -0.0594,-0.04861 -0.0594,-0.226825 0,-0.08101 0.005,-0.270029 0.0108,-0.18902 0.027,-0.491453 0,-0.027 0.0324,-0.113412 0.0378,-0.08641 0.0378,-0.124214 -0.027,-0.05401 -0.0324,-0.08641 -0.005,-0.0324 -0.005,-0.05941 0.0108,-0.210623 0.0432,-0.518456 0.0378,-0.307833 0.0918,-0.729079 0.0648,-0.253828 0.10801,-0.572462 -0.0108,-0.237626 -0.0216,-0.486053 0.19982,-0.896497 0.41044,-1.803796 0.0324,-0.162017 0.11881,-0.307833 0.0918,-0.145816 0.21603,-0.280831 0.054,-0.0378 0.0702,-0.05941 0.027,-0.04861 0.0702,-0.118813 0.0432,-0.07561 0.10261,-0.167418 0.0324,-0.0216 0.10262,-0.06481 0.0756,-0.04321 0.19982,-0.118813 0.054,-0.04321 0.12421,-0.102611 0.0702,-0.05941 0.16202,-0.140415 0.20522,-0.124214 0.37804,-0.259228 0.17822,-0.140416 0.44285,-0.172819 0.12421,-0.0054 0.24842,-0.0108 0.12422,-0.0108 0.23763,-0.0216 0.10801,-0.0216 0.18902,-0.027 0.054,-0.0108 0.0918,-0.0216 0.0432,-0.0108 0.0756,-0.0108 0.0324,0 0.0864,0.0108 0.0594,0.0054 0.15662,0.0216 0.0756,0.0054 0.12961,0.0054 0.054,0 0.10261,-0.0054 0.21602,0.06481 0.31864,0.189021 0.10261,0.124213 0.10261,0.297032 0,0.372641 -0.0756,0.55626 -0.0702,0.17822 -0.22683,0.17822 -0.11881,0 -0.27003,-0.118813 -0.15121,-0.124214 -0.81548,-0.124214 -0.27543,0.05401 -0.54546,0.108012 -0.027,0.04321 -0.0648,0.06481 -0.0324,0.0216 -0.0594,0.0324 l -0.18902,-0.07021 q -0.0864,0.0324 -0.19442,0.178219 -0.10801,0.145816 -0.22682,0.399644 -0.027,0.05401 -0.0432,0.135014 -0.0108,0.08101 -0.0108,0.189021 -0.0972,0.388842 -0.19442,0.750681 -0.0918,0.388843 -0.15122,0.588664 -0.054,0.199822 -0.0648,0.243027 -0.0162,0.05401 -0.027,0.102611 -0.0108,0.04861 -0.0108,0.09721 0,0.07021 0.027,0.108012 0.027,0.0378 0.081,0.0378 0.0486,0 0.23223,-0.178219 0.18902,-0.17822 0.28083,-0.199822 0.11341,-0.0324 0.22682,-0.07021 0.11882,-0.0378 0.24303,-0.09181 0.0486,-0.0162 0.25383,-0.04321 0.21062,-0.027 0.58326,-0.06481 l 0.15122,0.0432 0.28623,-0.05401 0.15122,0.07021 q 0.054,0.05401 0.0972,0.135015 0.0486,0.07561 0.0864,0.167418 0,0.324035 -0.0702,0.491453 -0.0702,0.167419 -0.21063,0.167419 L 151.314,96.74708 q -0.36724,0.0378 -0.72908,0.07561 -0.35644,0.0324 -0.72908,0.06481 -0.45364,0.09181 -0.69667,0.297032 -0.24303,0.205222 -0.27003,0.540059 -0.005,0.07021 -0.0378,0.216023 -0.0324,0.145816 -0.0756,0.361839 l 0.0378,0.162018 q -0.0486,0.232225 -0.0756,0.437447 -0.027,0.205223 -0.027,0.36724 0,0.05401 0.0162,0.08101 0.0162,0.0216 0.0378,0.0108 0.25922,-0.0216 0.41584,-0.0324 0.15662,-0.0108 0.22143,-0.0054 0.14041,0.0108 0.28623,0.0216 l 0.34023,-0.027 q 0.054,-0.0108 0.23223,-0.08641 0.18362,-0.07561 0.32943,-0.07561 0.15662,0 0.31324,-0.0324 0.16202,-0.0324 0.30783,-0.08641 0.14582,-0.05401 0.28623,-0.108012 0.14582,-0.05941 0.29163,-0.113412 0.054,-0.0162 0.14042,-0.05941 0.0918,-0.04321 0.21062,-0.113413 z m 0.0432,-7.512215 q -0.0486,0.06481 -0.10261,0.129614 -0.0486,0.05941 -0.0918,0.118813 -0.0432,0.04861 -0.0594,0.124214 -0.0162,0.07021 -0.054,0.118813 -0.0432,0.05941 -0.11341,0.102611 -0.0702,0.0378 -0.10261,0.08101 -0.0324,0.0432 -0.0864,0.08101 -0.0486,0.0324 -0.081,0.07021 l -0.11341,-0.0054 q -0.005,0.0324 0.0216,0.156617 -0.0324,0.0324 -0.0432,0.08101 -0.005,0.04321 -0.0378,0.07021 -0.027,0.027 -0.081,0.0378 -0.054,0.0108 -0.0756,0.027 -0.0324,0.0216 -0.0756,0.0324 -0.0432,0.0054 -0.0756,0.0108 -0.0324,0.0054 -0.0648,0.0216 -0.0324,0.0162 -0.0648,0.0162 -0.0324,0 -0.0648,-0.0108 -0.027,-0.0108 -0.0594,-0.027 -0.0486,-0.027 -0.10261,-0.08101 -0.0486,-0.05941 -0.0918,-0.129614 -0.0216,-0.04861 -0.054,-0.09721 -0.0324,-0.0486 -0.0648,-0.09721 -0.0324,-0.04861 -0.0756,-0.09721 -0.0432,-0.0486 -0.081,-0.09181 -0.0432,-0.0486 -0.0918,-0.102611 -0.0486,-0.05401 -0.0972,-0.102611 -0.0378,-0.0378 -0.0864,-0.08101 -0.0432,-0.04321 -0.0864,-0.08101 -0.0486,-0.0324 -0.0864,-0.06481 -0.0378,-0.0378 -0.054,-0.06481 -0.0162,-0.0324 -0.027,-0.05941 -0.0108,-0.027 -0.0108,-0.05401 0,-0.027 0.0216,-0.05941 0.0216,-0.0378 0.054,-0.07021 0.0378,-0.0378 0.14582,-0.102611 0.0972,-0.0162 0.14581,0.0108 0.0216,0.0162 0.0432,0.06481 0.027,0.0486 0.0594,0.07021 0.0378,0.0216 0.081,0.04861 0.0432,0.027 0.0864,0.05401 0.0486,0.027 0.0972,0.05941 0.054,0.0324 0.10261,0.05941 0.054,0.0324 0.081,0.03781 0.027,0.0054 0.081,0.0378 0.0216,0.0108 0.10261,0.0324 0.081,0.0216 0.10261,0.0378 0.0378,0.027 0.0648,0.0378 0.027,0.0108 0.0756,-0.0162 l 0.0972,-0.07021 q 0.0486,-0.0324 0.081,-0.05401 0.0324,-0.027 0.0756,-0.05941 0.0486,-0.04321 0.10261,-0.08641 0.054,-0.04861 0.0972,-0.09181 0.0432,-0.0378 0.0864,-0.08101 0.0432,-0.04861 0.0756,-0.09181 0.0432,-0.04861 0.0648,-0.09181 0.0216,-0.0432 0.054,-0.07021 0.0432,-0.0324 0.16202,-0.07021 0.0378,0 0.0702,0.0162 0.0324,0.0108 0.054,0.0378 0.0864,0.06481 0.12421,0.108012 0.0378,0.04321 0.0378,0.08101 0,0.0324 -0.027,0.08641 -0.0216,0.0486 -0.0648,0.102611 z"
               style="font-style:normal;font-variant:normal;font-weight:normal;font-stretch:normal;font-size:11.0604px;font-family:Mistral;-inkscape-font-specification:'Mistral, Normal';font-variant-ligatures:normal;font-variant-caps:normal;font-variant-numeric:normal;font-variant-east-asian:normal;stroke-width:0.276511"
               id="path958" />
            <path
               d="m 153.81988,99.23675 q 0.16741,0 0.26462,0.0432 0.0972,0.0378 0.11882,0.108012 l -0.054,0.415845 q -0.0162,0.07561 -0.0216,0.156617 -0.005,0.07561 -0.0216,0.151216 -0.027,0.0702 -0.0918,0.10262 -0.0648,0.0324 -0.17822,0.0324 -0.0864,0 -0.24303,0.0378 -0.15122,0.0432 -0.23222,0.0432 -0.12422,0 -0.18902,-0.10801 -0.0594,-0.11342 -0.0594,-0.345645 0,-0.216024 0.23762,-0.426646 0.24303,-0.210623 0.46986,-0.210623 z m -0.10802,-3.369966 q 0.0594,-0.178219 0.0918,-0.313234 0.0324,-0.135014 0.0324,-0.226824 0,-0.04861 -0.0162,-0.124214 -0.0108,-0.08101 -0.0162,-0.378041 -0.0324,0.0108 -0.0702,0.0108 l -0.0918,-0.05941 -0.0162,-0.07561 q 0,-0.124214 0.0756,-0.36184 0.081,-0.237625 0.0702,-0.351038 l -0.005,-0.286231 q -0.0108,-0.07561 0.005,-0.167418 0.0216,-0.09721 0.0648,-0.194421 0.0432,-0.118813 0.0972,-0.189021 0.054,-0.07561 0.11881,-0.09721 0.027,-0.0162 0.0594,-0.027 0.0378,-0.0162 0.0702,-0.027 0.10262,-0.08101 0.19443,-0.151216 0.0918,-0.07561 0.16741,-0.151217 0.13502,-0.09181 0.24303,-0.145816 0.11341,-0.05401 0.19982,-0.05401 0.0702,0 0.0972,0.07021 0.0324,0.06481 0.0324,0.199822 0,0.08101 -0.0216,0.216023 -0.0162,0.129614 -0.0594,0.302433 -0.0432,0.178219 -0.0702,0.307833 -0.027,0.129615 -0.0324,0.210623 -0.005,0.118813 -0.0486,0.432047 -0.0432,0.307834 -0.12961,0.793886 -0.0594,0.324035 -0.14582,0.82629 -0.0864,0.496854 -0.19982,1.155725 0,0.05941 -0.0162,0.140416 -0.0108,0.08101 -0.027,0.199821 -0.0108,0.0324 -0.027,0.07561 -0.0162,0.0378 -0.0432,0.08101 -0.0108,0.0378 -0.0378,0.237626 -0.027,0.194421 -0.0594,0.55626 -0.0162,0.102612 -0.28623,0.340237 -0.26463,0.232226 -0.35644,0.232226 -0.0594,-0.0054 -0.0756,-0.0324 0,-0.027 -0.005,-0.102611 -0.005,-0.07561 -0.005,-0.113412 l 0.054,-0.221424 q -0.0216,-0.194422 -0.0432,-0.378041 0,-0.124214 0.005,-0.237626 0.0108,-0.113413 0.0216,-0.221424 0.0324,-0.124214 0.0648,-0.199822 0.0162,-0.05401 0.027,-0.113412 0.0108,-0.05941 0.0108,-0.09721 -0.005,-0.140415 -0.005,-0.264629 0,0.027 0,-0.0324 0.005,-0.05941 0.0108,-0.189021 0.0108,-0.0486 0.0108,-0.09181 0,-0.0486 0,-0.102611 0.0594,-0.167418 0.081,-0.318634 0.027,-0.151217 0.005,-0.291632 z"
               style="font-style:normal;font-variant:normal;font-weight:normal;font-stretch:normal;font-size:11.0604px;font-family:Mistral;-inkscape-font-specification:'Mistral, Normal';font-variant-ligatures:normal;font-variant-caps:normal;font-variant-numeric:normal;font-variant-east-asian:normal;stroke-width:0.276511"
               id="path960" />
          </g>
        </g>
      </g>
    </g>
  </g>
  <g
     inkscape:groupmode="layer"
     id="layer2"
     inkscape:label="Layer 1"
     transform="matrix(0.93744766,0,0,0.92791976,73.545628,-126.27482)" />
</svg>
